<?xml version="1.0" encoding="UTF-8"?>
<!DOCTYPE svg PUBLIC "-//W3C//DTD SVG 1.0//EN" "http://www.w3.org/TR/2001/REC-SVG-20010904/DTD/svg10.dtd">
<!-- Creator: CorelDRAW -->
<svg xmlns="http://www.w3.org/2000/svg" xml:space="preserve" width="1.3724mm" height="1.4763mm" version="1.0" shape-rendering="geometricPrecision" text-rendering="geometricPrecision" image-rendering="optimizeQuality" fill-rule="evenodd" clip-rule="evenodd"
viewBox="0 0 1.59 1.71"
 xmlns:xlink="http://www.w3.org/1999/xlink"
 xmlns:xodm="http://www.corel.com/coreldraw/odm/2003">
 <g id="Layer_x0020_1">
  <metadata id="CorelCorpID_0Corel-Layer"/>
  <path fill="#0000F8" fill-rule="nonzero" d="M1.42 1.19c-0.1,-0.09 -0.21,-0.14 -0.31,-0.05l-0.06 0.05c-0.04,0.04 -0.13,0.22 -0.45,-0.15 -0.32,-0.37 -0.13,-0.43 -0.09,-0.46l0.06 -0.05c0.1,-0.09 0.06,-0.2 -0.01,-0.32l-0.04 -0.07c-0.07,-0.11 -0.15,-0.19 -0.26,-0.1l-0.06 0.05c-0.05,0.03 -0.17,0.14 -0.2,0.34 -0.04,0.24 0.08,0.52 0.35,0.83 0.27,0.31 0.53,0.46 0.77,0.46 0.2,-0 0.33,-0.11 0.37,-0.15l0.06 -0.05c0.03,-0.02 0.04,-0.04 0.05,-0.07l0 -0.06c-0.01,-0.05 -0.06,-0.1 -0.11,-0.14l-0.06 -0.05z"/>
 </g>
</svg>
