<?xml version="1.0" encoding="UTF-8"?>
<!DOCTYPE svg PUBLIC "-//W3C//DTD SVG 1.0//EN" "http://www.w3.org/TR/2001/REC-SVG-20010904/DTD/svg10.dtd">
<!-- Creator: CorelDRAW -->
<svg xmlns="http://www.w3.org/2000/svg" xml:space="preserve" width="1.5214mm" height="1.4828mm" version="1.0" shape-rendering="geometricPrecision" text-rendering="geometricPrecision" image-rendering="optimizeQuality" fill-rule="evenodd" clip-rule="evenodd"
viewBox="0 0 6.95 6.77"
 xmlns:xlink="http://www.w3.org/1999/xlink"
 xmlns:xodm="http://www.corel.com/coreldraw/odm/2003">
 <g id="Layer_x0020_1">
  <metadata id="CorelCorpID_0Corel-Layer"/>
  <path fill="#FEFEFE" fill-rule="nonzero" d="M6.88 3.07c-0.07,-0.15 -0.19,-0.27 -0.34,-0.34l-5.49 -2.66c-0.36,-0.18 -0.8,-0.02 -0.97,0.34 -0.09,0.18 -0.1,0.4 -0.02,0.59l0.96 2.39 -0.96 2.39c-0.15,0.37 0.03,0.8 0.41,0.95 0.08,0.03 0.17,0.05 0.27,0.05 0.11,0 0.22,-0.02 0.32,-0.07l5.49 -2.66c0.36,-0.18 0.51,-0.61 0.34,-0.97zm-6.04 3.19c-0.12,0.06 -0.27,0.01 -0.32,-0.11 -0.03,-0.06 -0.03,-0.13 -0.01,-0.2l0.93 -2.33 4.84 0 -5.44 2.63zm0.6 -3.12l-0.93 -2.33c-0.04,-0.09 -0.01,-0.2 0.06,-0.27 0.07,-0.07 0.18,-0.09 0.27,-0.04l5.44 2.63 -4.84 0z"/>
 </g>
</svg>
