<?xml version="1.0" encoding="UTF-8"?>
<!DOCTYPE svg PUBLIC "-//W3C//DTD SVG 1.0//EN" "http://www.w3.org/TR/2001/REC-SVG-20010904/DTD/svg10.dtd">
<!-- Creator: CorelDRAW -->
<svg xmlns="http://www.w3.org/2000/svg" xml:space="preserve" width="1.9288mm" height="1.9288mm" version="1.0" shape-rendering="geometricPrecision" text-rendering="geometricPrecision" image-rendering="optimizeQuality" fill-rule="evenodd" clip-rule="evenodd"
viewBox="0 0 3.29 3.29"
 xmlns:xlink="http://www.w3.org/1999/xlink"
 xmlns:xodm="http://www.corel.com/coreldraw/odm/2003">
 <g id="Layer_x0020_1">
  <metadata id="CorelCorpID_0Corel-Layer"/>
  <g id="_2012540219104">
   <path fill="#0000F8" d="M2.96 1.64c0,0.72 -0.59,1.31 -1.31,1.31 -0.72,0 -1.31,-0.59 -1.31,-1.31 0,-0.72 0.59,-1.31 1.31,-1.31 0.13,0 0.25,0.02 0.36,0.05l0.26 -0.26c-0.2,-0.07 -0.41,-0.12 -0.62,-0.12 -0.9,0 -1.64,0.74 -1.64,1.64 0,0.9 0.74,1.64 1.64,1.64 0.9,0 1.64,-0.74 1.64,-1.64l-0.33 0z"/>
   <polygon fill="#00C5FF" points="0.97,1.33 0.74,1.56 1.48,2.3 3.12,0.66 2.89,0.43 1.48,1.84 "/>
  </g>
 </g>
</svg>
