<?xml version="1.0" encoding="UTF-8"?>
<!DOCTYPE svg PUBLIC "-//W3C//DTD SVG 1.0//EN" "http://www.w3.org/TR/2001/REC-SVG-20010904/DTD/svg10.dtd">
<!-- Creator: CorelDRAW -->
<svg xmlns="http://www.w3.org/2000/svg" xml:space="preserve" width="62.2289mm" height="51.4064mm" version="1.0" shape-rendering="geometricPrecision" text-rendering="geometricPrecision" image-rendering="optimizeQuality" fill-rule="evenodd" clip-rule="evenodd"
viewBox="0 0 3266.13 2698.1"
 xmlns:xlink="http://www.w3.org/1999/xlink"
 xmlns:xodm="http://www.corel.com/coreldraw/odm/2003">
 <g id="Layer_x0020_1">
  <metadata id="CorelCorpID_0Corel-Layer"/>
  <path fill="#0000F8" d="M246.77 0c959.47,0 2277.39,0 2277.39,0 136.36,0 246.77,110.82 246.77,246.77 0,288.79 0,1332.01 0,1332.01 -13.59,0 -13.59,0 -13.59,0 0,-288.79 0,-1332.01 0,-1332.01 0,-128.54 -104.64,-233.17 -233.18,-233.17 -959.47,0 -2277.39,0 -2277.39,0 -128.54,0 -233.18,104.64 -233.18,233.17 0,710.23 0,1753.46 0,1753.46 0,128.53 104.64,233.17 233.18,233.17 699.52,0 2017.44,0 2017.44,0 30.49,0 55.2,22.66 58.5,52.32 23.07,227.41 212.99,398.79 441.63,398.79 244.71,0 443.69,-199.39 443.69,-444.1 13.6,0 13.6,0 13.6,0 0,122.35 -47.38,237.29 -133.89,323.39 -86.51,86.51 -201.46,134.3 -323.4,134.3 -114.11,0 -223.29,-42.43 -307.74,-119.06 -83.63,-76.21 -135.95,-179.62 -147.49,-291.67 -2.47,-23.07 -21.42,-39.96 -44.9,-39.96 -699.52,-0.42 -2017.44,-0.42 -2017.44,-0.42 -135.95,0 -246.77,-110.81 -246.77,-246.76 0,-710.24 0,-1753.46 0,-1753.46 0,-135.95 110.82,-246.77 246.77,-246.77l0 0z"/>
  <g id="_2012540220640">
   <path fill="#0000F8" d="M2764.35 1782.71c0,13.6 0,13.6 0,13.6 -214.63,0 -398.38,153.25 -436.69,363.77 -13.59,-2.47 -13.59,-2.47 -13.59,-2.47 18.95,-103.82 74.15,-198.98 155.72,-267.37 81.98,-69.21 186.62,-107.52 294.55,-107.52l0 0z"/>
   <path fill="#0000F8" d="M2764.35 1738.63c133.89,0 259.95,51.9 354.7,146.66 94.76,95.17 147.08,221.23 147.08,355.12 -102.17,0 -102.17,0 -102.17,0 0,-220.4 -179.62,-399.61 -399.61,-399.61l0 -102.16z"/>
  </g>
 </g>
</svg>
