<?xml version="1.0" encoding="UTF-8"?>
<!DOCTYPE svg PUBLIC "-//W3C//DTD SVG 1.0//EN" "http://www.w3.org/TR/2001/REC-SVG-20010904/DTD/svg10.dtd">
<!-- Creator: CorelDRAW -->
<svg xmlns="http://www.w3.org/2000/svg" xml:space="preserve" width="62.2289mm" height="51.4064mm" version="1.0" shape-rendering="geometricPrecision" text-rendering="geometricPrecision" image-rendering="optimizeQuality" fill-rule="evenodd" clip-rule="evenodd"
viewBox="0 0 60106.73 49653.3"
 xmlns:xlink="http://www.w3.org/1999/xlink"
 xmlns:xodm="http://www.corel.com/coreldraw/odm/2003">
 <g id="Layer_x0020_1">
  <metadata id="CorelCorpID_0Corel-Layer"/>
  <path fill="#1298F9" d="M55565.37 49653.3c-17657.18,0 -41910.96,0 -41910.96,0 -2509.5,0 -4541.36,-2039.4 -4541.36,-4541.36 0,-5314.56 0,-24513.12 0,-24513.12 250.17,0 250.17,0 250.17,0 0,5314.66 0,24513.12 0,24513.12 0,2365.48 1925.71,4291.1 4291.19,4291.1 17657.18,0 41910.96,0 41910.96,0 2365.48,0 4291.19,-1925.61 4291.19,-4291.1 0,-13070.33 0,-32268.99 0,-32268.99 0,-2365.39 -1925.71,-4291.1 -4291.19,-4291.1 -12873.38,0 -37127.16,0 -37127.16,0 -561.09,0 -1015.93,-416.98 -1076.59,-962.81 -424.61,-4185.04 -3919.61,-7338.89 -8127.35,-7338.89 -4503.4,0 -8165.21,3669.44 -8165.21,8172.75 -250.26,0 -250.26,0 -250.26,0 0,-2251.6 871.92,-4366.82 2464,-5951.38 1592.09,-1592.09 3707.4,-2471.54 5951.47,-2471.54 2100.05,0 4109.22,780.93 5663.35,2190.94 1539.06,1402.58 2501.87,3305.59 2714.27,5367.78 45.4,424.61 394.18,735.34 826.33,735.34 12873.38,7.73 37127.16,7.73 37127.16,7.73 2501.96,0 4541.36,2039.3 4541.36,4541.17 0,13070.52 0,32268.99 0,32268.99 0,2501.96 -2039.4,4541.36 -4541.36,4541.36l0 0z"/>
  <g id="_1975725048800">
   <path fill="#1298F9" d="M9234.27 16846.02c0,-250.26 0,-250.26 0,-250.26 3949.94,0 7331.35,-2820.32 8036.36,-6694.44 250.17,45.49 250.17,45.49 250.17,45.49 -348.69,1910.64 -1364.62,3661.91 -2865.82,4920.47 -1508.64,1273.63 -3434.34,1978.74 -5420.71,1978.74l0 0z"/>
   <path fill="#1298F9" d="M9234.27 17657.18c-2463.91,0 -4783.9,-955.18 -6527.63,-2698.91 -1743.83,-1751.36 -2706.64,-4071.26 -2706.64,-6535.26 1880.22,0 1880.22,0 1880.22,0 0,4056.09 3305.59,7354.05 7354.05,7354.05l0 1880.12z"/>
  </g>
 </g>
</svg>
