<?xml version="1.0" encoding="UTF-8"?>
<!DOCTYPE svg PUBLIC "-//W3C//DTD SVG 1.0//EN" "http://www.w3.org/TR/2001/REC-SVG-20010904/DTD/svg10.dtd">
<!-- Creator: CorelDRAW -->
<svg xmlns="http://www.w3.org/2000/svg" xml:space="preserve" width="6.0051mm" height="6.0052mm" version="1.0" shape-rendering="geometricPrecision" text-rendering="geometricPrecision" image-rendering="optimizeQuality" fill-rule="evenodd" clip-rule="evenodd"
viewBox="0 0 524.39 524.4"
 xmlns:xlink="http://www.w3.org/1999/xlink"
 xmlns:xodm="http://www.corel.com/coreldraw/odm/2003">
 <g id="Layer_x0020_1">
  <metadata id="CorelCorpID_0Corel-Layer"/>
  <g id="_002-eye.eps">
   <path fill="#1298F9" fill-rule="nonzero" d="M524.38 263.14c0.6,-147.76 -120.01,-263.49 -262.18,-263.13 -147.45,-0.12 -263.11,120.8 -262.19,263.08 0.38,146.78 120.59,261.69 262.19,261.3 146.77,0.13 262.09,-119.72 262.18,-261.25zm-262.5 108.54c-57.1,0.53 -109.25,-51.08 -107.92,-109.01 0,-29.37 11.07,-56.97 31.18,-77.74 16.69,-17.23 38.01,-28.03 61.15,-31.23l0 47.18c-26.92,6.99 -46.9,31.91 -46.9,61.5 0,34.79 28.38,63.09 63.27,63.09 13.74,0 26.44,-4.52 36.75,-12.18l32.97 32.96c-19.25,16.55 -44.4,25.8 -70.51,25.42zm90.81 -48.58l-33.72 -33.71c3.85,-8.19 6.01,-17.35 6.01,-27.01 0,-29.69 -20.43,-54.66 -47.95,-61.57l0 -46.89c22.85,3.47 44.08,14.23 61,31.17 20.89,20.92 32.39,48.47 32.39,77.58 0,21.87 -6.19,42.73 -17.73,60.43zm-91.03 -93.45c17.67,0 32.6,14.98 32.6,32.74 0.16,16.54 -13.04,32.44 -31.59,32.37 -17.95,0 -32.54,-14.52 -32.54,-32.37 0,-18.05 14.15,-32.74 31.53,-32.74zm-103.21 125.38c-56.39,-18.28 -106.23,-64.07 -124.45,-91.88 19.1,-28.45 80.7,-77.96 121.74,-91.4 -43.34,50.44 -43.5,133.61 2.71,183.28zm242.69 -92.35c0,-34.08 -12.27,-66.45 -34.74,-92.17 57.69,19.11 105.75,63.47 124.24,91.89 -18.59,29.45 -79.33,77.04 -121.55,90.16 20.74,-25.09 32.05,-56.58 32.05,-89.88zm-302.62 -164.14c43.71,-43.71 101.85,-67.79 163.67,-67.79 61.83,0 119.95,24.08 163.67,67.79 31.56,31.56 52.87,70.62 62.3,113.16 -57.7,-58.66 -142.22,-88.41 -226.34,-89.64 -108.87,-0.11 -170.67,40.66 -226.35,93.23 8.99,-43.92 30.61,-84.31 63.06,-116.75zm327.34 327.34c-43.72,43.71 -101.85,67.79 -163.67,67.79 -110.69,0.42 -203.08,-78.47 -225.81,-180.22 59.81,60.94 133.41,88.89 225.43,88.89 82.84,0 168.95,-33.1 226.55,-90.6 -9.31,42.92 -30.69,82.34 -62.5,114.14z"/>
  </g>
 </g>
</svg>
