<?xml version="1.0" encoding="UTF-8"?>
<!DOCTYPE svg PUBLIC "-//W3C//DTD SVG 1.0//EN" "http://www.w3.org/TR/2001/REC-SVG-20010904/DTD/svg10.dtd">
<!-- Creator: CorelDRAW -->
<svg xmlns="http://www.w3.org/2000/svg" xml:space="preserve" width="6.148mm" height="6.1479mm" version="1.0" shape-rendering="geometricPrecision" text-rendering="geometricPrecision" image-rendering="optimizeQuality" fill-rule="evenodd" clip-rule="evenodd"
viewBox="0 0 195.42 195.42"
 xmlns:xlink="http://www.w3.org/1999/xlink"
 xmlns:xodm="http://www.corel.com/coreldraw/odm/2003">
 <g id="Layer_x0020_1">
  <metadata id="CorelCorpID_0Corel-Layer"/>
  <g id="_001-target.eps">
   <path fill="#0000F8" fill-rule="nonzero" d="M101.07 6.73c-15.1,0 -29.98,3.64 -43.32,10.55l-15.59 -15.59c-1.38,-1.38 -3.37,-1.96 -5.27,-1.55 -1.91,0.42 -3.47,1.77 -4.15,3.6l-7.87 21.13 -21.13 7.87c-1.83,0.68 -3.18,2.25 -3.6,4.15 -0.41,1.91 0.17,3.9 1.55,5.28l15.59 15.59c-6.91,13.34 -10.55,28.22 -10.55,43.32 0,52.02 42.32,94.35 94.35,94.35 52.02,0 94.35,-42.32 94.35,-94.35 0,-52.02 -42.33,-94.35 -94.35,-94.35zm0 125.4c17.12,0 31.05,-13.93 31.05,-31.05 0,-17.12 -13.93,-31.05 -31.05,-31.05 -6.49,0 -12.53,2.01 -17.51,5.43l-14.42 -14.42c8.76,-7 19.87,-11.2 31.93,-11.2 28.25,0 51.23,22.98 51.23,51.23 0,28.25 -22.98,51.23 -51.23,51.23 -28.25,0 -51.23,-22.98 -51.23,-51.23 0,-12.06 4.19,-23.17 11.2,-31.93l14.42 14.42c-3.42,4.99 -5.43,11.02 -5.43,17.51 0,17.12 13.93,31.05 31.05,31.05zm4.06 -35.1l-13.24 -13.24c2.74,-1.46 5.87,-2.29 9.18,-2.29 10.8,0 19.59,8.79 19.59,19.58 0,10.8 -8.79,19.59 -19.59,19.59 -10.8,0 -19.59,-8.79 -19.59,-19.59 0,-3.32 0.83,-6.44 2.29,-9.18l13.24 13.24c1.12,1.12 2.58,1.68 4.05,1.68 1.47,0 2.93,-0.56 4.05,-1.68 2.24,-2.24 2.24,-5.87 0,-8.11zm-64.76 -80.92l19.29 19.29 -2.48 13.68 -21.2 -21.2 4.39 -11.77zm-24.27 24.27l11.77 -4.39 21.2 21.2 -13.68 2.48 -19.29 -19.29zm84.97 143.59c-45.7,0 -82.88,-37.18 -82.88,-82.88 0,-12.03 2.63,-23.9 7.65,-34.75l3.56 3.56c1.08,1.08 2.55,1.68 4.05,1.68 0.34,0 0.68,-0.03 1.02,-0.09l12.63 -2.29c-5.55,9.35 -8.74,20.25 -8.74,31.89 0,34.57 28.13,62.7 62.7,62.7 34.57,0 62.7,-28.13 62.7,-62.7 0,-34.57 -28.12,-62.7 -62.7,-62.7 -11.64,0 -22.54,3.19 -31.89,8.74l2.29 -12.63c0.33,-1.85 -0.26,-3.75 -1.59,-5.08l-3.56 -3.56c10.84,-5.02 22.72,-7.65 34.75,-7.65 45.7,0 82.88,37.18 82.88,82.88 0,45.7 -37.18,82.89 -82.88,82.89z"/>
  </g>
 </g>
</svg>
