<?xml version="1.0" encoding="UTF-8"?>
<!DOCTYPE svg PUBLIC "-//W3C//DTD SVG 1.0//EN" "http://www.w3.org/TR/2001/REC-SVG-20010904/DTD/svg10.dtd">
<!-- Creator: CorelDRAW -->
<svg xmlns="http://www.w3.org/2000/svg" xml:space="preserve" width="10.8011mm" height="10.9226mm" version="1.0" shape-rendering="geometricPrecision" text-rendering="geometricPrecision" image-rendering="optimizeQuality" fill-rule="evenodd" clip-rule="evenodd"
viewBox="0 0 166.23 168.09"
 xmlns:xlink="http://www.w3.org/1999/xlink"
 xmlns:xodm="http://www.corel.com/coreldraw/odm/2003">
 <g id="Layer_x0020_1">
  <metadata id="CorelCorpID_0Corel-Layer"/>
  <path fill="#BDCAFC" fill-rule="nonzero" d="M133.23 85.76c0,34.54 -26.39,62.54 -58.95,62.54 -32.56,0 -58.95,-28 -58.95,-62.54 0,-34.54 26.39,-62.54 58.95,-62.54 32.56,0 58.95,28 58.95,62.54z"/>
  <path fill="white" fill-rule="nonzero" d="M34.73 51.74c0,5.98 -4.85,10.83 -10.83,10.83 -5.98,0 -10.83,-4.85 -10.83,-10.83 0,-5.98 4.85,-10.83 10.83,-10.83 5.98,0 10.83,4.85 10.83,10.83z"/>
  <path fill="#7F93FA" fill-rule="nonzero" d="M160.66 96.56c0,5.14 -4.17,9.31 -9.31,9.31 -5.14,0 -9.31,-4.17 -9.31,-9.31 0,-5.14 4.17,-9.31 9.31,-9.31 5.14,0 9.31,4.17 9.31,9.31z"/>
  <path fill="#7F93FA" fill-rule="nonzero" d="M24.14 12.65c0,6.3 -5.11,11.4 -11.4,11.4 -6.3,0 -11.4,-5.1 -11.4,-11.4 0,-6.3 5.11,-11.4 11.4,-11.4 6.3,0 11.4,5.1 11.4,11.4z"/>
  <path fill="white" fill-rule="nonzero" d="M134.08 133.01c0,7.33 -5.95,13.28 -13.28,13.28 -7.33,0 -13.28,-5.95 -13.28,-13.28 0,-7.33 5.95,-13.28 13.28,-13.28 7.33,0 13.28,5.95 13.28,13.28z"/>
  <path fill="#7F93FA" fill-rule="nonzero" d="M50.73 149.52c0,9.12 -7.39,16.51 -16.51,16.51 -9.12,0 -16.51,-7.39 -16.51,-16.51 0,-9.12 7.39,-16.51 16.51,-16.51 9.12,0 16.51,7.39 16.51,16.51z"/>
  <path fill="white" fill-rule="nonzero" d="M141.28 46.78c0,8.72 -7.07,15.8 -15.8,15.8 -8.72,0 -15.8,-7.07 -15.8,-15.8 0,-8.73 7.07,-15.8 15.8,-15.8 8.73,0 15.8,7.07 15.8,15.8z"/>
  <path fill="white" fill-rule="nonzero" d="M70.84 26.61c0,3.84 -3.11,6.95 -6.95,6.95 -3.84,0 -6.95,-3.11 -6.95,-6.95 0,-3.84 3.11,-6.95 6.95,-6.95 3.84,0 6.95,3.11 6.95,6.95z"/>
  <path fill="#7F93FA" fill-rule="nonzero" d="M66.08 131.43l12.23 0c17.59,0 31.86,-18.71 31.86,-41.79 0,-23.08 -14.26,-41.79 -31.86,-41.79l-12.23 0 0 83.58z"/>
  <path fill="white" fill-rule="nonzero" d="M97.94 89.64c0,23.08 -14.26,41.79 -31.86,41.79 -17.59,0 -31.86,-18.71 -31.86,-41.79 0,-23.08 14.26,-41.79 31.86,-41.79 17.59,0 31.86,18.71 31.86,41.79z"/>
  <g id="_2593276402832">
   <path fill="#032CAE" fill-rule="nonzero" d="M26.12 13.06c0,3.6 -1.46,6.87 -3.82,9.23 -2.36,2.36 -5.63,3.82 -9.23,3.82 -3.6,0 -6.87,-1.46 -9.24,-3.82l-0.11 -0.12c-2.3,-2.35 -3.71,-5.57 -3.71,-9.11 0,-3.6 1.46,-6.87 3.82,-9.23 2.36,-2.37 5.63,-3.83 9.24,-3.83 3.6,0 6.87,1.46 9.23,3.82 2.36,2.36 3.82,5.63 3.82,9.24zm-6.74 6.32c1.62,-1.62 2.61,-3.85 2.61,-6.32 0,-2.47 -1,-4.7 -2.61,-6.32 -1.62,-1.62 -3.85,-2.61 -6.32,-2.61 -2.47,0 -4.7,1 -6.32,2.61 -1.61,1.61 -2.61,3.85 -2.61,6.32 0,2.42 0.96,4.62 2.52,6.23l0.1 0.09c1.62,1.62 3.85,2.61 6.32,2.61 2.47,0 4.7,-1 6.32,-2.61z"/>
   <path fill="#032CAE" fill-rule="nonzero" d="M37.11 51.67c0,3.6 -1.46,6.87 -3.82,9.24l-0.12 0.11c-2.35,2.3 -5.57,3.71 -9.11,3.71 -3.61,0 -6.87,-1.46 -9.23,-3.83l-0.11 -0.12c-2.3,-2.35 -3.71,-5.57 -3.71,-9.11 0,-3.6 1.46,-6.86 3.82,-9.23 2.36,-2.37 5.63,-3.83 9.24,-3.83 3.6,0 6.87,1.46 9.23,3.82 2.36,2.36 3.82,5.63 3.82,9.23zm-6.74 6.32c1.62,-1.62 2.61,-3.85 2.61,-6.32 0,-2.47 -1,-4.7 -2.61,-6.32 -1.62,-1.62 -3.85,-2.61 -6.32,-2.61 -2.47,0 -4.7,1 -6.32,2.61 -1.61,1.61 -2.61,3.85 -2.61,6.32 0,2.43 0.96,4.62 2.52,6.23l0.1 0.09c1.62,1.62 3.85,2.62 6.32,2.62 2.42,0 4.62,-0.96 6.23,-2.52l0.09 -0.1z"/>
   <path fill="#032CAE" fill-rule="nonzero" d="M143.34 46.78c0,4.93 -2,9.4 -5.23,12.63l-0.12 0.11c-3.22,3.17 -7.64,5.12 -12.51,5.12 -4.93,0 -9.4,-2 -12.63,-5.23l-0.11 -0.12c-3.17,-3.22 -5.12,-7.64 -5.12,-12.51 0,-4.93 2,-9.4 5.23,-12.63l0.12 -0.11c3.22,-3.17 7.64,-5.12 12.51,-5.12 4.93,0 9.4,2 12.63,5.23 3.23,3.23 5.23,7.7 5.23,12.63zm-8.15 9.71c2.49,-2.49 4.02,-5.92 4.02,-9.71 0,-3.79 -1.54,-7.23 -4.02,-9.71 -2.49,-2.49 -5.92,-4.02 -9.71,-4.02 -3.75,0 -7.15,1.5 -9.62,3.92l-0.09 0.1c-2.49,2.49 -4.02,5.92 -4.02,9.71 0,3.75 1.5,7.14 3.92,9.62l0.1 0.09c2.49,2.49 5.92,4.02 9.71,4.02 3.75,0 7.14,-1.5 9.62,-3.92l0.09 -0.1z"/>
   <path fill="#032CAE" fill-rule="nonzero" d="M73.02 26.5c0,2.51 -1.02,4.79 -2.68,6.45l-0.01 0.01c-1.65,1.65 -3.93,2.67 -6.44,2.67 -2.52,0 -4.8,-1.02 -6.46,-2.67 -1.65,-1.65 -2.68,-3.94 -2.68,-6.46 0,-2.51 1.02,-4.8 2.67,-6.45 1.65,-1.66 3.94,-2.68 6.46,-2.68 2.51,0 4.8,1.02 6.45,2.67 1.66,1.66 2.68,3.94 2.68,6.46zm-5.59 3.54c0.9,-0.9 1.46,-2.15 1.46,-3.54 0,-1.39 -0.56,-2.64 -1.46,-3.54 -0.9,-0.9 -2.16,-1.46 -3.54,-1.46 -1.38,0 -2.64,0.56 -3.54,1.47 -0.9,0.9 -1.47,2.15 -1.47,3.54 0,1.38 0.56,2.63 1.47,3.54 0.9,0.9 2.16,1.47 3.54,1.47 1.39,0 2.64,-0.56 3.54,-1.46z"/>
   <path fill="#032CAE" fill-rule="nonzero" d="M166.23 13.06c0,2.52 -1.02,4.8 -2.67,6.46l-0.13 0.12c-1.64,1.58 -3.88,2.56 -6.33,2.56 -2.51,0 -4.8,-1.02 -6.45,-2.67 -1.66,-1.65 -2.68,-3.94 -2.68,-6.46 0,-2.51 1.02,-4.8 2.67,-6.45 1.65,-1.66 3.94,-2.68 6.46,-2.68 2.52,0 4.81,1.02 6.46,2.67l0.12 0.13c1.58,1.64 2.56,3.88 2.56,6.33zm-5.59 3.54c0.9,-0.9 1.47,-2.16 1.47,-3.54 0,-1.34 -0.52,-2.56 -1.38,-3.46l-0.09 -0.08c-0.9,-0.9 -2.16,-1.47 -3.54,-1.47 -1.38,0 -2.64,0.56 -3.54,1.47 -0.9,0.9 -1.47,2.15 -1.47,3.54 0,1.38 0.56,2.63 1.47,3.54 0.9,0.9 2.15,1.47 3.54,1.47 1.34,0 2.56,-0.52 3.46,-1.38l0.08 -0.09z"/>
   <path fill="#032CAE" fill-rule="nonzero" d="M22.19 91.49c0,2.51 -1.02,4.8 -2.67,6.45 -1.65,1.66 -3.94,2.68 -6.46,2.68 -2.52,0 -4.81,-1.02 -6.46,-2.67l-0.12 -0.13c-1.58,-1.64 -2.56,-3.88 -2.56,-6.33 0,-2.51 1.02,-4.8 2.67,-6.45 1.65,-1.66 3.94,-2.68 6.46,-2.68 2.52,0 4.81,1.02 6.46,2.67l0.12 0.13c1.58,1.64 2.56,3.88 2.56,6.33zm-5.59 3.54c0.9,-0.9 1.46,-2.16 1.46,-3.54 0,-1.34 -0.52,-2.56 -1.38,-3.46l-0.09 -0.08c-0.9,-0.9 -2.16,-1.47 -3.54,-1.47 -1.38,0 -2.64,0.56 -3.54,1.47 -0.9,0.9 -1.47,2.15 -1.47,3.54 0,1.34 0.52,2.56 1.38,3.46l0.09 0.08c0.9,0.9 2.16,1.47 3.54,1.47 1.38,0 2.64,-0.56 3.54,-1.46z"/>
   <path fill="#032CAE" fill-rule="nonzero" d="M53.71 149.52c0,5.13 -2.08,9.77 -5.44,13.13 -3.36,3.36 -8,5.44 -13.13,5.44 -5.13,0 -9.77,-2.08 -13.13,-5.44 -3.36,-3.36 -5.44,-8 -5.44,-13.13 0,-5.13 2.08,-9.77 5.44,-13.13 3.36,-3.36 8,-5.44 13.13,-5.44 5.12,0 9.77,2.08 13.13,5.44l0.11 0.12c3.29,3.35 5.33,7.95 5.33,13.01zm-8.36 10.21c2.61,-2.61 4.23,-6.23 4.23,-10.21 0,-3.94 -1.58,-7.52 -4.13,-10.12l-0.1 -0.09c-2.61,-2.61 -6.23,-4.23 -10.21,-4.23 -3.99,0 -7.6,1.62 -10.21,4.23 -2.61,2.61 -4.23,6.23 -4.23,10.21 0,3.99 1.62,7.6 4.23,10.21 2.61,2.61 6.23,4.23 10.21,4.23 3.99,0 7.6,-1.62 10.21,-4.23z"/>
   <path fill="#032CAE" fill-rule="nonzero" d="M136.14 133.01c0,4.24 -1.72,8.07 -4.49,10.85 -2.78,2.78 -6.61,4.5 -10.85,4.5 -4.24,0 -8.07,-1.72 -10.85,-4.5 -2.77,-2.77 -4.49,-6.61 -4.49,-10.85 0,-4.23 1.72,-8.06 4.49,-10.84 2.78,-2.78 6.62,-4.5 10.85,-4.5 4.24,0 8.07,1.72 10.85,4.49 2.78,2.78 4.5,6.61 4.5,10.85zm-7.41 7.93c2.03,-2.03 3.28,-4.83 3.28,-7.93 0,-3.09 -1.26,-5.9 -3.29,-7.93 -2.03,-2.03 -4.83,-3.28 -7.93,-3.28 -3.1,0 -5.91,1.26 -7.93,3.28 -2.03,2.03 -3.28,4.83 -3.28,7.93 0,3.1 1.26,5.9 3.28,7.93 2.03,2.03 4.84,3.29 7.93,3.29 3.1,0 5.9,-1.26 7.93,-3.29z"/>
   <path fill="#032CAE" fill-rule="nonzero" d="M162.73 96.74c0,3.13 -1.27,5.98 -3.33,8.03 -2.07,2.06 -4.91,3.34 -8.04,3.34 -3.13,0 -5.98,-1.27 -8.03,-3.33 -2.06,-2.07 -3.34,-4.91 -3.34,-8.04 0,-3.14 1.27,-5.99 3.33,-8.04l0.12 -0.11c2.05,-1.99 4.84,-3.22 7.92,-3.22 3.13,0 5.98,1.27 8.03,3.33 2.06,2.06 3.34,4.9 3.34,8.04zm-6.25 5.13c1.31,-1.31 2.12,-3.12 2.12,-5.13 0,-2 -0.81,-3.82 -2.12,-5.12 -1.31,-1.31 -3.12,-2.12 -5.12,-2.12 -1.96,0 -3.74,0.77 -5.04,2.03l-0.09 0.09c-1.31,1.31 -2.12,3.12 -2.12,5.12 0,2 0.81,3.82 2.12,5.13 1.31,1.31 3.12,2.12 5.13,2.12 2.01,0 3.82,-0.81 5.13,-2.12z"/>
   <path fill="#032CAE" fill-rule="nonzero" d="M34.3 47.56c-1,0.55 -2.25,0.18 -2.8,-0.81 -0.55,-1 -0.18,-2.25 0.81,-2.8l25.69 -14.15c1,-0.55 2.25,-0.18 2.8,0.81 0.55,1 0.18,2.25 -0.81,2.8l-25.69 14.15z"/>
   <path fill="#032CAE" fill-rule="nonzero" d="M65.71 33.15c-0.38,-1.07 0.17,-2.25 1.24,-2.63 1.07,-0.38 2.25,0.17 2.63,1.24l5.72 15.94c0.38,1.07 -0.17,2.25 -1.24,2.63 -1.07,0.38 -2.25,-0.17 -2.63,-1.24l-5.72 -15.94z"/>
   <path fill="#032CAE" fill-rule="nonzero" d="M103.66 64.43c-0.88,0.71 -2.18,0.56 -2.89,-0.32 -0.71,-0.88 -0.56,-2.18 0.32,-2.89l8.75 -7.01c0.88,-0.71 2.18,-0.56 2.89,0.32 0.71,0.88 0.56,2.18 -0.32,2.89l-8.75 7.01z"/>
   <path fill="#032CAE" fill-rule="nonzero" d="M131.11 61.77c-0.57,-0.98 -0.25,-2.24 0.73,-2.81 0.98,-0.57 2.24,-0.25 2.81,0.73l15.69 26.7c0.57,0.98 0.25,2.24 -0.73,2.81 -0.98,0.57 -2.24,0.25 -2.81,-0.73l-15.69 -26.7z"/>
   <path fill="#032CAE" fill-rule="nonzero" d="M23.77 40.33c0.32,1.09 -0.3,2.23 -1.39,2.55 -1.09,0.32 -2.23,-0.3 -2.55,-1.39l-5.16 -17.46c-0.32,-1.09 0.3,-2.23 1.39,-2.55 1.09,-0.32 2.23,0.3 2.55,1.39l5.16 17.46z"/>
   <path fill="#032CAE" fill-rule="nonzero" d="M20.17 91.97c-1.13,0.02 -2.07,-0.88 -2.1,-2.02 -0.02,-1.13 0.88,-2.07 2.02,-2.1l13.86 -0.27c1.13,-0.02 2.07,0.88 2.1,2.02 0.02,1.13 -0.88,2.07 -2.02,2.1l-13.86 0.27z"/>
   <path fill="#032CAE" fill-rule="nonzero" d="M137.06 36.16c-0.81,0.79 -2.12,0.77 -2.91,-0.04 -0.79,-0.81 -0.77,-2.12 0.04,-2.91l16.78 -16.37c0.81,-0.79 2.12,-0.77 2.91,0.04 0.79,0.81 0.77,2.12 -0.04,2.91l-16.78 16.37z"/>
   <path fill="#032CAE" fill-rule="nonzero" d="M142.9 105.94c0.77,-0.84 2.07,-0.89 2.91,-0.12 0.84,0.77 0.89,2.07 0.12,2.91l-13.47 14.65c-0.77,0.84 -2.07,0.89 -2.91,0.12 -0.84,-0.77 -0.89,-2.07 -0.12,-2.91l13.47 -14.65z"/>
   <path fill="#032CAE" fill-rule="nonzero" d="M108.26 136.37c1.12,-0.22 2.2,0.51 2.42,1.63 0.22,1.12 -0.51,2.2 -1.63,2.42l-57.01 11.13c-1.12,0.22 -2.2,-0.51 -2.42,-1.63 -0.22,-1.12 0.51,-2.2 1.63,-2.42l57.01 -11.13z"/>
   <path fill="#032CAE" fill-rule="nonzero" d="M99.96 89.66c-0,11.86 -3.75,22.62 -9.79,30.43 -6.17,7.96 -14.73,12.88 -24.23,12.88 -9.5,-0 -18.06,-4.93 -24.22,-12.89 -6.05,-7.81 -9.78,-18.57 -9.78,-30.43 0,-11.86 3.75,-22.62 9.8,-30.43 6.17,-7.96 14.73,-12.88 24.22,-12.88 9.5,0 18.06,4.93 24.22,12.89 6.05,7.81 9.78,18.57 9.78,30.43zm-13.05 27.91c5.52,-7.12 8.94,-16.99 8.94,-27.91 0,-10.92 -3.41,-20.79 -8.93,-27.92 -5.4,-6.97 -12.82,-11.29 -20.97,-11.29 -8.15,-0 -15.57,4.31 -20.97,11.28 -5.52,7.12 -8.94,16.99 -8.94,27.91 0,10.92 3.41,20.79 8.93,27.92 5.4,6.97 12.82,11.29 20.97,11.29 8.15,0 15.57,-4.31 20.97,-11.28z"/>
   <path fill="#032CAE" fill-rule="nonzero" d="M65.96 50.45c-1.13,0 -2.06,-0.92 -2.06,-2.06 0,-1.13 0.92,-2.06 2.06,-2.06l12.26 0c9.5,0 18.06,4.93 24.22,12.89 6.05,7.81 9.78,18.57 9.78,30.43 -0,11.86 -3.75,22.62 -9.79,30.43 -6.16,7.96 -14.73,12.88 -24.23,12.88l-12.26 -0c-1.13,0 -2.06,-0.92 -2.06,-2.06 0,-1.13 0.92,-2.06 2.06,-2.06l12.26 0c8.15,0 15.57,-4.31 20.97,-11.28 5.52,-7.12 8.94,-16.99 8.94,-27.91 0,-10.92 -3.41,-20.79 -8.93,-27.92 -5.4,-6.97 -12.82,-11.29 -20.97,-11.29l-12.26 -0z"/>
   <path fill="#032CAE" fill-rule="nonzero" d="M90.95 66.02c-1.13,0 -2.06,-0.92 -2.06,-2.06 0,-1.13 0.92,-2.06 2.06,-2.06l11.8 0c1.13,0 2.06,0.92 2.06,2.06 0,1.13 -0.92,2.06 -2.06,2.06l-11.8 -0z"/>
   <path fill="#032CAE" fill-rule="nonzero" d="M108.47 82.7c1.13,0 2.06,0.92 2.06,2.06 0,1.13 -0.92,2.06 -2.06,2.06l-10.56 -0c-1.13,0 -2.06,-0.92 -2.06,-2.06 0,-1.13 0.92,-2.06 2.06,-2.06l10.56 0z"/>
   <path fill="#032CAE" fill-rule="nonzero" d="M108.47 92.19c1.13,0 2.06,0.92 2.06,2.06 0,1.13 -0.92,2.06 -2.06,2.06l-10.56 -0c-1.13,0 -2.06,-0.92 -2.06,-2.06 0,-1.13 0.92,-2.06 2.06,-2.06l10.56 0z"/>
   <path fill="#032CAE" fill-rule="nonzero" d="M92.34 114.97c-1.13,0 -2.06,-0.92 -2.06,-2.06 0,-1.13 0.92,-2.06 2.06,-2.06l12.01 0c1.13,0 2.06,0.92 2.06,2.06 0,1.13 -0.92,2.06 -2.06,2.06l-12.01 -0z"/>
  </g>
  <path fill="#032CAE" d="M83.5 97.49c-1.3,-0.1 -2.34,-1.23 -2.34,-2.51 0,-7 0,-7 0,-7 0,-10.3 -7.96,-18.11 -16.88,-17.46 -2.35,0.16 -4.62,0.91 -6.61,2.19 -0.87,0.55 -1.91,0.23 -2.36,-0.73 -0.42,-0.96 -0.1,-2.18 0.75,-2.77 6.99,-4.67 16.3,-3.99 22.95,2.42 4.37,4.14 6.91,10.16 6.88,16.49 0,7.17 0,7.17 0,7.17 0,1.32 -1.08,2.3 -2.4,2.2l0 0zm-34.9 -2.76c-0.87,-0.07 -1.56,-0.97 -1.56,-2.02 0,-5.72 0,-5.72 0,-5.72 -0.02,-4.02 1.02,-7.98 3.02,-11.33 0.53,-0.89 1.57,-1.13 2.3,-0.52 0.72,0.62 0.88,1.85 0.33,2.74 -1.64,2.71 -2.52,5.91 -2.5,9.2 0,5.84 0,5.84 0,5.84 0,1.07 -0.71,1.89 -1.59,1.81l0 0zm28.02 11.34c-1.21,-0.16 -2.17,-1.31 -2.17,-2.55 0,-15.73 0,-15.73 0,-15.73 0,-1.58 -0.32,-3.14 -0.95,-4.59 -0.55,-1.1 -0.12,-2.44 0.93,-3.03 1.07,-0.57 2.41,-0.14 2.95,0.98 0.02,0.05 0.02,0.08 0.05,0.13 0.94,2.07 1.42,4.34 1.42,6.63 0,16.12 0,16.12 0,16.12 0,1.27 -1,2.19 -2.23,2.03l0 0zm-23.13 -2.98c-0.92,-0.12 -1.66,-1.12 -1.66,-2.2 0,-13.76 0,-13.76 0,-13.76 0,-7.61 5.33,-14.07 12.44,-14.48 1.93,-0.14 3.89,0.23 5.72,1.06 1.02,0.47 1.45,1.77 0.94,2.9 -0.49,1.07 -1.66,1.56 -2.65,1.11 -1.29,-0.6 -2.65,-0.88 -4,-0.84 -5.15,0.19 -9.07,4.8 -9.09,10.35 0,14.05 0,14.05 0,14.05 0,1.11 -0.76,1.93 -1.69,1.81l0 0zm10.78 5.62c-1.05,-0.16 -1.89,-1.23 -1.89,-2.38 0,-18.89 0,-18.89 0,-18.89 0,-1.16 0.84,-2.08 1.89,-2.06 1.06,0.02 1.93,0.99 1.93,2.17 0,19.32 0,19.32 0,19.32 0,1.18 -0.87,2 -1.93,1.84l0 0zm5.96 -1.27c-1.12,-0.16 -2.02,-1.25 -2.02,-2.45 0,-17.38 0,-17.38 0,-17.38 0,-2.39 -1.8,-4.36 -3.94,-4.37 -2.09,-0.01 -3.76,1.85 -3.76,4.14 0,2.07 0,2.07 0,2.07 0,1.14 -0.81,2.05 -1.81,1.99 -0.98,-0.05 -1.77,-1.02 -1.77,-2.14 0,-2.02 0,-2.02 0,-2.02 0,-4.5 3.19,-8.18 7.34,-8.26 4.36,-0.09 8.03,3.8 8.03,8.72 0,17.79 0,17.79 0,17.79 0,1.23 -0.93,2.08 -2.07,1.92l0 0zm-11.52 -1.63c-0.98,-0.14 -1.77,-1.15 -1.77,-2.27 0,-6.09 0,-6.09 0,-6.09 0,-1.12 0.79,-1.98 1.77,-1.91 0.99,0.08 1.81,1.09 1.81,2.23 0,6.23 0,6.23 0,6.23 0,1.14 -0.81,1.95 -1.81,1.81l0 0z"/>
 </g>
</svg>
