<?xml version="1.0" encoding="UTF-8"?>
<!DOCTYPE svg PUBLIC "-//W3C//DTD SVG 1.0//EN" "http://www.w3.org/TR/2001/REC-SVG-20010904/DTD/svg10.dtd">
<!-- Creator: CorelDRAW -->
<svg xmlns="http://www.w3.org/2000/svg" xml:space="preserve" width="10.7861mm" height="10.7043mm" version="1.0" shape-rendering="geometricPrecision" text-rendering="geometricPrecision" image-rendering="optimizeQuality" fill-rule="evenodd" clip-rule="evenodd"
viewBox="0 0 1080.54 1072.35"
 xmlns:xlink="http://www.w3.org/1999/xlink"
 xmlns:xodm="http://www.corel.com/coreldraw/odm/2003">
 <g id="Layer_x0020_1">
  <metadata id="CorelCorpID_0Corel-Layer"/>
  <g id="_2592984623792">
   <path fill="white" fill-rule="nonzero" d="M957.3 375.34l-168.99 0c-36.48,108.79 -124.29,206.02 -227,206.02l-101.21 0c-102.69,0 -197.91,-97.22 -234.39,-206.02l-102.46 0c-11.69,0 -21.26,9.2 -21.26,20.45l0 588.81c0,11.26 9.57,20.46 21.26,20.46l834.05 0c11.69,0 21.25,-9.2 21.25,-20.46l0 -588.81c0,-11.25 -9.56,-20.45 -21.25,-20.45z"/>
   <polygon fill="#7F93FA" fill-rule="nonzero" points="565.29,867.83 830.61,867.83 830.61,541.45 666.5,734.52 565.29,623.25 "/>
   <polygon fill="#BDCAFC" fill-rule="nonzero" points="298.76,867.83 565.29,867.83 565.29,623.25 429.38,816.32 298.76,623.25 "/>
   <polygon fill="#7F93FA" fill-rule="nonzero" points="298.76,867.83 221.32,867.83 221.32,766.08 298.76,625.45 "/>
   <path fill="#7F93FA" fill-rule="nonzero" d="M1067.11 1031.85l0 -85.75 -410.03 0 -10.31 26.43 -220.54 0 -9.03 -26.43 -403.76 0 0 85.75c0,0 37.84,28.26 65.62,28.26l922.42 0c27.8,0 65.64,-28.26 65.64,-28.26z"/>
   <path fill="#7F93FA" fill-rule="nonzero" d="M462.16 534.37l78.58 0c113.1,0 204.78,-116.62 204.78,-260.47 0,-143.86 -91.67,-260.47 -204.78,-260.47l-78.58 0 0 520.93z"/>
   <path fill="white" fill-rule="nonzero" d="M666.93 273.9c0,143.85 -91.68,260.47 -204.78,260.47 -113.09,0 -204.78,-116.62 -204.78,-260.47 0,-143.86 91.68,-260.47 204.78,-260.47 113.09,0 204.78,116.61 204.78,260.47z"/>
   <path fill="#032CAE" fill-rule="nonzero" d="M565.29 729.61l18.4 0c0,-10.14 -8.26,-18.41 -18.4,-18.41 -10.14,0 -18.4,8.27 -18.4,18.41 0,10.14 8.26,18.4 18.4,18.4 10.14,0 18.4,-8.26 18.4,-18.4l-18.4 0z"/>
   <path fill="#032CAE" fill-rule="nonzero" d="M565.29 853.31l18.4 0c0,-10.13 -8.26,-18.4 -18.4,-18.4 -10.14,0 -18.4,8.27 -18.4,18.4 0,10.14 8.26,18.41 18.4,18.41 10.14,0 18.4,-8.27 18.4,-18.41l-18.4 0z"/>
   <path fill="#032CAE" fill-rule="nonzero" d="M810.16 674.49l18.4 0c0,-10.14 -8.26,-18.41 -18.4,-18.41 -10.14,0 -18.4,8.27 -18.4,18.41 0,10.13 8.26,18.4 18.4,18.4 10.14,0 18.4,-8.27 18.4,-18.4l-18.4 0z"/>
   <path fill="#032CAE" fill-rule="nonzero" d="M810.16 850.44l18.4 0c0,-10.14 -8.26,-18.4 -18.4,-18.4 -10.14,0 -18.4,8.26 -18.4,18.4 0,10.14 8.26,18.4 18.4,18.4 10.14,0 18.4,-8.26 18.4,-18.4l-18.4 0z"/>
   <path fill="#032CAE" fill-rule="nonzero" d="M298.76 740.33l18.4 0c0,-10.14 -8.27,-18.4 -18.4,-18.4 -10.14,0 -18.41,8.26 -18.41,18.4 0,10.14 8.27,18.4 18.41,18.4 10.13,0 18.4,-8.26 18.4,-18.4l-18.4 0z"/>
   <path fill="#032CAE" fill-rule="nonzero" d="M298.76 853.31l18.4 0c0,-10.13 -8.27,-18.4 -18.4,-18.4 -10.14,0 -18.41,8.27 -18.41,18.4 0,10.14 8.27,18.41 18.41,18.41 10.13,0 18.4,-8.27 18.4,-18.41l-18.4 0z"/>
   <g>
    <path fill="#032CAE" fill-rule="nonzero" d="M892.13 459.02c7.27,-1.35 14.29,3.44 15.64,10.71 1.35,7.27 -3.44,14.29 -10.71,15.64l-107.51 20.46c-7.27,1.35 -14.29,-3.44 -15.64,-10.71 -1.35,-7.27 3.44,-14.29 10.71,-15.64l107.51 -20.46z"/>
    <path fill="#032CAE" fill-rule="nonzero" d="M232.76 752.61c-3.85,6.31 -12.11,8.3 -18.42,4.46 -6.31,-3.85 -8.3,-12.11 -4.46,-18.42l76.83 -125.93c3.85,-6.31 12.11,-8.3 18.42,-4.46 1.79,1.09 3.24,2.54 4.3,4.2l116.86 181.15 128.04 -182.32c4.26,-6.05 12.63,-7.51 18.68,-3.26 1.11,0.78 2.06,1.69 2.86,2.71l90.7 103.53 218 -244.53c4.93,-5.53 13.42,-6.03 18.95,-1.1 3.29,2.93 4.79,7.1 4.45,11.18l-9.16 104.78c-0.63,7.38 -7.15,12.86 -14.54,12.23 -7.38,-0.63 -12.86,-7.15 -12.23,-14.54l5.64 -64.49 -201.15 225.63 -1.21 1.15c-5.56,4.87 -14.03,4.3 -18.89,-1.26l-89.96 -102.67 -129.68 184.66c-0.97,1.38 -2.22,2.59 -3.73,3.57 -6.22,4 -14.53,2.18 -18.52,-4.04l-116.08 -179.94 -65.7 107.69z"/>
    <path fill="#032CAE" fill-rule="nonzero" d="M551.86 799.09c0,17.68 26.87,17.68 26.87,0l0 -7.63c0,-17.68 -26.87,-17.68 -26.87,0l0 7.63z"/>
    <path fill="#032CAE" fill-rule="nonzero" d="M796.73 740.77c0,17.68 26.87,17.68 26.87,0l0 -7.63c0,-17.68 -26.87,-17.68 -26.87,0l0 7.63z"/>
    <path fill="#032CAE" fill-rule="nonzero" d="M285.33 804.46c0,17.68 26.87,17.68 26.87,0l0 -7.63c0,-17.68 -26.87,-17.68 -26.87,0l0 7.63z"/>
    <path fill="#032CAE" fill-rule="nonzero" d="M685.68 273.9c0,75 -24.02,143.08 -62.84,192.47 -39.52,50.3 -94.42,81.43 -155.28,81.43 -60.86,0 -115.76,-31.13 -155.28,-81.43 -38.82,-49.4 -62.84,-117.47 -62.84,-192.47 0,-75 24.02,-143.09 62.83,-192.47 39.53,-50.3 94.43,-81.43 155.29,-81.43 60.86,0 115.76,31.13 155.29,81.43 38.81,49.39 62.83,117.47 62.83,192.47zm-83.94 175.88c35.25,-44.86 57.07,-107.04 57.07,-175.88 0,-68.83 -21.82,-131.03 -57.06,-175.88 -34.54,-43.95 -82.01,-71.15 -134.19,-71.15 -52.18,0 -99.65,27.2 -134.19,71.15 -35.24,44.85 -57.06,107.05 -57.06,175.88 0,68.84 21.82,131.02 57.07,175.88 34.53,43.95 82.01,71.15 134.18,71.15 52.17,0 99.65,-27.2 134.18,-71.15z"/>
    <path fill="#032CAE" fill-rule="nonzero" d="M467.56 26.87c-7.41,0 -13.43,-6.02 -13.43,-13.43 0,-7.41 6.02,-13.43 13.43,-13.43l78.55 0c60.86,0 115.76,31.13 155.28,81.43 38.81,49.39 62.83,117.47 62.83,192.47 0,75 -24.02,143.09 -62.83,192.47 -39.52,50.3 -94.42,81.43 -155.28,81.43l-78.55 0c-7.41,0 -13.43,-6.02 -13.43,-13.43 0,-7.41 6.02,-13.43 13.43,-13.43l78.55 0c52.17,0 99.65,-27.2 134.18,-71.15 35.24,-44.85 57.06,-107.04 57.06,-175.88 0,-68.83 -21.82,-131.03 -57.06,-175.88 -34.53,-43.95 -82.01,-71.15 -134.18,-71.15l-78.55 0z"/>
    <path fill="#032CAE" fill-rule="nonzero" d="M627.63 125.11c-7.41,0 -13.43,-6.02 -13.43,-13.43 0,-7.41 6.02,-13.43 13.43,-13.43l75.58 0c7.41,0 13.43,6.02 13.43,13.43 0,7.41 -6.02,13.43 -13.43,13.43l-75.58 0z"/>
    <path fill="#032CAE" fill-rule="nonzero" d="M739.89 229.49c7.41,0 13.43,6.02 13.43,13.43 0,7.41 -6.02,13.43 -13.43,13.43l-67.65 0c-7.41,0 -13.43,-6.02 -13.43,-13.43 0,-7.41 6.02,-13.43 13.43,-13.43l67.65 0z"/>
    <path fill="#032CAE" fill-rule="nonzero" d="M747.36 303.61c7.41,0 13.43,6.02 13.43,13.43 0,7.41 -6.02,13.43 -13.43,13.43l-67.65 0c-7.41,0 -13.43,-6.02 -13.43,-13.43 0,-7.41 6.02,-13.43 13.43,-13.43l67.65 0z"/>
    <path fill="#032CAE" fill-rule="nonzero" d="M636.62 434.16c-7.41,0 -13.43,-6.02 -13.43,-13.43 0,-7.41 6.02,-13.43 13.43,-13.43l76.92 0c7.41,0 13.43,6.02 13.43,13.43 0,7.41 -6.02,13.43 -13.43,13.43l-76.92 0z"/>
    <path fill="#032CAE" fill-rule="nonzero" d="M797.27 389.96c-7.41,0 -13.43,-6.02 -13.43,-13.43 0,-7.41 6.02,-13.43 13.43,-13.43l151.77 0c48.43,0 46.74,46.78 46.74,46.92l0 530.13c0,7.41 -6.02,13.43 -13.43,13.43 -7.41,0 -13.43,-6.02 -13.43,-13.43l0 -530.13c0,-0.05 0.71,-20.06 -19.88,-20.06l-151.77 0z"/>
    <path fill="#032CAE" fill-rule="nonzero" d="M111.61 940.14c0,7.41 -6.02,13.43 -13.43,13.43 -7.41,0 -13.43,-6.02 -13.43,-13.43l0.07 -528.4c0.21,-10.62 4,-48.66 47.46,-48.66l71.85 0c7.41,0 13.43,6.02 13.43,13.43 0,7.41 -6.02,13.43 -13.43,13.43l-71.85 0c-20.24,0 -20.82,18.42 -20.78,21.47l0.11 1.73 0 526.98z"/>
    <path fill="#032CAE" fill-rule="nonzero" d="M1053.68 1023.68l0 -65.35 -387.46 0 -6.95 17.83c-2.05,5.31 -7.12,8.57 -12.49,8.57l-220.54 0.04c-6.17,0 -11.37,-4.17 -12.94,-9.84l-5.67 -16.6 -380.74 0 0 65.35c10.69,7.18 34.6,21.8 52.18,21.8l922.42 0c17.59,0 41.51,-14.62 52.2,-21.8zm26.87 -78.78l0 85.75c-0.03,4.15 -1.95,8.23 -5.56,10.86 -0.11,0.08 -41.23,30.84 -73.51,30.84l-922.42 0c-30.24,0 -68.25,-27.01 -73,-30.47 -3.65,-2.4 -6.05,-6.53 -6.05,-11.22l0 -85.75c0,-7.41 6.02,-13.43 13.43,-13.43l403.76 0c5.59,0.02 10.81,3.54 12.7,9.13l5.91 17.31 201.82 0 6.58 -16.87c1.66,-5.53 6.79,-9.57 12.86,-9.57l410.03 0c7.41,0 13.43,6.02 13.43,13.43z"/>
   </g>
   <path fill="#032CAE" d="M575.89 327.41c-8.47,-0.67 -15.22,-7.97 -15.22,-16.34 0,-45.56 0,-45.56 0,-45.56 0,-67.08 -51.81,-117.87 -109.88,-113.63 -15.31,1.07 -30.04,5.91 -43.05,14.25 -5.65,3.58 -12.43,1.51 -15.34,-4.77 -2.74,-6.25 -0.65,-14.22 4.88,-18.03 45.5,-30.41 106.09,-25.98 149.41,15.73 28.47,26.96 44.97,66.15 44.79,107.36 0,46.7 0,46.7 0,46.7 0,8.59 -7.01,14.96 -15.6,14.3l0 0zm-227.16 -17.99c-5.64,-0.44 -10.16,-6.33 -10.16,-13.17 0,-37.26 0,-37.26 0,-37.26 -0.11,-26.18 6.67,-51.94 19.66,-73.74 3.46,-5.82 10.19,-7.34 14.97,-3.39 4.71,4.03 5.73,12.01 2.16,17.86 -10.7,17.63 -16.39,38.49 -16.28,59.87 0,38.02 0,38.02 0,38.02 0,6.98 -4.65,12.27 -10.35,11.81l0 0zm182.43 73.81c-7.85,-1.01 -14.15,-8.53 -14.15,-16.58 0,-102.41 0,-102.41 0,-102.41 0,-10.3 -2.11,-20.44 -6.2,-29.87 -3.57,-7.16 -0.81,-15.88 6.04,-19.7 6.94,-3.73 15.66,-0.9 19.23,6.36 0.16,0.35 0.16,0.52 0.33,0.87 6.13,13.46 9.24,28.23 9.24,43.18 0,104.91 0,104.91 0,104.91 0,8.26 -6.52,14.28 -14.5,13.24l0 0zm-150.55 -19.42c-6.01,-0.79 -10.82,-7.26 -10.82,-14.31 0,-89.59 0,-89.59 0,-89.59 0,-49.51 34.72,-91.58 81,-94.27 12.59,-0.88 25.32,1.51 37.22,6.88 6.61,3.04 9.46,11.5 6.13,18.88 -3.17,6.98 -10.8,10.18 -17.28,7.2 -8.36,-3.9 -17.22,-5.74 -26.07,-5.45 -33.5,1.26 -59.04,31.23 -59.17,67.39 0,91.48 0,91.48 0,91.48 0,7.2 -4.95,12.55 -11.02,11.77l0 0zm70.19 36.57c-6.84,-1.05 -12.3,-7.97 -12.3,-15.48 0,-122.97 0,-122.97 0,-122.97 0,-7.52 5.46,-13.51 12.3,-13.4 6.91,0.12 12.59,6.43 12.59,14.14 0,125.75 0,125.75 0,125.75 0,7.68 -5.68,13.04 -12.59,11.97l0 0zm38.78 -8.26c-7.32,-1.03 -13.16,-8.16 -13.16,-15.95 0,-113.11 0,-113.11 0,-113.11 0,-15.59 -11.69,-28.38 -25.62,-28.44 -13.57,-0.05 -24.48,12.07 -24.48,26.96 0,13.46 0,13.46 0,13.46 0,7.45 -5.29,13.31 -11.75,12.96 -6.4,-0.34 -11.53,-6.65 -11.53,-13.93 0,-13.17 0,-13.17 0,-13.17 0,-29.26 20.78,-53.25 47.77,-53.8 28.38,-0.58 52.26,24.7 52.26,56.74 0,115.78 0,115.78 0,115.78 0,7.97 -6.07,13.56 -13.48,12.5l0 0zm-75.01 -10.62c-6.4,-0.9 -11.53,-7.5 -11.53,-14.8 0,-39.66 0,-39.66 0,-39.66 0,-7.27 5.13,-12.91 11.53,-12.4 6.46,0.51 11.75,7.1 11.75,14.54 0,40.53 0,40.53 0,40.53 0,7.45 -5.29,12.71 -11.75,11.79l0 0z"/>
  </g>
 </g>
</svg>
