<?xml version="1.0" encoding="UTF-8"?>
<!DOCTYPE svg PUBLIC "-//W3C//DTD SVG 1.0//EN" "http://www.w3.org/TR/2001/REC-SVG-20010904/DTD/svg10.dtd">
<!-- Creator: CorelDRAW -->
<svg xmlns="http://www.w3.org/2000/svg" xml:space="preserve" width="10.85mm" height="10.945mm" version="1.0" shape-rendering="geometricPrecision" text-rendering="geometricPrecision" image-rendering="optimizeQuality" fill-rule="evenodd" clip-rule="evenodd"
viewBox="0 0 128.31 129.43"
 xmlns:xlink="http://www.w3.org/1999/xlink"
 xmlns:xodm="http://www.corel.com/coreldraw/odm/2003">
 <g id="Layer_x0020_1">
  <metadata id="CorelCorpID_0Corel-Layer"/>
  <g id="_2593985229120">
   <path fill="#7F93FA" fill-rule="nonzero" d="M43.71 24.28c0,0 -16.59,10.02 -42.12,16.67l0 49.91c0,0 12.97,24.33 42.12,37.14 0,0 0,0 0,-0l0 -103.72 -0 -0z"/>
   <path fill="white" fill-rule="nonzero" d="M43.71 24.28l0 103.72c29.16,-12.81 42.13,-37.14 42.13,-37.14l0 -49.91c-24.36,-6.5 -42.09,-16.65 -42.13,-16.67z"/>
   <polygon fill="#BDCAFC" fill-rule="nonzero" points="126.72,82.92 71.75,82.92 71.75,68.27 126.72,68.27 "/>
   <polygon fill="white" fill-rule="nonzero" points="126.72,97.57 71.75,97.57 71.75,82.92 126.72,82.92 "/>
   <polygon fill="#BDCAFC" fill-rule="nonzero" points="118.74,111.79 63.77,111.79 63.77,97.14 118.74,97.14 "/>
   <polygon fill="#7F93FA" fill-rule="nonzero" points="125.66,127.12 70.69,127.12 70.69,112.47 125.66,112.47 "/>
   <path fill="#BDCAFC" fill-rule="nonzero" d="M67.28 74.25c0,12.74 -10.33,23.06 -23.06,23.06 -12.74,0 -23.06,-10.33 -23.06,-23.06 0,-12.74 10.33,-23.06 23.06,-23.06 12.74,0 23.06,10.33 23.06,23.06z"/>
   <path fill="#7F93FA" fill-rule="nonzero" d="M92.92 63.81l9.25 0c13.32,0 24.11,-13.97 24.11,-31.21 0,-17.24 -10.8,-31.21 -24.11,-31.21l-9.25 0 0 62.42z"/>
   <path fill="white" fill-rule="nonzero" d="M117.03 32.6c0,17.24 -10.8,31.21 -24.11,31.21 -13.32,0 -24.11,-13.97 -24.11,-31.21 0,-17.24 10.8,-31.21 24.11,-31.21 13.32,0 24.11,13.97 24.11,31.21z"/>
   <path fill="#032CAE" fill-rule="nonzero" d="M118.95 32.6c0,8.93 -2.86,17.03 -7.48,22.91 -4.7,5.99 -11.24,9.69 -18.48,9.69 -7.24,0 -13.78,-3.7 -18.48,-9.69 -4.62,-5.88 -7.48,-13.98 -7.48,-22.91 0,-8.93 2.86,-17.03 7.48,-22.91 4.7,-5.99 11.24,-9.69 18.48,-9.69 7.24,0 13.78,3.7 18.48,9.69 4.62,5.88 7.48,13.98 7.48,22.91zm-9.97 20.95c4.2,-5.34 6.8,-12.75 6.8,-20.95 0,-8.2 -2.6,-15.61 -6.8,-20.95 -4.12,-5.24 -9.77,-8.48 -15.99,-8.48 -6.22,0 -11.87,3.24 -15.99,8.48 -4.2,5.34 -6.8,12.75 -6.8,20.95 0,8.2 2.6,15.61 6.8,20.95 4.12,5.24 9.77,8.48 15.99,8.48 6.22,0 11.87,-3.24 15.99,-8.48z"/>
   <path fill="#032CAE" fill-rule="nonzero" d="M93 3.17c-0.88,0 -1.59,-0.71 -1.59,-1.59 0,-0.88 0.71,-1.59 1.59,-1.59l9.35 0c7.24,0 13.78,3.7 18.48,9.69 4.62,5.88 7.48,13.98 7.48,22.91 0,8.93 -2.86,17.03 -7.48,22.91 -4.7,5.99 -11.24,9.69 -18.48,9.69l-9.35 0c-0.88,0 -1.59,-0.71 -1.59,-1.59 0,-0.88 0.71,-1.59 1.59,-1.59l9.35 0c6.22,0 11.88,-3.24 15.99,-8.48 4.2,-5.34 6.8,-12.75 6.8,-20.95 0,-8.2 -2.6,-15.61 -6.8,-20.95 -4.12,-5.24 -9.77,-8.48 -15.99,-8.48l-9.35 0z"/>
   <path fill="#032CAE" fill-rule="nonzero" d="M112.06 14.87c-0.88,0 -1.59,-0.71 -1.59,-1.59 0,-0.88 0.71,-1.59 1.59,-1.59l9 0c0.88,0 1.59,0.71 1.59,1.59 0,0.88 -0.71,1.59 -1.59,1.59l-9 0z"/>
   <path fill="#032CAE" fill-rule="nonzero" d="M125.42 27.33c0.88,0 1.59,0.71 1.59,1.59 0,0.88 -0.71,1.59 -1.59,1.59l-8.06 0c-0.88,0 -1.59,-0.71 -1.59,-1.59 0,-0.88 0.71,-1.59 1.59,-1.59l8.06 0z"/>
   <path fill="#032CAE" fill-rule="nonzero" d="M113.13 51.67c-0.88,0 -1.59,-0.71 -1.59,-1.59 0,-0.88 0.71,-1.59 1.59,-1.59l9.16 0c0.88,0 1.59,0.71 1.59,1.59 0,0.88 -0.71,1.59 -1.59,1.59l-9.16 0z"/>
   <path fill="#032CAE" fill-rule="nonzero" d="M126.08 34.57c0.88,0 1.59,0.71 1.59,1.59 0,0.88 -0.71,1.59 -1.59,1.59l-8.06 0c-0.88,0 -1.59,-0.71 -1.59,-1.59 0,-0.88 0.71,-1.59 1.59,-1.59l8.06 0z"/>
   <path fill="#032CAE" fill-rule="nonzero" d="M65.35 110.63l51.8 0 0 -11.48 -51.8 0 0 11.48zm53.38 3.17l-54.97 0c-0.88,0 -1.59,-0.71 -1.59,-1.59l0 -14.65c0,-0.88 0.71,-1.59 1.59,-1.59l54.97 0c0.88,0 1.59,0.71 1.59,1.59l0 14.65c0,0.88 -0.71,1.59 -1.59,1.59z"/>
   <path fill="#032CAE" fill-rule="nonzero" d="M107.96 97.57c0,-0.88 0.71,-1.59 1.59,-1.59 0.88,0 1.59,0.71 1.59,1.59l0 14.65c0,0.88 -0.71,1.59 -1.59,1.59 -0.88,0 -1.59,-0.71 -1.59,-1.59l0 -14.65z"/>
   <path fill="#032CAE" fill-rule="nonzero" d="M100.5 97.57c0,-0.88 0.71,-1.59 1.59,-1.59 0.88,0 1.59,0.71 1.59,1.59l0 14.65c0,0.88 -0.71,1.59 -1.59,1.59 -0.88,0 -1.59,-0.71 -1.59,-1.59l0 -14.65z"/>
   <path fill="#032CAE" fill-rule="nonzero" d="M74.63 97.57c0,-0.88 0.71,-1.59 1.59,-1.59 0.88,0 1.59,0.71 1.59,1.59l0 14.65c0,0.88 -0.71,1.59 -1.59,1.59 -0.88,0 -1.59,-0.71 -1.59,-1.59l0 -14.65z"/>
   <path fill="#032CAE" fill-rule="nonzero" d="M73.34 95.98l51.8 0 0 -11.48 -51.8 0 0 11.48zm53.38 3.17l-54.97 0c-0.88,0 -1.59,-0.71 -1.59,-1.59l0 -14.65c0,-0.88 0.71,-1.59 1.59,-1.59l54.97 0c0.88,0 1.59,0.71 1.59,1.59l0 14.65c0,0.88 -0.71,1.59 -1.59,1.59z"/>
   <path fill="#032CAE" fill-rule="nonzero" d="M114.32 82.92c0,-0.88 0.71,-1.59 1.59,-1.59 0.88,0 1.59,0.71 1.59,1.59l0 14.65c0,0.88 -0.71,1.59 -1.59,1.59 -0.88,0 -1.59,-0.71 -1.59,-1.59l0 -14.65z"/>
   <path fill="#032CAE" fill-rule="nonzero" d="M106.85 82.92c0,-0.88 0.71,-1.59 1.59,-1.59 0.88,0 1.59,0.71 1.59,1.59l0 14.65c0,0.88 -0.71,1.59 -1.59,1.59 -0.88,0 -1.59,-0.71 -1.59,-1.59l0 -14.65z"/>
   <path fill="#032CAE" fill-rule="nonzero" d="M80.98 82.92c0,-0.88 0.71,-1.59 1.59,-1.59 0.88,0 1.59,0.71 1.59,1.59l0 14.65c0,0.88 -0.71,1.59 -1.59,1.59 -0.88,0 -1.59,-0.71 -1.59,-1.59l0 -14.65z"/>
   <path fill="#032CAE" fill-rule="nonzero" d="M73.34 81.33l51.8 0 0 -11.48 -51.8 0 0 11.48zm53.38 3.17l-54.97 0c-0.88,0 -1.59,-0.71 -1.59,-1.59l0 -14.65c0,-0.88 0.71,-1.59 1.59,-1.59l54.97 0c0.88,0 1.59,0.71 1.59,1.59l0 14.65c0,0.88 -0.71,1.59 -1.59,1.59z"/>
   <path fill="#032CAE" fill-rule="nonzero" d="M114.32 68.27c0,-0.88 0.71,-1.59 1.59,-1.59 0.88,0 1.59,0.71 1.59,1.59l0 14.65c0,0.88 -0.71,1.59 -1.59,1.59 -0.88,0 -1.59,-0.71 -1.59,-1.59l0 -14.65z"/>
   <path fill="#032CAE" fill-rule="nonzero" d="M106.85 68.27c0,-0.88 0.71,-1.59 1.59,-1.59 0.88,0 1.59,0.71 1.59,1.59l0 14.65c0,0.88 -0.71,1.59 -1.59,1.59 -0.88,0 -1.59,-0.71 -1.59,-1.59l0 -14.65z"/>
   <path fill="#032CAE" fill-rule="nonzero" d="M80.98 68.27c0,-0.88 0.71,-1.59 1.59,-1.59 0.88,0 1.59,0.71 1.59,1.59l0 14.65c0,0.88 -0.71,1.59 -1.59,1.59 -0.88,0 -1.59,-0.71 -1.59,-1.59l0 -14.65z"/>
   <path fill="#032CAE" fill-rule="nonzero" d="M72.28 125.28l51.8 0 0 -11.48 -51.8 0 0 11.48zm53.38 3.17l-54.97 0c-0.88,0 -1.59,-0.71 -1.59,-1.59l0 -14.65c0,-0.88 0.71,-1.59 1.59,-1.59l54.97 0c0.88,0 1.59,0.71 1.59,1.59l0 14.65c0,0.88 -0.71,1.59 -1.59,1.59z"/>
   <path fill="#032CAE" fill-rule="nonzero" d="M113.26 112.21c0,-0.88 0.71,-1.59 1.59,-1.59 0.88,0 1.59,0.71 1.59,1.59l0 14.65c0,0.88 -0.71,1.59 -1.59,1.59 -0.88,0 -1.59,-0.71 -1.59,-1.59l0 -14.65z"/>
   <path fill="#032CAE" fill-rule="nonzero" d="M105.79 112.21c0,-0.88 0.71,-1.59 1.59,-1.59 0.88,0 1.59,0.71 1.59,1.59l0 14.65c0,0.88 -0.71,1.59 -1.59,1.59 -0.88,0 -1.59,-0.71 -1.59,-1.59l0 -14.65z"/>
   <path fill="#032CAE" fill-rule="nonzero" d="M79.92 112.21c0,-0.88 0.71,-1.59 1.59,-1.59 0.88,0 1.59,0.71 1.59,1.59l0 14.65c0,0.88 -0.71,1.59 -1.59,1.59 -0.88,0 -1.59,-0.71 -1.59,-1.59l0 -14.65z"/>
   <path fill="#032CAE" fill-rule="nonzero" d="M68.64 35.15c0.81,0.32 1.21,1.24 0.89,2.05 -0.32,0.81 -1.24,1.21 -2.05,0.89 -11.16,-4.42 -20.35,-10.06 -23.21,-11.88 -3.81,2.71 -19.36,13 -41.1,16.84l0 45.86c1.67,3.03 14.47,24.96 41.05,37.2 4.5,-2.06 8.38,-4.21 11.87,-6.5 3.65,-2.39 6.88,-4.94 9.96,-7.71 0.65,-0.58 1.65,-0.53 2.24,0.12 0.58,0.65 0.53,1.65 -0.12,2.24 -3.2,2.88 -6.55,5.52 -10.35,8.01 -3.79,2.48 -8.01,4.8 -12.96,7.03 -0.4,0.18 -0.87,0.19 -1.3,0 -28.9,-13.03 -42.33,-37.31 -43.32,-39.14 -0.16,-0.25 -0.25,-0.54 -0.25,-0.86l0 -47.58c0,-0.76 0.55,-1.44 1.33,-1.56 24.17,-3.93 40.69,-16.19 41.86,-17.08 0.52,-0.44 1.29,-0.51 1.9,-0.12 0.03,0.02 10.44,7 23.55,12.2z"/>
   <path fill="#032CAE" fill-rule="nonzero" d="M60.36 60.1c-0.57,-0.66 -0.49,-1.66 0.17,-2.23 0.66,-0.57 1.66,-0.49 2.23,0.17 1.88,2.2 3.39,4.73 4.41,7.49 0.98,2.66 1.52,5.55 1.52,8.54 0,6.8 -2.76,12.97 -7.22,17.43l-0.09 0.09c-4.45,4.41 -10.58,7.13 -17.33,7.13 -6.8,0 -12.97,-2.76 -17.43,-7.22l-0.09 -0.09c-4.41,-4.45 -7.13,-10.58 -7.13,-17.33 0,-6.8 2.76,-12.96 7.22,-17.42 4.46,-4.47 10.62,-7.23 17.43,-7.23 1.23,0 2.45,0.09 3.65,0.27 1.2,0.18 2.39,0.45 3.56,0.81 0.83,0.25 1.31,1.14 1.05,1.97 -0.25,0.83 -1.14,1.31 -1.97,1.05 -0.99,-0.3 -2.03,-0.54 -3.1,-0.7 -1.03,-0.15 -2.1,-0.23 -3.2,-0.23 -5.93,0 -11.3,2.41 -15.19,6.29 -3.89,3.88 -6.29,9.25 -6.29,15.19 0,5.9 2.37,11.24 6.21,15.11l0.08 0.07c3.88,3.88 9.26,6.29 15.19,6.29 5.9,0 11.23,-2.37 15.11,-6.21l0.07 -0.08c3.88,-3.88 6.29,-9.25 6.29,-15.19 0,-2.62 -0.47,-5.14 -1.32,-7.45 -0.89,-2.41 -2.2,-4.62 -3.84,-6.53z"/>
   <path fill="#032CAE" fill-rule="nonzero" d="M37.87 72.94c-0.52,-0.7 -0.38,-1.69 0.32,-2.21 0.7,-0.52 1.69,-0.38 2.21,0.32l3.76 5.03 9.11 -10.15c0.58,-0.65 1.59,-0.7 2.24,-0.12 0.65,0.58 0.7,1.59 0.12,2.24l-10.4 11.58 -0.23 0.2c-0.7,0.52 -1.69,0.38 -2.21,-0.32l-4.92 -6.57z"/>
   <path fill="#032CAE" fill-rule="nonzero" d="M42.63 24.28c0,-0.88 0.71,-1.59 1.59,-1.59 0.88,0 1.59,0.71 1.59,1.59l0 17.98c0,0.88 -0.71,1.59 -1.59,1.59 -0.88,0 -1.59,-0.71 -1.59,-1.59l0 -17.98z"/>
   <path fill="#032CAE" fill-rule="nonzero" d="M45.81 126.32c0,0.88 -0.71,1.59 -1.59,1.59 -0.88,0 -1.59,-0.71 -1.59,-1.59l0 -17.9c0,-0.88 0.71,-1.59 1.59,-1.59 0.88,0 1.59,0.71 1.59,1.59l0 17.9z"/>
   <path fill="#032CAE" fill-rule="nonzero" d="M56.74 54.54l2.17 0c0,-1.2 -0.98,-2.17 -2.17,-2.17 -1.2,0 -2.17,0.98 -2.17,2.17 0,1.2 0.98,2.17 2.17,2.17 1.2,0 2.17,-0.98 2.17,-2.17l-2.17 0z"/>
   <path fill="#032CAE" fill-rule="nonzero" d="M2.49 18.55c-0.73,-0.47 -0.95,-1.45 -0.48,-2.19 0.47,-0.73 1.45,-0.95 2.19,-0.48l9.38 6.04c0.73,0.47 0.95,1.45 0.48,2.19 -0.47,0.73 -1.45,0.95 -2.19,0.48l-9.38 -6.04z"/>
   <path fill="#032CAE" fill-rule="nonzero" d="M17.15 5.4c-0.32,-0.81 0.09,-1.73 0.9,-2.05 0.81,-0.32 1.73,0.09 2.05,0.9l4.92 12.5c0.32,0.81 -0.09,1.73 -0.9,2.05 -0.81,0.32 -1.73,-0.09 -2.05,-0.9l-4.92 -12.5z"/>
   <path fill="#032CAE" fill-rule="nonzero" d="M38.21 3.33c0.31,-0.81 1.23,-1.22 2.04,-0.9 0.81,0.31 1.22,1.23 0.9,2.04l-4.24 10.96c-0.31,0.81 -1.23,1.22 -2.04,0.9 -0.81,-0.31 -1.22,-1.23 -0.9,-2.04l4.24 -10.96z"/>
   <path fill="#032CAE" d="M106.36 40.72c-1,-0.08 -1.8,-0.94 -1.8,-1.93 0,-5.38 0,-5.38 0,-5.38 0,-7.92 -6.12,-13.91 -12.97,-13.41 -1.81,0.13 -3.55,0.7 -5.08,1.68 -0.67,0.42 -1.47,0.18 -1.81,-0.56 -0.32,-0.74 -0.08,-1.68 0.58,-2.13 5.37,-3.59 12.52,-3.07 17.64,1.86 3.36,3.18 5.31,7.81 5.29,12.67 0,5.51 0,5.51 0,5.51 0,1.01 -0.83,1.77 -1.84,1.69l0 0zm-26.81 -2.12c-0.67,-0.05 -1.2,-0.75 -1.2,-1.56 0,-4.4 0,-4.4 0,-4.4 -0.01,-3.09 0.79,-6.13 2.32,-8.7 0.41,-0.69 1.2,-0.87 1.77,-0.4 0.56,0.48 0.68,1.42 0.26,2.11 -1.26,2.08 -1.93,4.54 -1.92,7.07 0,4.49 0,4.49 0,4.49 0,0.82 -0.55,1.45 -1.22,1.39l0 0zm21.53 8.71c-0.93,-0.12 -1.67,-1.01 -1.67,-1.96 0,-12.09 0,-12.09 0,-12.09 0,-1.22 -0.25,-2.41 -0.73,-3.53 -0.42,-0.85 -0.1,-1.87 0.71,-2.32 0.82,-0.44 1.85,-0.11 2.27,0.75 0.02,0.04 0.02,0.06 0.04,0.1 0.72,1.59 1.09,3.33 1.09,5.1 0,12.38 0,12.38 0,12.38 0,0.98 -0.77,1.69 -1.71,1.56l0 0zm-17.77 -2.29c-0.71,-0.09 -1.28,-0.86 -1.28,-1.69 0,-10.58 0,-10.58 0,-10.58 0,-5.84 4.1,-10.81 9.56,-11.13 1.49,-0.1 2.99,0.18 4.39,0.81 0.78,0.36 1.12,1.36 0.72,2.23 -0.37,0.82 -1.27,1.2 -2.04,0.85 -0.99,-0.46 -2.03,-0.68 -3.08,-0.64 -3.95,0.15 -6.97,3.69 -6.98,7.96 0,10.8 0,10.8 0,10.8 0,0.85 -0.58,1.48 -1.3,1.39l0 0zm8.29 4.32c-0.81,-0.12 -1.45,-0.94 -1.45,-1.83 0,-14.52 0,-14.52 0,-14.52 0,-0.89 0.64,-1.6 1.45,-1.58 0.82,0.01 1.49,0.76 1.49,1.67 0,14.84 0,14.84 0,14.84 0,0.91 -0.67,1.54 -1.49,1.41l0 0zm4.58 -0.98c-0.86,-0.12 -1.55,-0.96 -1.55,-1.88 0,-13.35 0,-13.35 0,-13.35 0,-1.84 -1.38,-3.35 -3.02,-3.36 -1.6,-0.01 -2.89,1.42 -2.89,3.18 0,1.59 0,1.59 0,1.59 0,0.88 -0.62,1.57 -1.39,1.53 -0.76,-0.04 -1.36,-0.79 -1.36,-1.64 0,-1.56 0,-1.56 0,-1.56 0,-3.45 2.45,-6.29 5.64,-6.35 3.35,-0.07 6.17,2.92 6.17,6.7 0,13.67 0,13.67 0,13.67 0,0.94 -0.72,1.6 -1.59,1.48l0 0zm-8.86 -1.25c-0.76,-0.11 -1.36,-0.89 -1.36,-1.75 0,-4.68 0,-4.68 0,-4.68 0,-0.86 0.61,-1.52 1.36,-1.46 0.76,0.06 1.39,0.84 1.39,1.72 0,4.78 0,4.78 0,4.78 0,0.88 -0.62,1.5 -1.39,1.39l0 0z"/>
  </g>
 </g>
</svg>
