<?xml version="1.0" encoding="UTF-8"?>
<!DOCTYPE svg PUBLIC "-//W3C//DTD SVG 1.1//EN" "http://www.w3.org/Graphics/SVG/1.1/DTD/svg11.dtd">
<!-- Creator: CorelDRAW -->
<svg xmlns="http://www.w3.org/2000/svg" xml:space="preserve" width="1.3899mm" height="1.3155mm" version="1.1" shape-rendering="geometricPrecision" text-rendering="geometricPrecision" image-rendering="optimizeQuality" fill-rule="evenodd" clip-rule="evenodd"
viewBox="0 0 13.19 12.48"
 xmlns:xlink="http://www.w3.org/1999/xlink"
 xmlns:xodm="http://www.corel.com/coreldraw/odm/2003">
 <g id="attach.eps_x0020_2">
  <metadata id="CorelCorpID_0Corel-Layer"/>
  <g id="attach.eps">
   <path fill="#727271" fill-rule="nonzero" d="M11.95 1.23c-1.64,-1.64 -4.32,-1.64 -5.96,0l-5.11 5.11c-1.17,1.17 -1.17,3.08 0,4.26 0.59,0.59 1.36,0.88 2.13,0.88 0.77,0 1.54,-0.29 2.13,-0.88l4.68 -4.68c0.34,-0.34 0.53,-0.8 0.53,-1.28 0,-0.48 -0.19,-0.94 -0.53,-1.28 -0.7,-0.7 -1.85,-0.7 -2.55,0l-3.06 3.06c-0.24,0.24 -0.24,0.62 0,0.85 0.24,0.24 0.62,0.24 0.85,0l3.06 -3.06c0.24,-0.23 0.62,-0.23 0.85,0 0.11,0.11 0.18,0.27 0.18,0.43 0,0.16 -0.06,0.31 -0.18,0.43l-4.68 4.68c-0.7,0.7 -1.85,0.7 -2.55,0 -0.7,-0.7 -0.7,-1.85 0,-2.55l5.11 -5.11c1.17,-1.17 3.08,-1.17 4.26,0 0.57,0.57 0.88,1.33 0.88,2.13 0,0.8 -0.31,1.56 -0.88,2.13l-5.11 5.11c-0.24,0.23 -0.24,0.62 0,0.85 0.12,0.12 0.27,0.18 0.43,0.18 0.15,0 0.31,-0.06 0.43,-0.18l5.11 -5.11c0.8,-0.8 1.23,-1.85 1.23,-2.98 0,-1.13 -0.44,-2.18 -1.23,-2.98z"/>
  </g>
 </g>
</svg>
