<?xml version="1.0" encoding="UTF-8"?>
<!DOCTYPE svg PUBLIC "-//W3C//DTD SVG 1.1//EN" "http://www.w3.org/Graphics/SVG/1.1/DTD/svg11.dtd">
<!-- Creator: CorelDRAW -->
<svg xmlns="http://www.w3.org/2000/svg" xml:space="preserve" width="3.4716mm" height="3.4716mm" version="1.1" shape-rendering="geometricPrecision" text-rendering="geometricPrecision" image-rendering="optimizeQuality" fill-rule="evenodd" clip-rule="evenodd"
viewBox="0 0 65.1 65.1"
 xmlns:xlink="http://www.w3.org/1999/xlink"
 xmlns:xodm="http://www.corel.com/coreldraw/odm/2003">
 <g id="_x0020_5">
  <metadata id="CorelCorpID_0Corel-Layer"/>
  <g id="_1516077014896">
   <circle fill="#0811CC" cx="32.55" cy="32.55" r="32.55"/>
   <path fill="#FEFEFE" d="M53.02 41.65c-1.25,0 -2.27,-1.01 -2.27,-2.27 0,-6.83 0,-6.83 0,-6.83 0,-10.05 -8.16,-18.21 -18.21,-18.18 -2.83,0 -5.63,0.64 -8.16,1.92 -1.12,0.56 -2.48,0.13 -3.07,-0.99 -0.56,-1.12 -0.13,-2.48 0.99,-3.07 8.77,-4.43 19.38,-2.72 26.31,4.24 4.29,4.24 6.69,10.05 6.66,16.07 0,6.83 0,6.83 0,6.83 0,1.25 -1.01,2.27 -2.27,2.27l0 0zm-40.95 0c-1.25,0 -2.27,-1.01 -2.27,-2.27 0,-6.83 0,-6.83 0,-6.83 -0.03,-4.8 1.49,-9.49 4.35,-13.35 0.75,-1.01 2.18,-1.23 3.2,-0.48 0.99,0.75 1.2,2.16 0.45,3.17 -2.27,3.09 -3.49,6.82 -3.47,10.66 0,6.83 0,6.83 0,6.83 0,1.25 -1.01,2.27 -2.27,2.27l0 0zm34.12 9.12c-1.25,0 -2.27,-1.04 -2.27,-2.29 0,-15.91 0,-15.91 0,-15.91 0,-1.6 -0.35,-3.17 -1.01,-4.64 -0.59,-1.12 -0.13,-2.48 0.99,-3.07 1.12,-0.56 2.51,-0.11 3.07,1.01 0.03,0.05 0.03,0.08 0.05,0.13 0.96,2.05 1.44,4.29 1.44,6.56 0,15.91 0,15.91 0,15.91 0,1.25 -1.01,2.29 -2.27,2.29l0 0zm-27.3 0c-1.25,0 -2.27,-1.04 -2.27,-2.29 0,-15.91 0,-15.91 0,-15.91 0,-8.8 7.12,-15.91 15.91,-15.91 2.27,-0.03 4.5,0.48 6.56,1.44 1.12,0.53 1.6,1.89 1.04,3.04 -0.53,1.09 -1.84,1.57 -2.96,1.07 -1.47,-0.67 -3.04,-1.01 -4.64,-1.01 -6.29,0.03 -11.36,5.09 -11.38,11.38 0,15.91 0,15.91 0,15.91 0,1.25 -1.01,2.29 -2.27,2.29l0 0zm13.65 4.53c-1.25,0 -2.27,-1.01 -2.27,-2.27 0,-20.47 0,-20.47 0,-20.47 0,-1.25 1.01,-2.27 2.27,-2.27 1.25,0 2.27,1.01 2.27,2.27 0,20.47 0,20.47 0,20.47 0,1.25 -1.01,2.27 -2.27,2.27l0 0zm6.82 -2.27c-1.25,0 -2.27,-1.01 -2.27,-2.27 0,-18.21 0,-18.21 0,-18.21 0,-2.51 -2.05,-4.56 -4.56,-4.56 -2.51,0 -4.56,2.05 -4.56,4.56 0,2.27 0,2.27 0,2.27 0,1.25 -1.01,2.29 -2.27,2.29 -1.25,0 -2.27,-1.04 -2.27,-2.29 0,-2.27 0,-2.27 0,-2.27 0,-5.04 4.05,-9.09 9.09,-9.09 5.04,0 9.09,4.05 9.09,9.09 0,18.21 0,18.21 0,18.21 0,1.25 -1.01,2.27 -2.27,2.27l0 0zm-13.65 0c-1.25,0 -2.27,-1.01 -2.27,-2.27 0,-6.82 0,-6.82 0,-6.82 0,-1.25 1.01,-2.29 2.27,-2.29 1.25,0 2.27,1.04 2.27,2.29 0,6.82 0,6.82 0,6.82 0,1.25 -1.01,2.27 -2.27,2.27l0 0z"/>
  </g>
 </g>
</svg>
