<?xml version="1.0" encoding="UTF-8"?>
<!DOCTYPE svg PUBLIC "-//W3C//DTD SVG 1.1//EN" "http://www.w3.org/Graphics/SVG/1.1/DTD/svg11.dtd">
<!-- Creator: CorelDRAW -->
<svg xmlns="http://www.w3.org/2000/svg" xml:space="preserve" width="1.1879mm" height="1.1879mm" version="1.1" shape-rendering="geometricPrecision" text-rendering="geometricPrecision" image-rendering="optimizeQuality" fill-rule="evenodd" clip-rule="evenodd"
viewBox="0 0 7.64 7.64"
 xmlns:xlink="http://www.w3.org/1999/xlink"
 xmlns:xodm="http://www.corel.com/coreldraw/odm/2003">
 <g id="_x0020_9">
  <metadata id="CorelCorpID_0Corel-Layer"/>
  <g id="_1517085559904">
   <path fill="#FEFEFE" d="M6.87 3.82c0,1.68 -1.37,3.06 -3.05,3.06 -1.68,0 -3.06,-1.37 -3.06,-3.06 0,-1.68 1.37,-3.05 3.06,-3.05 0.31,0 0.57,0.04 0.84,0.11l0.61 -0.61c-0.46,-0.15 -0.95,-0.27 -1.45,-0.27 -2.1,0 -3.82,1.72 -3.82,3.82 0,2.1 1.72,3.82 3.82,3.82 2.1,0 3.82,-1.72 3.82,-3.82l-0.76 0z"/>
   <polygon fill="#FEFEFE" points="2.25,3.09 1.72,3.63 3.44,5.35 7.26,1.53 6.72,0.99 3.44,4.28 "/>
  </g>
 </g>
</svg>
