<?xml version="1.0" encoding="UTF-8"?>
<!DOCTYPE svg PUBLIC "-//W3C//DTD SVG 1.1//EN" "http://www.w3.org/Graphics/SVG/1.1/DTD/svg11.dtd">
<!-- Creator: CorelDRAW -->
<svg xmlns="http://www.w3.org/2000/svg" xml:space="preserve" width="1.6016mm" height="1.6015mm" version="1.1" shape-rendering="geometricPrecision" text-rendering="geometricPrecision" image-rendering="optimizeQuality" fill-rule="evenodd" clip-rule="evenodd"
viewBox="0 0 14.32 14.32"
 xmlns:xlink="http://www.w3.org/1999/xlink"
 xmlns:xodm="http://www.corel.com/coreldraw/odm/2003">
 <g id="_x0020_3">
  <metadata id="CorelCorpID_0Corel-Layer"/>
  <path fill="#FEFEFE" fill-rule="nonzero" d="M6.22 10.69c-0.07,0 -0.14,-0.03 -0.2,-0.08l-3.04 -3.04c-0.11,-0.11 -0.11,-0.29 0,-0.4l1.58 -1.58c0.11,-0.11 0.29,-0.11 0.4,0l1.26 1.26 3.14 -3.14c0.05,-0.05 0.12,-0.08 0.2,-0.08 0.07,0 0.15,0.03 0.2,0.08l1.58 1.58c0.11,0.11 0.11,0.29 0,0.4l-4.92 4.92c-0.05,0.05 -0.12,0.08 -0.2,0.08l0 0zm-2.65 -3.32l2.65 2.65 4.52 -4.52 -1.19 -1.19 -3.14 3.14c-0.11,0.11 -0.29,0.11 -0.4,0l-1.26 -1.26 -1.19 1.19zm3.58 6.95c-0.18,0 -0.36,-0.01 -0.55,-0.02 -1.7,-0.13 -3.31,-0.87 -4.51,-2.08 -1.35,-1.35 -2.1,-3.15 -2.1,-5.06 0,-1.91 0.74,-3.71 2.1,-5.06 1.35,-1.35 3.15,-2.1 5.06,-2.1 1.91,0 3.71,0.74 5.06,2.1 1.21,1.21 1.95,2.81 2.08,4.51 0.13,1.68 -0.34,3.36 -1.32,4.72 -0.09,0.13 -0.27,0.15 -0.39,0.06 -0.13,-0.09 -0.15,-0.26 -0.06,-0.39 1.89,-2.64 1.6,-6.22 -0.7,-8.52 -2.57,-2.57 -6.76,-2.57 -9.34,0 -2.57,2.57 -2.57,6.76 0,9.34 2.3,2.3 5.88,2.59 8.52,0.7 0.13,-0.09 0.3,-0.06 0.39,0.06 0.09,0.13 0.06,0.3 -0.06,0.39 -1.22,0.87 -2.68,1.34 -4.18,1.34l0 0zm4.87 -2.02c-0.07,0 -0.15,-0.03 -0.2,-0.08 -0.05,-0.05 -0.08,-0.12 -0.08,-0.2 0,-0.07 0.03,-0.15 0.08,-0.2 0.05,-0.05 0.12,-0.08 0.2,-0.08 0.07,0 0.15,0.03 0.2,0.08 0.05,0.05 0.08,0.12 0.08,0.2 0,0.07 -0.03,0.15 -0.08,0.2 -0.05,0.05 -0.12,0.08 -0.2,0.08z"/>
 </g>
</svg>
