<?xml version="1.0" encoding="UTF-8"?>
<!DOCTYPE svg PUBLIC "-//W3C//DTD SVG 1.1//EN" "http://www.w3.org/Graphics/SVG/1.1/DTD/svg11.dtd">
<!-- Creator: CorelDRAW -->
<svg xmlns="http://www.w3.org/2000/svg" xml:space="preserve" width="1.3491mm" height="1.6784mm" version="1.1" shape-rendering="geometricPrecision" text-rendering="geometricPrecision" image-rendering="optimizeQuality" fill-rule="evenodd" clip-rule="evenodd"
viewBox="0 0 10.02 12.47"
 xmlns:xlink="http://www.w3.org/1999/xlink"
 xmlns:xodm="http://www.corel.com/coreldraw/odm/2003">
 <g id="_x0020_3">
  <metadata id="CorelCorpID_0Corel-Layer"/>
  <path fill="#FEFEFE" fill-rule="nonzero" d="M9.52 5.32c-0.32,-0.32 -0.75,-0.5 -1.2,-0.5l-0.12 0 0 -1.69c0,-1.73 -1.4,-3.13 -3.13,-3.13l-0.12 0c-1.73,0 -3.13,1.4 -3.13,3.13l0 1.69 -0.12 0c-0.45,0 -0.88,0.18 -1.2,0.5 -0.32,0.32 -0.5,0.75 -0.5,1.2l0 4.25c0,0.45 0.18,0.88 0.5,1.2 0.32,0.32 0.75,0.5 1.2,0.5l6.62 0c0.45,0 0.88,-0.18 1.2,-0.5 0.32,-0.32 0.5,-0.75 0.5,-1.2l0 -4.25c0,-0.45 -0.18,-0.88 -0.5,-1.2l0 0zm-6.88 -2.19c0,-1.27 1.04,-2.31 2.31,-2.31l0.12 0c1.27,0 2.31,1.04 2.31,2.31l0 1.69 -4.74 0 0 -1.69zm6.56 7.64c0,0.23 -0.09,0.46 -0.26,0.62 -0.17,0.17 -0.39,0.26 -0.62,0.26l-6.62 0c-0.24,0 -0.46,-0.09 -0.62,-0.26 -0.17,-0.17 -0.26,-0.39 -0.26,-0.62l0 -4.25c0,-0.23 0.09,-0.46 0.26,-0.62 0.17,-0.17 0.39,-0.26 0.62,-0.26l6.62 0c0.23,0 0.46,0.09 0.62,0.26 0.17,0.17 0.26,0.39 0.26,0.62l0 4.25 0 0zm-4.19 -3.26c-0.23,0 -0.41,0.18 -0.41,0.41l0 1.44c0,0.23 0.18,0.41 0.41,0.41 0.23,0 0.41,-0.18 0.41,-0.41l0 -1.44c0,-0.23 -0.18,-0.41 -0.41,-0.41z"/>
 </g>
</svg>
