<?xml version="1.0" encoding="UTF-8"?>
<!DOCTYPE svg PUBLIC "-//W3C//DTD SVG 1.1//EN" "http://www.w3.org/Graphics/SVG/1.1/DTD/svg11.dtd">
<!-- Creator: CorelDRAW -->
<svg xmlns="http://www.w3.org/2000/svg" xml:space="preserve" width="2.032mm" height="2.0319mm" version="1.1" shape-rendering="geometricPrecision" text-rendering="geometricPrecision" image-rendering="optimizeQuality" fill-rule="evenodd" clip-rule="evenodd"
viewBox="0 0 9.36 9.36"
 xmlns:xlink="http://www.w3.org/1999/xlink"
 xmlns:xodm="http://www.corel.com/coreldraw/odm/2003">
 <g id="edit.eps">
  <metadata id="CorelCorpID_0Corel-Layer"/>
  <g id="edit.eps_0">
   <path fill="#0000F8" fill-rule="nonzero" d="M1 9.36l6.02 0c0.55,0 1,-0.45 1,-1l0 -3.34c0,-0.18 -0.15,-0.33 -0.33,-0.33 -0.18,0 -0.33,0.15 -0.33,0.33l0 3.34c0,0.18 -0.15,0.33 -0.33,0.33l-6.02 0c-0.18,0 -0.33,-0.15 -0.33,-0.33l0 -6.68c0,-0.18 0.15,-0.33 0.33,-0.33l4.01 0c0.18,0 0.33,-0.15 0.33,-0.33 0,-0.18 -0.15,-0.33 -0.33,-0.33l-4.01 0c-0.55,0 -1,0.45 -1,1l0 6.68c0,0.55 0.45,1 1,1z"/>
   <path fill="#0000F8" fill-rule="nonzero" d="M8.51 1.71l-4.35 4.35 -1.3 0.43 0.43 -1.3 4.35 -4.35c0.24,-0.24 0.63,-0.24 0.86,0 0.11,0.11 0.18,0.27 0.18,0.43 0,0.16 -0.06,0.32 -0.18,0.43zm-0.43 -1.71c-0.34,-0 -0.67,0.13 -0.91,0.37l-4.4 4.4c-0.04,0.04 -0.06,0.08 -0.08,0.13l-0.67 2.01c-0.06,0.18 0.04,0.36 0.21,0.42 0.03,0.01 0.07,0.02 0.11,0.02 0.04,0 0.07,-0.01 0.11,-0.02l2.01 -0.67c0.05,-0.02 0.09,-0.04 0.13,-0.08l4.4 -4.4c0.5,-0.5 0.5,-1.31 0,-1.81 -0.24,-0.24 -0.57,-0.37 -0.9,-0.37z"/>
  </g>
 </g>
</svg>
