<?xml version="1.0" encoding="UTF-8"?>
<!DOCTYPE svg PUBLIC "-//W3C//DTD SVG 1.1//EN" "http://www.w3.org/Graphics/SVG/1.1/DTD/svg11.dtd">
<!-- Creator: CorelDRAW -->
<svg xmlns="http://www.w3.org/2000/svg" xml:space="preserve" width="2.6329mm" height="2.6329mm" version="1.1" shape-rendering="geometricPrecision" text-rendering="geometricPrecision" image-rendering="optimizeQuality" fill-rule="evenodd" clip-rule="evenodd"
viewBox="0 0 8.5 8.5"
 xmlns:xlink="http://www.w3.org/1999/xlink"
 xmlns:xodm="http://www.corel.com/coreldraw/odm/2003">
 <g id="_x0020_6">
  <metadata id="CorelCorpID_0Corel-Layer"/>
  <path fill="#0000F8" fill-rule="nonzero" d="M3.17 6.45c0,0 0,0 0,0 -0.08,0 -0.15,-0.03 -0.2,-0.08l-0.81 -0.81c-0.05,-0.05 -0.08,-0.13 -0.08,-0.2 0,-0.08 0.03,-0.15 0.08,-0.2l0.89 -0.89 -0.87 -0.87c-0.05,-0.05 -0.08,-0.13 -0.08,-0.2 0,-0.08 0.03,-0.15 0.08,-0.2l0.81 -0.81c0.05,-0.05 0.13,-0.08 0.2,-0.08 0.08,0 0.15,0.03 0.2,0.08l0.87 0.87 0.85 -0.85c0.05,-0.05 0.13,-0.08 0.2,-0.08 0.08,0 0.15,0.03 0.2,0.08l0.81 0.81c0.05,0.05 0.08,0.13 0.08,0.2 0,0.08 -0.03,0.15 -0.08,0.2l-0.85 0.85 0.87 0.87c0.05,0.05 0.08,0.13 0.08,0.2 0,0.08 -0.03,0.15 -0.08,0.2l-0.81 0.81c-0.05,0.05 -0.13,0.08 -0.2,0.08 -0.08,0 -0.15,-0.03 -0.2,-0.08l-0.87 -0.87 -0.89 0.89c-0.05,0.05 -0.13,0.08 -0.2,0.08 -0,0 -0,0 -0,0l0 0zm-0.4 -1.09l0.4 0.4 0.89 -0.89c0.05,-0.05 0.13,-0.08 0.2,-0.08 0.08,0 0.15,0.03 0.2,0.08l0.87 0.87 0.4 -0.4 -0.87 -0.87c-0.05,-0.05 -0.08,-0.13 -0.08,-0.2 0,-0.08 0.03,-0.15 0.08,-0.2l0.85 -0.85 -0.4 -0.4 -0.85 0.85c-0.05,0.05 -0.13,0.08 -0.2,0.08 -0.08,0 -0.15,-0.03 -0.2,-0.08l-0.87 -0.87 -0.4 0.4 0.87 0.87c0.05,0.05 0.08,0.13 0.08,0.2 0,0.08 -0.03,0.15 -0.08,0.2l-0.89 0.89zm5.44 3.14l-7.93 0c-0.16,0 -0.28,-0.13 -0.28,-0.29l0 -7.93c0,-0.16 0.13,-0.28 0.29,-0.28l7.93 0c0.16,0 0.29,0.13 0.29,0.29l0 7.93c0,0.16 -0.13,0.28 -0.29,0.28l0 0zm-7.64 -0.57l7.36 0 0 -7.36 -7.36 0 0 7.36z"/>
 </g>
</svg>
