<?xml version="1.0" encoding="UTF-8"?>
<!DOCTYPE svg PUBLIC "-//W3C//DTD SVG 1.1//EN" "http://www.w3.org/Graphics/SVG/1.1/DTD/svg11.dtd">
<!-- Creator: CorelDRAW -->
<svg xmlns="http://www.w3.org/2000/svg" xml:space="preserve" width="8.9487mm" height="6.1895mm" version="1.1" shape-rendering="geometricPrecision" text-rendering="geometricPrecision" image-rendering="optimizeQuality" fill-rule="evenodd" clip-rule="evenodd"
viewBox="0 0 297.28 205.62"
 xmlns:xlink="http://www.w3.org/1999/xlink"
 xmlns:xodm="http://www.corel.com/coreldraw/odm/2003">
 <g id="tokenization.eps">
  <metadata id="CorelCorpID_0Corel-Layer"/>
  <g id="tokenization.eps_0">
   <path fill="#4B56F7" d="M218.92 48.88c-15.09,-0.01 -29.85,4.35 -42.5,12.56 -4.86,-5.11 -12.68,-8.7 -19.68,-11.08l0 -20.88c0,-6.28 -4.33,-15.2 -24.93,-22.07 -14.35,-4.79 -33.33,-7.42 -53.44,-7.42 -20.12,0 -39.1,2.63 -53.45,7.42 -20.6,6.87 -24.92,15.79 -24.92,22.07l0 24.44c0,6.22 4.27,15.05 24.44,21.9l0 11.2c-20.08,6.78 -24.44,15.56 -24.44,21.9l0 24.44c0,6.23 4.27,15.05 24.44,21.9l0 20.88c0,6.28 4.33,15.2 24.92,22.06 14.35,4.79 33.33,7.42 53.45,7.42 30.32,0 56.82,-5.9 69.69,-15.26 34.86,25.64 83.91,18.17 109.54,-16.69 25.64,-34.86 18.17,-83.9 -16.69,-109.54 -13.45,-9.9 -29.73,-15.24 -46.43,-15.24l-0 0zm-159.96 127.59c4.51,1.08 9.32,1.99 14.37,2.7l0 14.26c-4.84,-0.71 -9.63,-1.68 -14.37,-2.91l0 -14.06zm24.44 18l0 -14.14c4.67,0.42 9.47,0.68 14.36,0.78l0 14.36c-4.91,-0.11 -9.72,-0.39 -14.37,-0.82 0,-0.06 0.01,-0.12 0.01,-0.18zm24.44 -13.35c4.88,-0.11 9.69,-0.38 14.36,-0.79l0 14.15c0,0.07 0.01,0.13 0.01,0.2 -4.53,0.42 -9.33,0.7 -14.37,0.81l0 -14.36zm24.44 -1.96c5.05,-0.72 9.87,-1.62 14.36,-2.69l0 14.07c-4.73,1.23 -9.53,2.2 -14.36,2.92l0 -14.29zm-29.48 -8.06c-19.06,0 -36.91,-2.45 -50.26,-6.9 -3.61,-1.16 -7.1,-2.65 -10.42,-4.46 11.96,2.12 24.09,3.15 36.24,3.1 27.19,0 51.66,-4.84 65.6,-12.67 1.58,5.17 3.7,10.16 6.32,14.89 -12.9,3.86 -29.78,6.04 -47.48,6.04l0 -0zm-5.04 -33.53l0 14.13c0,0.05 0.01,0.1 0.01,0.16 -4.66,0.44 -9.47,0.73 -14.37,0.85l0 -14.36c4.92,-0.1 9.72,-0.37 14.36,-0.77l0 -0zm0 -79.45l0 14.14c0,0.06 0.01,0.13 0.01,0.19 -4.65,0.44 -9.46,0.71 -14.37,0.82l0 -14.36c4.89,-0.11 9.7,-0.37 14.36,-0.78zm48.89 -4.62c-0.03,0.25 -0.03,0.51 -0.02,0.76 -0.31,2.72 -4.25,6.92 -14.34,10.84l0 -13.73c6.16,-2.09 10.84,-4.36 14.36,-6.69l0 8.81zm-24.44 14.82c-4.73,1.22 -9.53,2.19 -14.36,2.91l0 -14.27c5.05,-0.72 9.86,-1.62 14.36,-2.7l0 14.06zm-48.88 4.95c-4.91,-0.11 -9.72,-0.39 -14.38,-0.82 0,-0.06 0.01,-0.12 0.01,-0.18l0 -14.14c4.67,0.41 9.47,0.68 14.37,0.78l0 14.36zm-24.44 -2.04c-4.84,-0.72 -9.63,-1.69 -14.37,-2.91l0 -14.06c4.51,1.08 9.33,1.99 14.37,2.7l0 14.27zm-14.37 16.24c3.53,2.33 8.21,4.6 14.37,6.69l0 13.73c-10.52,-4.09 -14.37,-8.48 -14.37,-11.19l0 -9.24zm24.44 9.56c4.51,1.08 9.32,1.99 14.37,2.7l0 14.27c-4.84,-0.72 -9.63,-1.69 -14.37,-2.91l0 -14.06zm24.44 18l0 -14.14c4.67,0.42 9.47,0.68 14.36,0.78l0 14.36c-4.91,-0.11 -9.72,-0.39 -14.37,-0.82 0,-0.06 0.01,-0.12 0.01,-0.19l0 0zm24.44 -13.35c4.9,-0.11 9.7,-0.37 14.36,-0.78l0 14.13c0,0.06 0.01,0.12 0.01,0.18 -4.67,0.44 -9.48,0.72 -14.37,0.83l0 -14.36zm32.7 25.84c0.02,4.13 0.36,8.25 1.01,12.33 -2.9,1.92 -6.01,3.5 -9.27,4.7l0 -13.71c2.81,-0.95 5.57,-2.06 8.26,-3.32l0 0zm1.45 -15.31c-3.11,0.68 -6.35,1.27 -9.71,1.78l0 -14.25c5.03,-0.71 9.82,-1.62 14.31,-2.69 -2.05,4.88 -3.59,9.96 -4.6,15.16l-0 0zm-19.79 35.52c-4.73,1.21 -9.53,2.17 -14.36,2.89l0 -14.2c5.07,-0.72 9.88,-1.62 14.36,-2.69l0 14.01zm-48.88 4.98c-4.91,-0.12 -9.72,-0.39 -14.37,-0.82 0,-0.06 0.01,-0.12 0.01,-0.19l0 -14.14c4.67,0.42 9.47,0.68 14.37,0.78l0 14.37zm-24.44 -2.05c-4.84,-0.71 -9.63,-1.68 -14.37,-2.9l0 -14.06c4.51,1.08 9.33,1.99 14.37,2.7l0 14.26zm104.23 -65.93c-13.19,4.41 -31.42,6.93 -50.3,6.93 -19.06,0 -36.91,-2.46 -50.26,-6.9 -3.61,-1.16 -7.1,-2.65 -10.42,-4.46 11.96,2.12 24.09,3.16 36.24,3.1 20.11,0 39.09,-2.63 53.45,-7.42 14.14,-4.71 20.61,-10.39 23.28,-15.52 5.84,2.12 10.39,4.56 13.16,7.06 -5.85,4.97 -10.95,10.77 -15.13,17.21zm-125 -67.76c13.35,-4.45 31.2,-6.9 50.26,-6.9 19.06,0 36.91,2.45 50.26,6.9 13.31,4.43 18.03,9.51 18.03,12.5 0,2.99 -4.72,8.07 -18.03,12.5 -13.35,4.45 -31.2,6.9 -50.26,6.9 -19.07,0 -36.91,-2.45 -50.26,-6.9 -13.31,-4.43 -18.04,-9.51 -18.04,-12.5 0,-3 4.72,-8.07 18.04,-12.5zm-18.04 36.95l0 -9.24c3.53,2.33 8.21,4.6 14.37,6.69l0 13.73c-10.52,-4.09 -14.37,-8.48 -14.37,-11.19zm14.41 43.8c0.47,6.2 5.38,14.53 24.88,21.04 14.35,4.78 33.33,7.42 53.45,7.42 1.83,0 3.65,-0.02 5.46,-0.06 -9.9,1.49 -19.9,2.23 -29.91,2.21 -19.06,0 -36.91,-2.45 -50.26,-6.9 -13.31,-4.44 -18.03,-9.51 -18.03,-12.5 0,-2.99 4.51,-7.34 14.41,-11.2zm-14.41 35.64l0 -9.24c3.53,2.33 8.21,4.6 14.37,6.69l0 13.73c-10.52,-4.1 -14.37,-8.49 -14.37,-11.19zm24.44 42.78l0 -9.24c3.53,2.33 8.21,4.6 14.37,6.69l0 13.73c-10.52,-4.1 -14.37,-8.48 -14.37,-11.19zm122.22 11.17l0 -12.41c2.37,3.08 4.96,5.99 7.75,8.69 -2.47,1.46 -5.07,2.7 -7.75,3.72zm62.18 8.24c-22.44,-0.01 -43.45,-11.04 -56.18,-29.52 -0.01,-0.01 -0.01,-0.02 -0.01,-0.03 -0.27,-0.72 -0.71,-1.37 -1.28,-1.89 -20.34,-31.75 -11.09,-73.98 20.65,-94.32 31.75,-20.34 73.98,-11.09 94.32,20.66 20.34,31.75 11.09,73.97 -20.66,94.32 -11,7.05 -23.79,10.79 -36.85,10.79l0 -0z"/>
   <path fill="#4B56F7" d="M218.92 73.33c-29.79,0 -53.93,24.14 -53.93,53.93 0,29.78 24.14,53.92 53.93,53.92 29.78,0 53.92,-24.14 53.93,-53.92 -0.03,-29.77 -24.16,-53.89 -53.92,-53.93zm0 97.78c-24.22,0 -43.85,-19.63 -43.85,-43.85 0,-24.22 19.63,-43.85 43.85,-43.85 24.22,0 43.85,19.63 43.85,43.85 -0.03,24.2 -19.64,43.82 -43.84,43.85z"/>
   <path fill="#4B56F7" d="M241.3 111.92l-19.36 -11.18c-1.56,-0.9 -3.48,-0.9 -5.04,0l-19.36 11.18c-1.56,0.9 -2.52,2.56 -2.52,4.36l0 22.36c0,1.8 0.96,3.46 2.52,4.36l19.36 11.18c1.56,0.9 3.47,0.9 5.04,0l19.36 -11.18c1.56,-0.9 2.52,-2.56 2.52,-4.37l0 -22.36c0,-1.8 -0.96,-3.46 -2.52,-4.36zm-7.56 23.81l-14.32 8.27 -14.32 -8.27 0 -16.54 14.32 -8.27 14.32 8.27 0 16.54z"/>
  </g>
 </g>
</svg>
