<?xml version="1.0" encoding="UTF-8"?>
<!DOCTYPE svg PUBLIC "-//W3C//DTD SVG 1.1//EN" "http://www.w3.org/Graphics/SVG/1.1/DTD/svg11.dtd">
<!-- Creator: CorelDRAW -->
<svg xmlns="http://www.w3.org/2000/svg" xml:space="preserve" width="6.9346mm" height="7.9662mm" version="1.1" shape-rendering="geometricPrecision" text-rendering="geometricPrecision" image-rendering="optimizeQuality" fill-rule="evenodd" clip-rule="evenodd"
viewBox="0 0 63.61 73.07"
 xmlns:xlink="http://www.w3.org/1999/xlink"
 xmlns:xodm="http://www.corel.com/coreldraw/odm/2003">
 <g id="blockchain.eps">
  <metadata id="CorelCorpID_0Corel-Layer"/>
  <g id="blockchain.eps_0">
   <path fill="#26B9C8" fill-rule="nonzero" d="M20.38 42.43c0,0.43 0.23,0.84 0.61,1.05l10.2 5.89c0.38,0.22 0.84,0.22 1.22,0l10.2 -5.89c0.38,-0.22 0.61,-0.62 0.61,-1.05l0 -11.78c0,-0.43 -0.24,-0.84 -0.61,-1.05l-10.2 -5.89c-0.38,-0.22 -0.84,-0.22 -1.22,0l-10.2 5.89c-0.38,0.22 -0.61,0.63 -0.61,1.05l0 11.78zm2.44 -9.67l7.77 4.49 0 8.97 -7.77 -4.49 0 -8.97zm10.2 13.46l0 -8.97 7.77 -4.49 0 8.97 -7.77 4.49zm-1.22 -20.05l7.77 4.49 -7.77 4.49 -7.77 -4.49 7.77 -4.49z"/>
   <path fill="#26B9C8" fill-rule="nonzero" d="M63 25.82c0.38,-0.22 0.61,-0.62 0.61,-1.05l0 -5.89c0,-0.43 -0.23,-0.84 -0.61,-1.05l-5.1 -2.95c-0.38,-0.22 -0.84,-0.22 -1.22,0l-4.49 2.59 -14.06 -8.12 0 -5.19c0,-0.43 -0.23,-0.84 -0.61,-1.05l-5.1 -2.95c-0.38,-0.22 -0.84,-0.22 -1.22,0l-5.1 2.95c-0.38,0.22 -0.61,0.62 -0.61,1.05l0 5.89c0,0.43 0.23,0.84 0.61,1.05l5.1 2.95c0.38,0.22 0.84,0.22 1.22,0l4.49 -2.59 14.06 8.12 0 5.19c0,0.43 0.23,0.84 0.61,1.05l4.49 2.59 0 16.24 -4.49 2.59c-0.38,0.22 -0.61,0.62 -0.61,1.05l0 5.19 -10.06 5.81c-0.58,0.34 -0.78,1.08 -0.45,1.66 0.34,0.59 1.08,0.78 1.66,0.45l10.06 -5.81 4.49 2.59c0.38,0.22 0.84,0.22 1.22,0l5.1 -2.95c0.38,-0.22 0.61,-0.62 0.61,-1.05l0 -5.89c0,-0.43 -0.23,-0.84 -0.61,-1.05l-4.49 -2.59 0 -16.24 4.49 -2.59zm-27.31 -16.47l-3.88 2.24 -3.88 -2.24 0 -4.49 3.88 -2.24 3.88 2.24 0 4.49 -0 0zm17.72 10.23l3.88 -2.24 3.88 2.24 0 4.48 -3.88 2.24 -3.88 -2.24 0 -4.48zm7.77 33.91l-3.88 2.24 -3.88 -2.24 0 -4.48 3.88 -2.24 3.88 2.24 0 4.48z"/>
   <path fill="#26B9C8" fill-rule="nonzero" d="M37.52 61.96l-5.1 -2.95c-0.38,-0.22 -0.84,-0.22 -1.22,0l-4.49 2.59 -14.06 -8.12 0 -5.19c0,-0.43 -0.23,-0.84 -0.61,-1.05l-4.49 -2.59 0 -16.24 4.49 -2.59c0.38,-0.22 0.61,-0.62 0.61,-1.05l0 -5.19 9.57 -5.52c0.58,-0.34 0.78,-1.08 0.45,-1.66 -0.34,-0.58 -1.08,-0.78 -1.66,-0.45l-9.57 5.52 -4.49 -2.59c-0.38,-0.22 -0.84,-0.22 -1.22,0l-5.1 2.95c-0.38,0.22 -0.61,0.62 -0.61,1.05l0 5.89c0,0.43 0.23,0.84 0.61,1.05l4.49 2.59 0 16.24 -4.49 2.59c-0.38,0.22 -0.61,0.62 -0.61,1.05l0 5.89c0,0.43 0.23,0.84 0.61,1.05l5.1 2.95c0.38,0.22 0.84,0.22 1.22,0l4.49 -2.59 14.06 8.12 0 5.19c0,0.43 0.23,0.84 0.61,1.05l5.1 2.95c0.38,0.22 0.84,0.22 1.22,0l5.1 -2.95c0.38,-0.22 0.61,-0.62 0.61,-1.05l0 -5.89c0,-0.43 -0.23,-0.84 -0.61,-1.05zm-35.08 -42.38l3.88 -2.24 3.88 2.24 0 4.48 -3.88 2.24 -3.88 -2.24 0 -4.48zm7.77 33.91l-3.88 2.24 -3.88 -2.24 0 -4.48 3.88 -2.24 3.88 2.24 0 4.48zm25.48 14.71l-3.88 2.24 -3.88 -2.24 0 -4.49 3.88 -2.24 3.88 2.24 0 4.49 -0 0z"/>
   <path fill="#26B9C8" fill-rule="nonzero" d="M48.34 32.19c0.17,0.65 0.84,1.04 1.49,0.87 0.65,-0.17 1.04,-0.84 0.87,-1.49 -2.25,-8.58 -10.02,-14.57 -18.89,-14.57 -10.77,0 -19.53,8.76 -19.53,19.53 0,10.77 8.76,19.53 19.53,19.53 9.84,0 18.18,-7.36 19.38,-17.11 0.08,-0.67 -0.39,-1.27 -1.06,-1.36 -0.67,-0.08 -1.28,0.39 -1.36,1.06 -1.05,8.54 -8.35,14.98 -16.96,14.98 -9.43,0 -17.09,-7.67 -17.09,-17.09 0,-9.43 7.67,-17.09 17.09,-17.09 7.77,0 14.57,5.24 16.54,12.75z"/>
  </g>
 </g>
</svg>
