<?xml version="1.0" encoding="UTF-8"?>
<!DOCTYPE svg PUBLIC "-//W3C//DTD SVG 1.1//EN" "http://www.w3.org/Graphics/SVG/1.1/DTD/svg11.dtd">
<!-- Creator: CorelDRAW -->
<svg xmlns="http://www.w3.org/2000/svg" xml:space="preserve" width="7.7566mm" height="7.7568mm" version="1.1" shape-rendering="geometricPrecision" text-rendering="geometricPrecision" image-rendering="optimizeQuality" fill-rule="evenodd" clip-rule="evenodd"
viewBox="0 0 107.68 107.68"
 xmlns:xlink="http://www.w3.org/1999/xlink"
 xmlns:xodm="http://www.corel.com/coreldraw/odm/2003">
 <g id="team-leader.eps">
  <metadata id="CorelCorpID_0Corel-Layer"/>
  <g id="team-leader.eps_0">
   <path fill="#2F8778" fill-rule="nonzero" d="M53.84 0c-3.99,0 -7.18,3.23 -7.18,7.17 0,3.94 3.2,7.19 7.18,7.19 3.99,0 7.18,-3.24 7.18,-7.19 0,-3.94 -3.2,-7.17 -7.18,-7.17zm0 3.59c1.96,0 3.59,1.58 3.59,3.58 0,2 -1.62,3.6 -3.59,3.6 -1.97,0 -3.59,-1.59 -3.59,-3.6 0,-2 1.63,-3.58 3.59,-3.58zm-12.07 7.18l-24.03 11.09c-2.17,0.95 -0.71,4.27 1.5,3.26l24.03 -11.09c1.68,-0.75 1.24,-3.3 -0.63,-3.43 -0.3,-0.02 -0.6,0.04 -0.87,0.17zm46.66 14.35c2.22,1.01 3.67,-2.31 1.5,-3.26l-24.03 -11.09c-0.27,-0.13 -0.57,-0.19 -0.87,-0.17 -1.88,0.13 -2.31,2.68 -0.63,3.43l24.03 11.09zm-39.3 -4.64c-1.34,0.65 -1.84,1.65 -2.13,2.36 -0.3,0.71 -0.41,1.11 -0.78,1.56 -0.37,0.45 -1.05,1.04 -2.61,1.7 -1.57,0.66 -2.48,0.76 -3.09,0.71 -0.6,-0.04 -0.97,-0.22 -1.65,-0.49 -0.69,-0.27 -1.76,-0.61 -3.09,-0.17 -1.2,0.4 -2.38,1.35 -3.7,2.68 -1.42,1.44 -2.28,2.63 -2.63,3.72 -0.42,1.32 -0.04,2.39 0.24,3.07 0.28,0.68 0.47,1.05 0.52,1.64 0.05,0.6 -0.03,1.52 -0.66,3.09 -0.64,1.57 -1.21,2.28 -1.67,2.67 -0.45,0.39 -0.84,0.51 -1.51,0.8 -0.87,0.37 -1.74,0.88 -2.32,2 -0.53,1.02 -0.74,2.44 -0.73,4.42 -0.01,1.82 0.15,3.31 0.73,4.42 0.58,1.12 1.45,1.64 2.32,2 0.67,0.28 1.04,0.4 1.49,0.79 0.45,0.39 1.05,1.11 1.69,2.68 0.63,1.54 0.71,2.45 0.66,3.05 -0.05,0.6 -0.22,0.96 -0.49,1.6 -0.33,0.78 -0.63,1.75 -0.32,2.94 0.23,0.87 0.69,1.68 1.44,2.58 -1.22,2 -2.18,4.14 -2.85,6.44 -1.3,-1.91 -3,-3.43 -5.02,-4.54 1.34,-1.57 2.14,-3.6 2.14,-5.82 0,-4.93 -3.99,-8.98 -8.97,-8.98 -4.98,0 -8.98,4.04 -8.98,8.98 0,2.22 0.81,4.25 2.16,5.82 -4.51,2.43 -7.53,7.19 -7.53,12.68l0 2.11c0,4.5 3.63,8.11 8.07,8.11l12.56 0c1.66,0 3.21,-0.5 4.49,-1.37l0 6.76c0,2.15 0.68,4.26 2.32,5.65 1.64,1.39 4.05,1.82 6.8,1.29 0.04,-0.01 0.08,-0.02 0.12,-0.03l17.67 -4.76 17.74 4.77c2.81,0.55 5.14,0.17 6.86,-1.27 1.64,-1.38 2.32,-3.49 2.32,-5.63l0 -6.78c1.29,0.87 2.83,1.36 4.49,1.36l12.56 0c4.45,0 8.07,-3.61 8.07,-8.11l0 -2.11c0,-5.49 -3.02,-10.25 -7.53,-12.68 1.35,-1.57 2.16,-3.6 2.16,-5.82 0,-4.93 -4,-8.98 -8.98,-8.98 -4.98,0 -8.97,4.04 -8.97,8.98 0,2.22 0.8,4.25 2.14,5.82 -2.01,1.08 -3.73,2.63 -5.03,4.54 -0.67,-2.31 -1.62,-4.46 -2.85,-6.46 0.75,-0.91 1.21,-1.69 1.44,-2.57 0.31,-1.19 0.01,-2.16 -0.32,-2.94 -0.27,-0.65 -0.44,-1.01 -0.49,-1.6 -0.05,-0.6 0.03,-1.51 0.66,-3.05 0.64,-1.57 1.24,-2.29 1.69,-2.68 0.45,-0.39 0.82,-0.51 1.49,-0.79 0.87,-0.37 1.74,-0.88 2.32,-2 0.58,-1.11 0.74,-2.6 0.72,-4.42 0.01,-1.98 -0.2,-3.41 -0.72,-4.42 -0.58,-1.12 -1.45,-1.63 -2.32,-2 -0.67,-0.28 -1.06,-0.4 -1.51,-0.8 -0.45,-0.39 -1.03,-1.1 -1.67,-2.67 -0.64,-1.57 -0.71,-2.49 -0.66,-3.09 0.05,-0.6 0.24,-0.96 0.52,-1.64 0.28,-0.68 0.66,-1.75 0.24,-3.07 -0.34,-1.09 -1.2,-2.28 -2.63,-3.72 -1.31,-1.33 -2.49,-2.28 -3.69,-2.68 -1.33,-0.44 -2.4,-0.1 -3.09,0.17 -0.69,0.27 -1.05,0.45 -1.65,0.49 -0.61,0.04 -1.52,-0.05 -3.09,-0.71 -1.56,-0.66 -2.24,-1.24 -2.61,-1.7 -0.37,-0.45 -0.49,-0.85 -0.78,-1.56 -0.3,-0.71 -0.79,-1.71 -2.13,-2.36 -1.16,-0.56 -2.56,-0.74 -4.7,-0.74 -2.15,0 -3.54,0.18 -4.7,0.74zm-41.96 1.06c-3.98,0 -7.18,3.23 -7.18,7.17 0,3.94 3.19,7.19 7.18,7.19 3.99,0 7.18,-3.24 7.18,-7.19 0,-3.94 -3.2,-7.17 -7.18,-7.17zm93.32 0c-3.99,0 -7.18,3.23 -7.18,7.17 0,3.94 3.2,7.19 7.18,7.19 3.99,0 7.18,-3.24 7.18,-7.19 0,-3.94 -3.19,-7.17 -7.18,-7.17zm-43.52 2.17c0.25,0.12 0.27,0.31 0.38,0.53 0.2,0.48 0.51,1.45 1.31,2.44 0.81,0.99 2.04,1.93 3.98,2.74 1.93,0.82 3.47,1.08 4.74,0.99 1.27,-0.09 2.21,-0.53 2.72,-0.73 0.3,-0.12 0.45,-0.18 0.65,-0.12 0.26,0.08 0.91,0.42 2.27,1.79 1.29,1.31 1.67,2.02 1.75,2.28 0.05,0.21 -0.03,0.4 -0.13,0.63 -0.17,0.41 -0.66,1.42 -0.77,2.69 -0.11,1.27 0.12,2.82 0.91,4.76 0.79,1.94 1.68,3.21 2.65,4.04 0.96,0.83 1.95,1.18 2.45,1.39 0.28,0.12 0.42,0.13 0.53,0.34 0.11,0.21 0.36,0.91 0.34,2.77 0.01,1.74 -0.19,2.48 -0.34,2.77 -0.11,0.21 -0.31,0.25 -0.53,0.34 -0.5,0.21 -1.49,0.56 -2.45,1.39 -0.97,0.83 -1.86,2.1 -2.65,4.04 -0.77,1.9 -1.01,3.42 -0.91,4.68 0.1,1.26 0.51,2.11 0.75,2.7 0.11,0.3 0.21,0.46 0.16,0.66 -0.01,0.05 -0.09,0.25 -0.16,0.38 -2.66,-3.22 -6.08,-5.83 -9.97,-7.53 2.21,-2.53 3.53,-5.82 3.53,-9.43 0,-7.91 -6.45,-14.36 -14.36,-14.36 -7.91,0 -14.36,6.45 -14.36,14.36 0,3.61 1.32,6.9 3.53,9.43 -3.89,1.7 -7.31,4.31 -9.96,7.53 -0.07,-0.13 -0.15,-0.32 -0.16,-0.38 -0.05,-0.2 0.05,-0.37 0.16,-0.66 0.25,-0.59 0.66,-1.45 0.75,-2.7 0.1,-1.25 -0.14,-2.77 -0.91,-4.68 -0.79,-1.94 -1.69,-3.21 -2.65,-4.04 -0.96,-0.83 -1.95,-1.18 -2.45,-1.39 -0.22,-0.09 -0.42,-0.13 -0.53,-0.34 -0.15,-0.28 -0.36,-1.02 -0.34,-2.77 -0.02,-1.85 0.23,-2.56 0.34,-2.77 0.11,-0.21 0.24,-0.22 0.53,-0.34 0.51,-0.21 1.49,-0.56 2.45,-1.39 0.96,-0.83 1.86,-2.1 2.65,-4.04 0.79,-1.94 1.02,-3.49 0.91,-4.76 -0.11,-1.27 -0.6,-2.28 -0.77,-2.69 -0.1,-0.23 -0.19,-0.42 -0.13,-0.63 0.08,-0.25 0.46,-0.97 1.75,-2.28 1.36,-1.37 2.01,-1.71 2.27,-1.79 0.2,-0.07 0.35,0 0.65,0.12 0.51,0.2 1.45,0.64 2.72,0.73 1.27,0.09 2.81,-0.18 4.74,-0.99 1.94,-0.82 3.18,-1.76 3.99,-2.74 0.81,-0.99 1.11,-1.96 1.31,-2.44 0.12,-0.22 0.14,-0.41 0.39,-0.53 0.29,-0.14 1.23,-0.37 3.14,-0.37 1.91,0 2.85,0.23 3.14,0.37zm-49.8 1.42c1.96,0 3.59,1.58 3.59,3.58 0,2 -1.62,3.6 -3.59,3.6 -1.97,0 -3.59,-1.59 -3.59,-3.6 0,-2 1.63,-3.58 3.59,-3.58zm93.32 0c1.96,0 3.59,1.58 3.59,3.58 0,2 -1.62,3.6 -3.59,3.6 -1.97,0 -3.59,-1.59 -3.59,-3.6 0,-2 1.63,-3.58 3.59,-3.58zm-90.09 13.69c-1.23,-0.08 -2.18,1.09 -1.84,2.28l3.15 11.95c0.55,2.41 4.17,1.46 3.47,-0.91l-3.16 -11.95c-0.18,-0.76 -0.85,-1.32 -1.63,-1.37zm86.86 0c-0.78,0.05 -1.44,0.6 -1.63,1.37l-3.15 11.95c-0.71,2.37 2.92,3.32 3.47,0.91l3.16 -11.95c0.33,-1.19 -0.61,-2.36 -1.84,-2.28zm-43.43 0.67c5.91,0 10.77,4.8 10.77,10.77 0,5.97 -4.84,10.77 -10.77,10.77 -5.93,0 -10.77,-4.8 -10.77,-10.77 0,-5.97 4.85,-10.77 10.77,-10.77zm-37.69 21.53c2.95,0 5.38,2.39 5.38,5.39 0,2.99 -2.42,5.38 -5.38,5.38 -2.96,0 -5.39,-2.39 -5.39,-5.38 0,-2.99 2.44,-5.39 5.39,-5.39zm75.37 0c2.95,0 5.39,2.39 5.39,5.39 0,2.99 -2.43,5.38 -5.39,5.38 -2.96,0 -5.38,-2.39 -5.38,-5.38 0,-2.99 2.42,-5.39 5.38,-5.39zm-50.25 29.53l0 -6.21c-0.05,-2.34 -3.54,-2.34 -3.59,0l0 7.14 -0.45 0.12c-2.32,0.59 -1.44,4.08 0.89,3.48l27.13 -6.97c2.07,-0.53 4.08,0.67 4.61,2.64 0.53,1.99 -0.62,4.06 -2.66,4.61l-31.86 8.58c-0.01,0 -0.01,-0 -0.01,0 -2.04,0.39 -3.13,0.03 -3.77,-0.51 -0.64,-0.54 -1.04,-1.48 -1.04,-2.91l0 -16.16c0,-10.23 6.52,-18.86 15.55,-22.02 2.23,1.44 4.91,2.28 7.77,2.28 2.85,0 5.53,-0.84 7.76,-2.28 9.09,3.18 15.57,11.79 15.57,22.02l0 16.19c0,1.41 -0.4,2.35 -1.05,2.89 -0.64,0.54 -1.74,0.9 -3.77,0.51l-11.6 -3.12 7.39 -1.99c3.9,-1.05 6.25,-5.05 5.2,-9 -0.52,-1.95 -1.76,-3.48 -3.34,-4.41l0 -1.07c-0.05,-2.34 -3.54,-2.32 -3.59,0.06 -0.54,-0.04 -1.36,0.05 -2.04,0.22l-23.08 5.93zm19.74 -16.96c-2.34,0.05 -2.34,3.54 0,3.59l5.38 0c2.34,-0.05 2.34,-3.54 0,-3.59l-5.38 0zm-48.35 1.09c1,0.44 2.26,0.7 3.48,0.7 1.22,0 2.43,-0.27 3.48,-0.7 4.26,1.43 7.28,5.5 7.28,10.24l0 2.11c0,2.5 -1.98,4.52 -4.49,4.52l-12.56 0c-2.51,0 -4.48,-2.04 -4.48,-4.52l0 -2.11c0,-4.74 3.02,-8.8 7.29,-10.24zm75.37 0c1.01,0.44 2.27,0.71 3.48,0.71 1.22,0 2.44,-0.25 3.48,-0.71 4.26,1.43 7.29,5.5 7.29,10.24l0 2.11c0,2.48 -1.97,4.52 -4.48,4.52l-12.56 0c-2.51,0 -4.49,-2.04 -4.49,-4.52l0 -2.11c0,-4.73 3.02,-8.8 7.28,-10.24z"/>
  </g>
 </g>
</svg>
