<?xml version="1.0" encoding="UTF-8"?>
<!DOCTYPE svg PUBLIC "-//W3C//DTD SVG 1.1//EN" "http://www.w3.org/Graphics/SVG/1.1/DTD/svg11.dtd">
<!-- Creator: CorelDRAW -->
<svg xmlns="http://www.w3.org/2000/svg" xml:space="preserve" width="8.2934mm" height="8.8191mm" version="1.1" shape-rendering="geometricPrecision" text-rendering="geometricPrecision" image-rendering="optimizeQuality" fill-rule="evenodd" clip-rule="evenodd"
viewBox="0 0 823.26 875.45"
 xmlns:xlink="http://www.w3.org/1999/xlink"
 xmlns:xodm="http://www.corel.com/coreldraw/odm/2003">
 <g id="technology.eps">
  <metadata id="CorelCorpID_0Corel-Layer"/>
  <g id="technology.eps_0">
   <path fill="#727271" fill-rule="nonzero" d="M461.19 385.17c-11.35,0 -20.6,9.25 -20.6,20.61l0 65.01c0,11.37 9.25,20.61 20.6,20.61l65.02 0c11.36,0 20.6,-9.24 20.6,-20.61l0 -65.01c0,-11.36 -9.24,-20.61 -20.6,-20.61l-65.02 0zm59.98 80.59l-54.92 0 0 -54.93 54.92 0 0 54.93z"/>
   <path fill="#727271" fill-rule="nonzero" d="M647.8 85.62l0 -65.01c0,-11.37 -9.24,-20.61 -20.61,-20.61l-65.01 0c-11.37,0 -20.61,9.24 -20.61,20.61l0 65.01c0,11.36 9.24,20.61 20.61,20.61l65.01 0c11.37,0 20.61,-9.25 20.61,-20.61zm-25.65 -5.04l-54.92 0 0 -54.93 54.92 0 0 54.93z"/>
   <path fill="#727271" fill-rule="nonzero" d="M764.96 308.01l-65.01 0c-11.37,0 -20.61,9.25 -20.61,20.62l0 65.01c0,11.36 9.24,20.61 20.61,20.61l65.01 0c11.36,0 20.61,-9.25 20.61,-20.61l0 -65.01c0,-11.37 -9.25,-20.62 -20.61,-20.62zm-5.04 80.59l-54.93 0 0 -54.93 54.93 0 0 54.93z"/>
   <path fill="#727271" fill-rule="nonzero" d="M802.66 103.28l-113.16 0c-11.36,0 -20.61,9.23 -20.61,20.6l0 113.16c0,11.36 9.25,20.61 20.61,20.61l113.16 0c11.37,0 20.61,-9.25 20.61,-20.61l0 -113.16c0,-11.36 -9.24,-20.6 -20.61,-20.6zm-5.04 128.72l-103.07 0 0 -103.08 103.07 0 0 103.08z"/>
   <path fill="#727271" fill-rule="nonzero" d="M345.19 447.66c-45.63,0 -82.75,37.14 -82.75,82.76 0,45.62 37.12,82.76 82.75,82.76 45.62,0 82.75,-37.14 82.75,-82.76 0,-45.62 -37.12,-82.76 -82.75,-82.76zm0 139.87c-31.49,0 -57.1,-25.62 -57.1,-57.11 0,-31.49 25.61,-57.1 57.1,-57.1 31.49,0 57.11,25.61 57.11,57.1 0,31.49 -25.62,57.11 -57.11,57.11z"/>
   <path fill="#727271" fill-rule="nonzero" d="M638.67 327.61l0 -126.84c0,-11.36 -9.24,-20.61 -20.61,-20.61l-33.74 0c-7.08,0 -12.83,5.75 -12.83,12.83 0,7.09 5.75,12.83 12.83,12.83l28.71 0 0 116.75 -116.77 0 0 -116.75 28.21 0c7.09,0 12.83,-5.74 12.83,-12.83 0,-7.08 -5.74,-12.83 -12.83,-12.83l-33.24 0c-11.37,0 -20.61,9.25 -20.61,20.61l0 126.84c0,11.37 9.24,20.61 20.61,20.61l126.83 0c11.37,-0.01 20.61,-9.24 20.61,-20.61z"/>
   <path fill="#727271" fill-rule="nonzero" d="M659.69 457.27l-69.87 0c-11.77,0 -21.35,9.59 -21.35,21.36l0 38.81 -42.25 0c-11.43,0 -20.79,8.97 -21.32,20.43 -4.05,86.21 -74.74,153.39 -161.97,152.25 -85.7,-1.19 -156.4,-71.89 -157.59,-157.58 -1.24,-89.44 70.73,-162.16 159.86,-162.16 15.49,0 30.8,2.22 45.52,6.58 13.73,4.06 27.46,-6.14 27.46,-20.45l0 -44.44c0,-7.09 -5.74,-12.83 -12.83,-12.83 -7.08,0 -12.82,5.74 -12.82,12.83l0 38.77c-15.4,-4.05 -31.29,-6.1 -47.34,-6.1 -103.37,0 -186.95,84.33 -185.5,188.16 1.39,100.01 82.82,181.47 182.87,182.86 98.88,1.5 181.04,-74.94 187.71,-172.68l42.49 0c11.77,0 21.35,-9.58 21.35,-21.35l0 -38.8 65.58 0c2.78,0 5.04,2.26 5.04,5.05l0 84.57c0,2.79 -2.26,5.05 -5.04,5.05l-45.51 0c-13.58,0 -25.7,9.11 -29.47,22.16 -5.09,17.56 -12.16,34.6 -21.01,50.66 -6.57,11.92 -4.45,26.95 5.16,36.56l32.19 32.19c1.97,1.97 1.97,5.18 0,7.15l-59.8 59.8c-1.98,1.97 -5.18,1.97 -7.15,0l-32.19 -32.19c-9.6,-9.61 -24.63,-11.73 -36.55,-5.16 -16.06,8.85 -33.11,15.92 -50.66,21 -13.06,3.78 -22.17,15.9 -22.17,29.47l0 45.52c0,2.77 -2.26,5.04 -5.05,5.04l-84.58 0c-2.78,0 -5.05,-2.27 -5.05,-5.04l0 -45.52c0,-13.57 -9.1,-25.69 -22.17,-29.47 -17.55,-5.08 -34.59,-12.16 -50.66,-21 -11.91,-6.57 -26.94,-4.45 -36.55,5.16l-32.19 32.19c-1.98,1.97 -5.18,1.97 -7.15,0l-59.8 -59.8c-1.97,-1.97 -1.97,-5.18 0,-7.15l32.2 -32.19c9.6,-9.61 11.71,-24.64 5.15,-36.56 -8.85,-16.05 -15.92,-33.1 -21,-50.66 -3.78,-13.05 -15.9,-22.16 -29.48,-22.16l-45.51 0c-2.78,0 -5.05,-2.26 -5.05,-5.05l0 -84.58c0,-2.78 2.27,-5.05 5.05,-5.05l45.51 0c13.58,0 25.7,-9.11 29.48,-22.17 5.08,-17.55 12.15,-34.59 21,-50.66 6.56,-11.91 4.45,-26.94 -5.16,-36.55l-32.19 -32.19c-1.97,-1.98 -1.97,-5.18 0,-7.15l59.8 -59.8c1.29,-1.29 2.79,-1.48 3.57,-1.48 0.78,0 2.28,0.19 3.57,1.48l32.19 32.19c9.61,9.61 24.64,11.73 36.55,5.16 16.06,-8.85 33.11,-15.92 50.67,-21 13.05,-3.78 22.16,-15.9 22.16,-29.48l0 -45.51c0,-2.78 2.27,-5.04 5.05,-5.04l84.58 0c2.79,0 5.05,2.26 5.05,5.04l0 36.46c0,7.09 5.74,12.83 12.82,12.83 7.09,0 12.83,-5.74 12.83,-12.83l0 -36.46c0,-16.92 -13.77,-30.69 -30.69,-30.69l-84.58 0c-16.93,0 -30.69,13.78 -30.69,30.69l0 45.51c0,2.23 -1.5,4.22 -3.65,4.84 -19.39,5.62 -38.19,13.42 -55.91,23.19 -2.01,1.1 -4.43,0.76 -6.04,-0.84l-32.19 -32.19c-5.81,-5.8 -13.51,-8.99 -21.71,-8.99 -8.2,0 -15.9,3.2 -21.71,8.99l-59.8 59.81c-11.96,11.96 -11.96,31.44 0,43.41l32.19 32.19c1.61,1.61 1.95,4.03 0.84,6.04 -9.77,17.72 -17.57,36.53 -23.18,55.91 -0.63,2.15 -2.62,3.64 -4.85,3.64l-45.51 0c-16.92,0 -30.69,13.78 -30.69,30.7l0 84.58c0,16.93 13.78,30.69 30.69,30.69l45.51 0c2.23,0 4.23,1.51 4.85,3.65 5.61,19.38 13.41,38.19 23.18,55.91 1.1,2.01 0.76,4.43 -0.84,6.04l-32.19 32.2c-11.96,11.96 -11.96,31.44 0,43.41l59.8 59.8c11.97,11.96 31.45,11.96 43.42,0l32.19 -32.2c1.61,-1.6 4.03,-1.93 6.04,-0.82 17.72,9.77 36.52,17.56 55.91,23.18 2.15,0.63 3.65,2.62 3.65,4.84l0 45.51c0,16.93 13.77,30.69 30.69,30.69l84.58 0c16.93,0 30.69,-13.77 30.69,-30.69l0 -45.51c0,-2.22 1.51,-4.22 3.65,-4.84 19.38,-5.61 38.19,-13.41 55.91,-23.18 2.01,-1.1 4.44,-0.76 6.04,0.82l32.2 32.2c11.96,11.96 31.45,11.96 43.41,0l59.8 -59.81c11.97,-11.96 11.97,-31.44 0,-43.4l-32.19 -32.2c-1.61,-1.61 -1.94,-4.03 -0.83,-6.04 9.77,-17.72 17.57,-36.53 23.18,-55.91 0.63,-2.14 2.62,-3.65 4.84,-3.65l45.51 0c16.93,0 30.69,-13.77 30.69,-30.69l0 -84.58c0,-16.93 -13.77,-30.7 -30.69,-30.7z"/>
  </g>
 </g>
</svg>
