<?xml version="1.0" encoding="UTF-8"?>
<!DOCTYPE svg PUBLIC "-//W3C//DTD SVG 1.1//EN" "http://www.w3.org/Graphics/SVG/1.1/DTD/svg11.dtd">
<!-- Creator: CorelDRAW -->
<svg xmlns="http://www.w3.org/2000/svg" xml:space="preserve" width="5.8584mm" height="5.7609mm" version="1.1" shape-rendering="geometricPrecision" text-rendering="geometricPrecision" image-rendering="optimizeQuality" fill-rule="evenodd" clip-rule="evenodd"
viewBox="0 0 585.84 576.09"
 xmlns:xlink="http://www.w3.org/1999/xlink"
 xmlns:xodm="http://www.corel.com/coreldraw/odm/2003"
 enable-background="new 0 0 512 512">
 <g id="letter.svg">
  <metadata id="CorelCorpID_0Corel-Layer"/>
  <g id="letter.svg_0">
   <g>
    <g id="Page-1_7_">
     <g id="_3008---Letter">
      <path id="Shape_16_" fill="#0000F8" fill-rule="nonzero" d="M39.06 576.09l507.72 0c21.57,0 39.06,-17.49 39.06,-39.06l0 -302.68c0,-2.9 -1.28,-5.64 -3.51,-7.5l-74.6 -62.29 0 -66.9c0,-16.18 -13.12,-29.3 -29.29,-29.3l-86 0 -68.35 -57.1c-18.05,-15.01 -44.23,-15.01 -62.29,0l-68.39 57.1 -86 0c-16.18,0 -29.29,13.12 -29.29,29.3l0 66.9 -74.61 62.29c-2.22,1.86 -3.51,4.6 -3.5,7.5l0 302.68c0,21.57 17.48,39.06 39.05,39.06zm507.72 -19.53l-507.72 0c-10.78,0 -19.53,-8.74 -19.53,-19.53l0 -281.99 176.42 145.3 -144.93 119.39c-4.16,3.44 -4.75,9.6 -1.31,13.76 3.44,4.17 9.6,4.75 13.76,1.32l217.03 -178.8c7.22,-5.96 17.65,-5.96 24.86,0l217.01 178.8c4.17,3.34 10.26,2.71 13.65,-1.41 3.4,-4.13 2.85,-10.22 -1.24,-13.67l-144.89 -119.39 176.42 -145.3 0 281.99c0,10.79 -8.74,19.53 -19.52,19.53l-0.01 0zm14 -322.21l-53.05 43.65 0 -88.01 53.05 44.36zm-286.51 -208.08c10.81,-8.98 26.48,-8.98 37.29,0l50.42 42.09 -138.12 0 50.41 -42.09zm-166.86 61.62l371.03 0c5.39,0 9.76,4.37 9.76,9.77l0 196.42 -113.67 93.62 -56.73 -46.73c-14.43,-11.92 -35.3,-11.92 -49.74,0l-56.75 46.75 -113.67 -93.64 0 -196.42c0,-5.4 4.38,-9.77 9.77,-9.77l0 0zm-29.29 190.11l-53.05 -43.65 53.05 -44.36 0 88.01z"/>
      <path id="Path_10_" fill="#9191FF" fill-rule="nonzero" d="M237.2 280.31c3.61,3.6 9.38,3.82 13.25,0.51l136.7 -117.17c2.8,-2.22 4.16,-5.8 3.55,-9.32 -0.61,-3.52 -3.1,-6.43 -6.49,-7.58 -3.39,-1.14 -7.13,-0.35 -9.76,2.08l-129.86 111.31 -32.67 -32.66c-3.83,-3.7 -9.92,-3.65 -13.68,0.12 -3.77,3.76 -3.82,9.85 -0.12,13.68l39.08 39.03z"/>
     </g>
    </g>
   </g>
  </g>
 </g>
</svg>
