<?xml version="1.0" encoding="UTF-8"?>
<!DOCTYPE svg PUBLIC "-//W3C//DTD SVG 1.1//EN" "http://www.w3.org/Graphics/SVG/1.1/DTD/svg11.dtd">
<!-- Creator: CorelDRAW -->
<svg xmlns="http://www.w3.org/2000/svg" xml:space="preserve" width="2.4936mm" height="2.3779mm" version="1.1" shape-rendering="geometricPrecision" text-rendering="geometricPrecision" image-rendering="optimizeQuality" fill-rule="evenodd" clip-rule="evenodd"
viewBox="0 0 9.84 9.39"
 xmlns:xlink="http://www.w3.org/1999/xlink"
 xmlns:xodm="http://www.corel.com/coreldraw/odm/2003">
 <g id="_x0020_3">
  <metadata id="CorelCorpID_0Corel-Layer"/>
  <path fill="#0000F8" fill-rule="nonzero" d="M8.39 9.39l-3.47 0c-2.71,0 -4.92,-2.11 -4.92,-4.69 0,-2.59 2.21,-4.69 4.92,-4.69 2.71,0 4.92,2.11 4.92,4.69 -0,1.12 -0.42,2.2 -1.17,3.03l0.28 0.28c0.23,0.23 0.3,0.58 0.17,0.88 -0.13,0.3 -0.42,0.5 -0.75,0.5l0 0zm-3.47 -8.68c-2.33,0 -4.22,1.79 -4.22,3.99 0,2.2 1.89,3.99 4.22,3.99l3.47 0c0.09,0 0.14,-0.11 0.08,-0.18l-0.53 -0.53c-0.07,-0.07 -0.1,-0.16 -0.1,-0.25 0,-0.09 0.04,-0.18 0.11,-0.25 0.76,-0.72 1.2,-1.73 1.2,-2.78 0,-2.2 -1.89,-3.99 -4.22,-3.99zm0.53 6.1l-1.05 0c-0.19,0 -0.35,-0.16 -0.35,-0.35 0,-0.19 0.16,-0.35 0.35,-0.35l1.05 0c0.19,0 0.35,0.16 0.35,0.35 0,0.19 -0.16,0.35 -0.35,0.35zm-0.53 0c-0.19,0 -0.35,-0.16 -0.35,-0.35l0 -2.16c-0.14,-0.08 -0.21,-0.24 -0.16,-0.4 0.04,-0.15 0.18,-0.26 0.34,-0.26l0.18 0c0.19,0 0.35,0.16 0.35,0.35l0 2.46c0,0.19 -0.16,0.35 -0.35,0.35zm0.53 -4.22c0,0.29 -0.24,0.53 -0.53,0.53 -0.29,0 -0.53,-0.24 -0.53,-0.53 0,-0.29 0.24,-0.53 0.53,-0.53 0.29,0 0.53,0.24 0.53,0.53z"/>
 </g>
</svg>
