<?xml version="1.0" encoding="UTF-8"?>
<!DOCTYPE svg PUBLIC "-//W3C//DTD SVG 1.1//EN" "http://www.w3.org/Graphics/SVG/1.1/DTD/svg11.dtd">
<!-- Creator: CorelDRAW -->
<svg xmlns="http://www.w3.org/2000/svg" xml:space="preserve" width="1.4402mm" height="1.4402mm" version="1.1" shape-rendering="geometricPrecision" text-rendering="geometricPrecision" image-rendering="optimizeQuality" fill-rule="evenodd" clip-rule="evenodd"
viewBox="0 0 4.68 4.68"
 xmlns:xlink="http://www.w3.org/1999/xlink"
 xmlns:xodm="http://www.corel.com/coreldraw/odm/2003">
 <g id="_x0020_7">
  <metadata id="CorelCorpID_0Corel-Layer"/>
  <g id="_1516077362240">
   <path fill="#0000F8" d="M4.21 2.34c0,1.03 -0.84,1.87 -1.87,1.87 -1.03,0 -1.87,-0.84 -1.87,-1.87 0,-1.03 0.84,-1.87 1.87,-1.87 0.19,0 0.35,0.02 0.51,0.07l0.37 -0.37c-0.28,-0.09 -0.59,-0.16 -0.89,-0.16 -1.29,0 -2.34,1.05 -2.34,2.34 0,1.29 1.05,2.34 2.34,2.34 1.29,0 2.34,-1.05 2.34,-2.34l-0.47 0z"/>
   <polygon fill="#00C5FF" points="1.38,1.9 1.05,2.22 2.11,3.28 4.45,0.94 4.12,0.61 2.11,2.62 "/>
  </g>
 </g>
</svg>
