<?xml version="1.0" encoding="UTF-8"?>
<!DOCTYPE svg PUBLIC "-//W3C//DTD SVG 1.1//EN" "http://www.w3.org/Graphics/SVG/1.1/DTD/svg11.dtd">
<!-- Creator: CorelDRAW -->
<svg xmlns="http://www.w3.org/2000/svg" xml:space="preserve" width="1.4504mm" height="1.4501mm" version="1.1" shape-rendering="geometricPrecision" text-rendering="geometricPrecision" image-rendering="optimizeQuality" fill-rule="evenodd" clip-rule="evenodd"
viewBox="0 0 22.19 22.18"
 xmlns:xlink="http://www.w3.org/1999/xlink"
 xmlns:xodm="http://www.corel.com/coreldraw/odm/2003">
 <g id="_x0020_3">
  <metadata id="CorelCorpID_0Corel-Layer"/>
  <path fill="#727271" fill-rule="nonzero" d="M8.93 17.85c1.98,0 3.91,-0.66 5.47,-1.88l5.9 5.9c0.44,0.43 1.14,0.41 1.57,-0.03 0.41,-0.43 0.41,-1.11 0,-1.54l-5.9 -5.9c3.02,-3.89 2.32,-9.5 -1.57,-12.52 -3.89,-3.02 -9.5,-2.32 -12.52,1.57 -3.02,3.89 -2.32,9.5 1.57,12.52 1.57,1.22 3.49,1.88 5.48,1.88zm-4.74 -13.67c2.62,-2.62 6.87,-2.62 9.49,-0 2.62,2.62 2.62,6.87 0,9.49 -2.62,2.62 -6.87,2.62 -9.48,0 0,0 0,0 -0,0 -2.62,-2.6 -2.63,-6.83 -0.03,-9.45 0.01,-0.01 0.02,-0.02 0.03,-0.03z"/>
 </g>
</svg>
