<?xml version="1.0" encoding="UTF-8"?>
<!DOCTYPE svg PUBLIC "-//W3C//DTD SVG 1.1//EN" "http://www.w3.org/Graphics/SVG/1.1/DTD/svg11.dtd">
<!-- Creator: CorelDRAW -->
<svg xmlns="http://www.w3.org/2000/svg" xml:space="preserve" width="1.595mm" height="1.595mm" version="1.1" shape-rendering="geometricPrecision" text-rendering="geometricPrecision" image-rendering="optimizeQuality" fill-rule="evenodd" clip-rule="evenodd"
viewBox="0 0 2.96 2.96"
 xmlns:xlink="http://www.w3.org/1999/xlink"
 xmlns:xodm="http://www.corel.com/coreldraw/odm/2003">
 <g id="_x0020_3">
  <metadata id="CorelCorpID_0Corel-Layer"/>
  <path fill="#0245FB" fill-rule="nonzero" d="M2.25 1.15l-0.72 0c-0.06,0 -0.1,-0.05 -0.1,-0.1 0,-0.06 0.05,-0.1 0.1,-0.1l0.72 0c0.06,0 0.1,0.05 0.1,0.1 0,0.06 -0.05,0.1 -0.1,0.1zm-1.44 0.1c-0.03,0 -0.05,-0.01 -0.07,-0.03l-0.1 -0.1c-0.04,-0.04 -0.04,-0.11 0,-0.15 0.04,-0.04 0.11,-0.04 0.15,0l0.03 0.03 0.24 -0.24c0.04,-0.04 0.11,-0.04 0.15,0 0.04,0.04 0.04,0.11 0,0.15l-0.31 0.31c-0.02,0.02 -0.05,0.03 -0.07,0.03zm1.44 0.86l-0.72 0c-0.06,0 -0.1,-0.05 -0.1,-0.1 0,-0.06 0.05,-0.1 0.1,-0.1l0.72 0c0.06,0 0.1,0.05 0.1,0.1 0,0.06 -0.05,0.1 -0.1,0.1zm-1.44 0.1c-0.03,0 -0.05,-0.01 -0.07,-0.03l-0.1 -0.1c-0.04,-0.04 -0.04,-0.11 0,-0.15 0.04,-0.04 0.11,-0.04 0.15,0l0.03 0.03 0.24 -0.24c0.04,-0.04 0.11,-0.04 0.15,0 0.04,0.04 0.04,0.11 0,0.15l-0.31 0.31c-0.02,0.02 -0.05,0.03 -0.07,0.03zm1.08 0.74l-0.83 0c-0.75,0 -1.07,-0.32 -1.07,-1.07l0 -0.83c0,-0.75 0.32,-1.07 1.07,-1.07l0.83 0c0.75,0 1.07,0.32 1.07,1.07l0 0.83c0,0.75 -0.32,1.07 -1.07,1.07zm-0.83 -2.75c-0.63,0 -0.86,0.23 -0.86,0.86l0 0.83c0,0.63 0.23,0.86 0.86,0.86l0.83 0c0.63,0 0.86,-0.23 0.86,-0.86l0 -0.83c0,-0.63 -0.23,-0.86 -0.86,-0.86l-0.83 0z"/>
 </g>
</svg>
