<?xml version="1.0" encoding="UTF-8"?>
<!DOCTYPE svg PUBLIC "-//W3C//DTD SVG 1.0//EN" "http://www.w3.org/TR/2001/REC-SVG-20010904/DTD/svg10.dtd">
<!-- Creator: CorelDRAW -->
<svg xmlns="http://www.w3.org/2000/svg" xml:space="preserve" width="94" height="89" version="1.0" shape-rendering="geometricPrecision" text-rendering="geometricPrecision" image-rendering="optimizeQuality" fill-rule="evenodd" clip-rule="evenodd"
viewBox="0 0 86.55 81.14"
 xmlns:xlink="http://www.w3.org/1999/xlink"
 xmlns:xodm="http://www.corel.com/coreldraw/odm/2003">
 <g id="Layer_x0020_1">
  <metadata id="CorelCorpID_0Corel-Layer"/>
  <g id="_2012454683024">
   <g id="_003-folder.eps">
    <path fill="#0000F8" fill-rule="nonzero" d="M71.34 15.21l0 -15.21 -56.12 0 0 15.21 -15.22 0 0 58.32c0,4.19 3.41,7.61 7.61,7.61l71.34 0c4.19,0 7.61,-3.41 7.61,-7.61 0,-2.26 0,-56.41 0,-58.32l-15.22 0zm-5.07 -10.14l0 20.29 -9.34 0 -5.07 10.14 -31.57 0 0 -30.43 45.98 0zm-56.12 68.47c0,1.4 -1.14,2.54 -2.54,2.54 -1.4,0 -2.54,-1.14 -2.54,-2.54l0 -53.25 10.14 0 0 15.22 -5.07 0 0 38.04zm71.34 0c0,1.4 -1.14,2.54 -2.54,2.54l-64.17 0c0.28,-0.79 0.43,-1.65 0.43,-2.54l0 -32.97 39.77 0 5.07 -10.14 21.42 0 0 43.11zm-10.14 -53.25l10.14 0 0 5.07 -10.14 0 0 -5.07z"/>
    <polygon fill="#0000F8" fill-rule="nonzero" points="30.6,15.21 55.96,15.21 55.96,10.14 30.6,10.14 "/>
   </g>
   <g>
    <circle fill="#0000F8" cx="69.2" cy="64.52" r="16.12"/>
    <path fill="#FEFEFE" d="M78.76 68.77c-0.58,0 -1.06,-0.47 -1.06,-1.06 0,-3.19 0,-3.19 0,-3.19 0,-4.69 -3.81,-8.5 -8.5,-8.49 -1.32,0 -2.63,0.3 -3.81,0.9 -0.52,0.26 -1.16,0.06 -1.43,-0.46 -0.26,-0.52 -0.06,-1.16 0.46,-1.43 4.1,-2.07 9.05,-1.27 12.29,1.98 2,1.98 3.13,4.69 3.11,7.51 0,3.19 0,3.19 0,3.19 0,0.59 -0.47,1.06 -1.06,1.06l0 0zm-19.12 0c-0.58,0 -1.06,-0.47 -1.06,-1.06 0,-3.19 0,-3.19 0,-3.19 -0.01,-2.24 0.7,-4.43 2.03,-6.24 0.35,-0.47 1.02,-0.57 1.49,-0.22 0.46,0.35 0.56,1.01 0.21,1.48 -1.06,1.44 -1.63,3.19 -1.62,4.98 0,3.19 0,3.19 0,3.19 0,0.59 -0.47,1.06 -1.06,1.06l0 0zm15.94 4.26c-0.58,0 -1.06,-0.49 -1.06,-1.07 0,-7.43 0,-7.43 0,-7.43 0,-0.75 -0.16,-1.48 -0.47,-2.17 -0.27,-0.52 -0.06,-1.16 0.46,-1.43 0.52,-0.26 1.17,-0.05 1.43,0.47 0.01,0.02 0.01,0.04 0.02,0.06 0.45,0.96 0.67,2 0.67,3.06 0,7.43 0,7.43 0,7.43 0,0.58 -0.47,1.07 -1.06,1.07l0 0zm-12.75 0c-0.58,0 -1.06,-0.49 -1.06,-1.07 0,-7.43 0,-7.43 0,-7.43 0,-4.11 3.32,-7.43 7.43,-7.43 1.06,-0.01 2.1,0.22 3.06,0.67 0.52,0.25 0.75,0.88 0.49,1.42 -0.25,0.51 -0.86,0.74 -1.38,0.5 -0.68,-0.31 -1.42,-0.47 -2.17,-0.47 -2.94,0.01 -5.3,2.38 -5.32,5.32 0,7.43 0,7.43 0,7.43 0,0.58 -0.47,1.07 -1.06,1.07l0 0zm6.37 2.12c-0.58,0 -1.06,-0.47 -1.06,-1.06 0,-9.56 0,-9.56 0,-9.56 0,-0.58 0.47,-1.06 1.06,-1.06 0.58,0 1.06,0.47 1.06,1.06 0,9.56 0,9.56 0,9.56 0,0.59 -0.47,1.06 -1.06,1.06l0 0zm3.19 -1.06c-0.58,0 -1.06,-0.47 -1.06,-1.06 0,-8.5 0,-8.5 0,-8.5 0,-1.17 -0.96,-2.13 -2.13,-2.13 -1.17,0 -2.13,0.96 -2.13,2.13 0,1.06 0,1.06 0,1.06 0,0.59 -0.47,1.07 -1.06,1.07 -0.58,0 -1.06,-0.48 -1.06,-1.07 0,-1.06 0,-1.06 0,-1.06 0,-2.35 1.89,-4.24 4.25,-4.24 2.35,0 4.25,1.89 4.25,4.24 0,8.5 0,8.5 0,8.5 0,0.59 -0.47,1.06 -1.06,1.06l0 0zm-6.37 0c-0.58,0 -1.06,-0.47 -1.06,-1.06 0,-3.19 0,-3.19 0,-3.19 0,-0.58 0.47,-1.07 1.06,-1.07 0.59,0 1.06,0.49 1.06,1.07 0,3.19 0,3.19 0,3.19 0,0.59 -0.47,1.06 -1.06,1.06l0 0z"/>
   </g>
  </g>
 </g>
</svg>
