<?xml version="1.0" encoding="UTF-8"?>
<!DOCTYPE svg PUBLIC "-//W3C//DTD SVG 1.0//EN" "http://www.w3.org/TR/2001/REC-SVG-20010904/DTD/svg10.dtd">
<!-- Creator: CorelDRAW -->
<svg xmlns="http://www.w3.org/2000/svg" xml:space="preserve" width="2.5661mm" height="2.8315mm" version="1.0" shape-rendering="geometricPrecision" text-rendering="geometricPrecision" image-rendering="optimizeQuality" fill-rule="evenodd" clip-rule="evenodd"
viewBox="0 0 5.88 6.49"
 xmlns:xlink="http://www.w3.org/1999/xlink"
 xmlns:xodm="http://www.corel.com/coreldraw/odm/2003">
 <g id="Layer_x0020_1">
  <metadata id="CorelCorpID_0Corel-Layer"/>
  <g id="attachment.eps">
   <path fill="#0000F8" fill-rule="nonzero" d="M2.03 6.09l-1.22 0c-0.22,0 -0.41,-0.18 -0.41,-0.41l0 -4.01c0,-0.11 0.04,-0.21 0.12,-0.29l0.86 -0.86c0.07,-0.08 0.18,-0.12 0.29,-0.12l2.79 0c0.22,0 0.41,0.18 0.41,0.41l0 1.62c0,0.11 0.09,0.2 0.2,0.2 0.11,0 0.2,-0.09 0.2,-0.2l0 -1.62c0,-0.45 -0.36,-0.81 -0.81,-0.81l-2.79 0c-0.21,0 -0.42,0.09 -0.57,0.24l-0.86 0.86c-0.15,0.15 -0.24,0.36 -0.24,0.57l0 4.01c0,0.45 0.36,0.81 0.81,0.81l1.22 0c0.11,0 0.2,-0.09 0.2,-0.2 0,-0.11 -0.09,-0.2 -0.2,-0.2z"/>
   <path fill="#0000F8" fill-rule="nonzero" d="M5.64 3.67l-0.29 -0.29c-0.31,-0.31 -0.84,-0.31 -1.15,0l-1.43 1.43c-0.15,0.15 -0.24,0.36 -0.24,0.57 0,0.22 0.08,0.42 0.24,0.57l0.29 0.29c0.15,0.15 0.36,0.24 0.57,0.24 0.22,0 0.42,-0.08 0.57,-0.24l0.72 -0.72c0.24,-0.24 0.24,-0.62 0,-0.86 -0.23,-0.23 -0.63,-0.23 -0.86,0l-0.57 0.57c-0.08,0.08 -0.08,0.21 0,0.29 0.08,0.08 0.21,0.08 0.29,0l0.57 -0.57c0.08,-0.08 0.21,-0.08 0.29,0 0.08,0.08 0.08,0.21 0,0.29l-0.72 0.72c-0.15,0.15 -0.42,0.15 -0.57,0l-0.29 -0.29c-0.08,-0.08 -0.12,-0.18 -0.12,-0.29 0,-0.11 0.04,-0.21 0.12,-0.29l1.43 -1.43c0.15,-0.15 0.42,-0.15 0.57,0l0.29 0.29c0.08,0.08 0.12,0.18 0.12,0.29 0,0.11 -0.04,0.21 -0.12,0.29 -0.08,0.08 -0.08,0.21 0,0.29 0.08,0.08 0.21,0.08 0.29,0 0.15,-0.15 0.24,-0.36 0.24,-0.57 0,-0.22 -0.08,-0.42 -0.24,-0.57z"/>
   <path fill="#0000F8" fill-rule="nonzero" d="M3.85 2.03c0,-0.11 -0.09,-0.2 -0.2,-0.2l-2.03 0c-0.11,0 -0.2,0.09 -0.2,0.2 0,0.11 0.09,0.2 0.2,0.2l2.03 0c0.11,0 0.2,-0.09 0.2,-0.2z"/>
   <path fill="#0000F8" fill-rule="nonzero" d="M1.62 2.84c-0.11,0 -0.2,0.09 -0.2,0.2 0,0.11 0.09,0.2 0.2,0.2l1.01 0c0.11,0 0.2,-0.09 0.2,-0.2 0,-0.11 -0.09,-0.2 -0.2,-0.2l-1.01 0z"/>
  </g>
 </g>
</svg>
