<?xml version="1.0" encoding="UTF-8"?>
<!DOCTYPE svg PUBLIC "-//W3C//DTD SVG 1.0//EN" "http://www.w3.org/TR/2001/REC-SVG-20010904/DTD/svg10.dtd">
<!-- Creator: CorelDRAW -->
<svg xmlns="http://www.w3.org/2000/svg" xml:space="preserve" width="1.9349mm" height="1.9348mm" version="1.0" shape-rendering="geometricPrecision" text-rendering="geometricPrecision" image-rendering="optimizeQuality" fill-rule="evenodd" clip-rule="evenodd"
viewBox="0 0 5.98 5.98"
 xmlns:xlink="http://www.w3.org/1999/xlink"
 xmlns:xodm="http://www.corel.com/coreldraw/odm/2003">
 <g id="Layer_x0020_1">
  <metadata id="CorelCorpID_0Corel-Layer"/>
  <g id="new-tab.eps">
   <path fill="#0000F8" d="M-0 1.65c0,-0.64 0.52,-1.15 1.15,-1.15l1.01 0c0.14,0 0.25,0.11 0.25,0.25 0,0.14 -0.11,0.25 -0.25,0.25l-1.01 0c-0.36,0 -0.66,0.29 -0.66,0.66l0 3.17c0,0.36 0.29,0.66 0.66,0.66l3.17 0c0.36,0 0.66,-0.29 0.66,-0.66l0 -1.01c0,-0.14 0.11,-0.25 0.25,-0.25 0.14,0 0.25,0.11 0.25,0.25l0 1.01c0,0.64 -0.52,1.15 -1.15,1.15l-3.17 0c-0.64,0 -1.15,-0.52 -1.15,-1.15l0 -3.17z"/>
   <path fill="#0000F8" d="M3.49 0.25c0,-0.14 0.11,-0.25 0.25,-0.25l1.99 0c0.14,0 0.25,0.11 0.25,0.25l0 1.99c0,0.14 -0.11,0.25 -0.25,0.25 -0.14,0 -0.25,-0.11 -0.25,-0.25l0 -1.74 -1.74 0c-0.14,0 -0.25,-0.11 -0.25,-0.25z"/>
   <path fill="#0000F8" d="M5.72 0.26c0.1,0.1 0.1,0.26 0,0.35l-2.31 2.3c-0.1,0.1 -0.26,0.1 -0.35,0 -0.1,-0.1 -0.1,-0.26 0,-0.35l2.31 -2.3c0.1,-0.1 0.25,-0.1 0.35,0z"/>
  </g>
 </g>
</svg>
