<?xml version="1.0" encoding="UTF-8"?>
<!DOCTYPE svg PUBLIC "-//W3C//DTD SVG 1.0//EN" "http://www.w3.org/TR/2001/REC-SVG-20010904/DTD/svg10.dtd">
<!-- Creator: CorelDRAW -->
<svg xmlns="http://www.w3.org/2000/svg" xml:space="preserve" width="98" height="98" version="1.0" shape-rendering="geometricPrecision" text-rendering="geometricPrecision" image-rendering="optimizeQuality" fill-rule="evenodd" clip-rule="evenodd"
viewBox="0 0 821.2 821.2"
 xmlns:xlink="http://www.w3.org/1999/xlink"
 xmlns:xodm="http://www.corel.com/coreldraw/odm/2003">
 <g id="Layer_x0020_1">
  <metadata id="CorelCorpID_0Corel-Layer"/>
  <g id="_2011867647616">
   <g id="_002-product.eps">
    <polygon fill="#0000F8" fill-rule="nonzero" points="117.37,113.24 172.53,168.41 117.37,223.58 151.39,257.59 240.58,168.41 151.39,79.22 "/>
    <path fill="#0000F8" fill-rule="nonzero" d="M652.79 484.38c-85.8,0 -156.82,64.5 -167.12,147.56l-174.36 0c-10.71,-41.47 -48.42,-72.18 -93.19,-72.18 -43.97,0 -81.13,29.66 -92.58,70.01 -44.19,-9.41 -77.44,-48.72 -77.44,-95.67 0,-53.96 43.89,-97.85 97.84,-97.85l171.91 0c11.27,40.64 48.56,70.57 92.74,70.57 44.17,0 81.48,-29.93 92.74,-70.57l171.91 0c80.48,0 145.96,-65.47 145.96,-145.95 0,-72.96 -53.82,-133.58 -123.82,-144.28 -8.92,-43.91 -47.82,-77.06 -94.32,-77.06 -45.91,0 -84.38,32.31 -93.93,75.38l-174.05 0c-11.71,-81.5 -81.99,-144.35 -166.69,-144.35 -92.86,0 -168.4,75.55 -168.4,168.41 0,92.86 75.55,168.4 168.4,168.4 84.7,0 154.98,-62.85 166.69,-144.35l175.7 0c11.79,39.82 48.67,68.97 92.28,68.97 42.88,0 79.28,-28.2 91.68,-67.02 44.63,9.07 78.33,48.61 78.33,95.88 0,53.95 -43.89,97.84 -97.84,97.84l-171.09 0c-10.13,-42.26 -48.23,-73.78 -93.56,-73.78 -45.33,0 -83.42,31.52 -93.56,73.78l-171.09 0c-80.48,0 -145.95,65.47 -145.95,145.96 0,73.21 54.2,134 124.57,144.39 10.16,42.25 48.24,73.74 93.56,73.74 44.76,0 82.47,-30.72 93.19,-72.18l175.29 0c13.06,79.94 82.6,141.15 166.19,141.15 92.86,0 168.41,-75.56 168.41,-168.41 0,-92.87 -75.56,-168.41 -168.41,-168.41zm-484.39 -195.68c-66.32,0 -120.29,-53.97 -120.29,-120.29 0,-66.33 53.97,-120.3 120.29,-120.3 66.33,0 120.3,53.97 120.3,120.3 0,66.32 -53.97,120.29 -120.3,120.29zm434.66 -75.39c-26.53,0 -48.11,-21.59 -48.11,-48.11 0,-26.53 21.58,-48.12 48.11,-48.12 26.53,0 48.12,21.59 48.12,48.12 0,26.52 -21.59,48.11 -48.12,48.11zm-192.47 149.17c26.53,0 48.12,21.58 48.12,48.11 0,26.53 -21.59,48.12 -48.12,48.12 -26.53,0 -48.11,-21.59 -48.11,-48.12 0,-26.53 21.58,-48.11 48.11,-48.11zm-192.47 341.63c-26.53,0 -48.11,-21.58 -48.11,-48.11 0,-26.53 21.58,-48.12 48.11,-48.12 26.53,0 48.12,21.59 48.12,48.12 0,26.53 -21.59,48.11 -48.12,48.11zm434.66 68.97c-66.33,0 -120.3,-53.97 -120.3,-120.29 0,-66.33 53.97,-120.3 120.3,-120.3 66.32,0 120.29,53.97 120.29,120.3 0,66.32 -53.97,120.29 -120.29,120.29z"/>
    <path fill="#0000F8" fill-rule="nonzero" d="M652.79 580.61c-39.8,0 -72.18,32.38 -72.18,72.18 0,39.79 32.38,72.18 72.18,72.18 39.79,0 72.17,-32.39 72.17,-72.18 0,-39.8 -32.38,-72.18 -72.17,-72.18zm0 96.23c-13.27,0 -24.07,-10.8 -24.07,-24.06 0,-13.27 10.8,-24.06 24.07,-24.06 13.26,0 24.06,10.79 24.06,24.06 0,13.26 -10.8,24.06 -24.06,24.06z"/>
   </g>
   <g>
    <circle fill="#0000F8" cx="654.07" cy="659.13" r="148.39"/>
    <path fill="#FEFEFE" d="M742.09 698.24c-5.39,0 -9.74,-4.36 -9.74,-9.74 0,-29.34 0,-29.34 0,-29.34 0,-43.21 -35.07,-78.27 -78.27,-78.16 -12.15,0 -24.19,2.76 -35.07,8.26 -4.81,2.41 -10.65,0.57 -13.18,-4.25 -2.41,-4.81 -0.57,-10.65 4.24,-13.17 37.71,-19.02 83.31,-11.7 113.11,18.22 18.45,18.21 28.77,43.2 28.65,69.1 0,29.34 0,29.34 0,29.34 0,5.38 -4.35,9.74 -9.73,9.74l0 0zm-176.03 0c-5.38,0 -9.74,-4.36 -9.74,-9.74 0,-29.34 0,-29.34 0,-29.34 -0.11,-20.63 6.41,-40.8 18.68,-57.41 3.21,-4.36 9.39,-5.27 13.75,-2.06 4.24,3.21 5.15,9.28 1.94,13.64 -9.74,13.29 -15.02,29.33 -14.89,45.84 0,29.34 0,29.34 0,29.34 0,5.38 -4.36,9.74 -9.74,9.74l0 0zm146.69 39.19c-5.39,0 -9.74,-4.47 -9.74,-9.85 0,-68.42 0,-68.42 0,-68.42 0,-6.88 -1.49,-13.64 -4.36,-19.95 -2.52,-4.81 -0.57,-10.65 4.24,-13.17 4.82,-2.42 10.78,-0.46 13.18,4.35 0.12,0.23 0.12,0.34 0.23,0.57 4.13,8.83 6.19,18.45 6.19,28.2 0,68.42 0,68.42 0,68.42 0,5.38 -4.36,9.85 -9.74,9.85l0 0zm-117.35 0c-5.38,0 -9.74,-4.47 -9.74,-9.85 0,-68.42 0,-68.42 0,-68.42 0,-37.82 30.6,-68.42 68.42,-68.42 9.74,-0.11 19.37,2.06 28.19,6.19 4.82,2.29 6.88,8.13 4.47,13.06 -2.29,4.7 -7.91,6.76 -12.72,4.58 -6.3,-2.87 -13.06,-4.35 -19.94,-4.35 -27.04,0.11 -48.82,21.89 -48.93,48.93 0,68.42 0,68.42 0,68.42 0,5.38 -4.36,9.85 -9.74,9.85l0 0zm58.68 19.48c-5.39,0 -9.74,-4.35 -9.74,-9.73 0,-88.02 0,-88.02 0,-88.02 0,-5.39 4.35,-9.74 9.74,-9.74 5.38,0 9.74,4.35 9.74,9.74 0,88.02 0,88.02 0,88.02 0,5.38 -4.36,9.73 -9.74,9.73l0 0zm29.34 -9.73c-5.39,0 -9.74,-4.36 -9.74,-9.74 0,-78.27 0,-78.27 0,-78.27 0,-10.78 -8.82,-19.6 -19.6,-19.6 -10.78,0 -19.6,8.82 -19.6,19.6 0,9.74 0,9.74 0,9.74 0,5.38 -4.36,9.85 -9.74,9.85 -5.39,0 -9.74,-4.47 -9.74,-9.85 0,-9.74 0,-9.74 0,-9.74 0,-21.66 17.42,-39.08 39.08,-39.08 21.66,0 39.08,17.42 39.08,39.08 0,78.27 0,78.27 0,78.27 0,5.38 -4.36,9.74 -9.74,9.74l0 0zm-58.68 0c-5.39,0 -9.74,-4.36 -9.74,-9.74 0,-29.34 0,-29.34 0,-29.34 0,-5.38 4.35,-9.85 9.74,-9.85 5.38,0 9.74,4.47 9.74,9.85 0,29.34 0,29.34 0,29.34 0,5.38 -4.36,9.74 -9.74,9.74l0 0z"/>
   </g>
  </g>
 </g>
</svg>
