<?xml version="1.0" encoding="UTF-8"?>
<!DOCTYPE svg PUBLIC "-//W3C//DTD SVG 1.0//EN" "http://www.w3.org/TR/2001/REC-SVG-20010904/DTD/svg10.dtd">
<!-- Creator: CorelDRAW -->
<svg xmlns="http://www.w3.org/2000/svg" xml:space="preserve" width="2.0593mm" height="2.2249mm" version="1.0" shape-rendering="geometricPrecision" text-rendering="geometricPrecision" image-rendering="optimizeQuality" fill-rule="evenodd" clip-rule="evenodd"
viewBox="0 0 8 8.65"
 xmlns:xlink="http://www.w3.org/1999/xlink"
 xmlns:xodm="http://www.corel.com/coreldraw/odm/2003">
 <g id="Layer_x0020_1">
  <metadata id="CorelCorpID_0Corel-Layer"/>
  <g id="share.eps">
   <path fill="#0000F8" fill-rule="nonzero" d="M6.37 5.38c-0.5,0 -0.96,0.23 -1.25,0.59l-1.95 -1.11c0.06,-0.17 0.09,-0.35 0.09,-0.54 0,-0.19 -0.03,-0.37 -0.09,-0.54l1.95 -1.11c0.3,0.36 0.75,0.59 1.26,0.59 0.9,0 1.63,-0.73 1.63,-1.63 0,-0.9 -0.73,-1.63 -1.63,-1.63 -0.9,0 -1.63,0.73 -1.63,1.63 0,0.19 0.03,0.37 0.09,0.54l-1.95 1.11c-0.3,-0.36 -0.75,-0.59 -1.25,-0.59 -0.9,0 -1.63,0.73 -1.63,1.63 0,0.9 0.73,1.63 1.63,1.63 0.5,0 0.96,-0.23 1.25,-0.59l1.95 1.11c-0.06,0.17 -0.09,0.35 -0.09,0.55 0,0.9 0.73,1.63 1.63,1.63 0.9,0 1.63,-0.73 1.63,-1.63 0,-0.9 -0.73,-1.63 -1.63,-1.63zm0 -4.81c0.58,0 1.06,0.48 1.06,1.06 0,0.58 -0.48,1.06 -1.06,1.06 -0.58,0 -1.06,-0.48 -1.06,-1.06 0,-0.58 0.48,-1.06 1.06,-1.06zm-4.74 4.81c-0.59,0 -1.06,-0.48 -1.06,-1.06 0,-0.58 0.48,-1.06 1.06,-1.06 0.58,0 1.06,0.48 1.06,1.06 0,0.58 -0.48,1.06 -1.06,1.06zm4.74 2.69c-0.58,0 -1.06,-0.48 -1.06,-1.06 0,-0.58 0.48,-1.06 1.06,-1.06 0.58,0 1.06,0.48 1.06,1.06 0,0.58 -0.48,1.06 -1.06,1.06z"/>
  </g>
 </g>
</svg>
