<?xml version="1.0" encoding="UTF-8"?>
<!DOCTYPE svg PUBLIC "-//W3C//DTD SVG 1.0//EN" "http://www.w3.org/TR/2001/REC-SVG-20010904/DTD/svg10.dtd">
<!-- Creator: CorelDRAW -->
<svg xmlns="http://www.w3.org/2000/svg" xml:space="preserve" width="73" height="92" version="1.0" shape-rendering="geometricPrecision" text-rendering="geometricPrecision" image-rendering="optimizeQuality" fill-rule="evenodd" clip-rule="evenodd"
viewBox="0 0 41.65 52.65"
 xmlns:xlink="http://www.w3.org/1999/xlink"
 xmlns:xodm="http://www.corel.com/coreldraw/odm/2003">
 <g id="Layer_x0020_1">
  <metadata id="CorelCorpID_0Corel-Layer"/>
  <g id="_2012193087600">
   <g id="_001-documents.eps">
    <polygon fill="#0000F8" fill-rule="nonzero" points="6.17,46.48 29.31,46.48 29.31,43.4 6.17,43.4 "/>
    <polygon fill="#0000F8" fill-rule="nonzero" points="6.17,40.31 29.31,40.31 29.31,37.23 6.17,37.23 "/>
    <polygon fill="#0000F8" fill-rule="nonzero" points="6.17,34.14 29.31,34.14 29.31,31.06 6.17,31.06 "/>
    <path fill="#0000F8" fill-rule="nonzero" d="M41.65 0l-35.48 0 0 6.17 -6.17 0 0 46.48 35.48 0 0 -6.17 6.17 0 0 -46.48zm-9.26 49.57l-29.31 0 0 -40.31 8.48 0c2.55,0 4.63,2.08 4.63,4.63l0 11.57 11.57 0c2.55,0 4.63,2.08 4.63,4.63l0 19.49zm-5.8 -27.2l-7.32 0 0 -7.32 7.32 7.32zm11.97 21.03l-3.09 0 0 -13.32c0,-2.13 -0.86,-4.05 -2.26,-5.45 0,-0 -16.19,-16.2 -16.19,-16.2 -1.4,-1.39 -3.33,-2.26 -5.45,-2.26l-2.31 0 0 -3.09 29.31 0 0 40.31z"/>
   </g>
   <g>
    <path fill="#0000F8" d="M40.62 0.22c0.24,0.2 0.48,0.42 0.7,0.64l0 14.25c-1.82,1.82 -4.34,2.95 -7.13,2.95 -5.57,0 -10.08,-4.51 -10.08,-10.08 0,-3.12 1.42,-5.92 3.65,-7.76l12.85 0z"/>
    <path fill="#FEFEFE" d="M39.46 11.05c-0.37,0 -0.66,-0.3 -0.66,-0.66 0,-1.99 0,-1.99 0,-1.99 0,-2.94 -2.38,-5.32 -5.32,-5.31 -0.83,0 -1.64,0.19 -2.38,0.56 -0.33,0.16 -0.72,0.04 -0.9,-0.29 -0.16,-0.33 -0.04,-0.72 0.29,-0.9 2.56,-1.29 5.66,-0.79 7.68,1.24 1.25,1.24 1.95,2.94 1.95,4.69 0,1.99 0,1.99 0,1.99 0,0.37 -0.3,0.66 -0.66,0.66zm-11.96 0c-0.37,0 -0.66,-0.3 -0.66,-0.66 0,-1.99 0,-1.99 0,-1.99 -0.01,-1.4 0.44,-2.77 1.27,-3.9 0.22,-0.3 0.64,-0.36 0.93,-0.14 0.29,0.22 0.35,0.63 0.13,0.93 -0.66,0.9 -1.02,1.99 -1.01,3.11 0,1.99 0,1.99 0,1.99 0,0.37 -0.3,0.66 -0.66,0.66zm9.96 2.66c-0.37,0 -0.66,-0.3 -0.66,-0.67 0,-4.65 0,-4.65 0,-4.65 0,-0.47 -0.1,-0.93 -0.3,-1.36 -0.17,-0.33 -0.04,-0.72 0.29,-0.9 0.33,-0.16 0.73,-0.03 0.89,0.3 0.01,0.02 0.01,0.02 0.02,0.04 0.28,0.6 0.42,1.25 0.42,1.92 0,4.65 0,4.65 0,4.65 0,0.37 -0.3,0.67 -0.66,0.67zm-7.97 0c-0.37,0 -0.66,-0.3 -0.66,-0.67 0,-4.65 0,-4.65 0,-4.65 0,-2.57 2.08,-4.65 4.65,-4.65 0.66,-0.01 1.32,0.14 1.91,0.42 0.33,0.16 0.47,0.55 0.3,0.89 -0.16,0.32 -0.54,0.46 -0.86,0.31 -0.43,-0.19 -0.89,-0.3 -1.35,-0.3 -1.84,0.01 -3.32,1.49 -3.32,3.32 0,4.65 0,4.65 0,4.65 0,0.37 -0.3,0.67 -0.66,0.67zm3.99 1.32c-0.37,0 -0.66,-0.3 -0.66,-0.66 0,-5.98 0,-5.98 0,-5.98 0,-0.37 0.3,-0.66 0.66,-0.66 0.37,0 0.66,0.3 0.66,0.66 0,5.98 0,5.98 0,5.98 0,0.37 -0.3,0.66 -0.66,0.66zm1.99 -0.66c-0.37,0 -0.66,-0.3 -0.66,-0.66 0,-5.32 0,-5.32 0,-5.32 0,-0.73 -0.6,-1.33 -1.33,-1.33 -0.73,0 -1.33,0.6 -1.33,1.33 0,0.66 0,0.66 0,0.66 0,0.37 -0.3,0.67 -0.66,0.67 -0.37,0 -0.66,-0.3 -0.66,-0.67 0,-0.66 0,-0.66 0,-0.66 0,-1.47 1.18,-2.65 2.65,-2.65 1.47,0 2.65,1.18 2.65,2.65 0,5.32 0,5.32 0,5.32 0,0.37 -0.3,0.66 -0.66,0.66zm-3.99 0c-0.37,0 -0.66,-0.3 -0.66,-0.66 0,-1.99 0,-1.99 0,-1.99 0,-0.37 0.3,-0.67 0.66,-0.67 0.37,0 0.66,0.3 0.66,0.67 0,1.99 0,1.99 0,1.99 0,0.37 -0.3,0.66 -0.66,0.66z"/>
   </g>
  </g>
 </g>
</svg>
