<?xml version="1.0" encoding="UTF-8"?>
<!DOCTYPE svg PUBLIC "-//W3C//DTD SVG 1.0//EN" "http://www.w3.org/TR/2001/REC-SVG-20010904/DTD/svg10.dtd">
<!-- Creator: CorelDRAW -->
<svg xmlns="http://www.w3.org/2000/svg" xml:space="preserve" width="3.4455mm" height="3.8769mm" version="1.0" shape-rendering="geometricPrecision" text-rendering="geometricPrecision" image-rendering="optimizeQuality" fill-rule="evenodd" clip-rule="evenodd"
viewBox="0 0 10.01 11.27"
 xmlns:xlink="http://www.w3.org/1999/xlink"
 xmlns:xodm="http://www.corel.com/coreldraw/odm/2003">
 <g id="Layer_x0020_1">
  <metadata id="CorelCorpID_0Corel-Layer"/>
  <g id="_2012576417840">
   <path fill="#0000F8" d="M5.5 0.14l2.01 1.16 2.01 1.16c0.31,0.18 0.49,0.49 0.49,0.85l0 2.32 0 2.32c0,0.36 -0.18,0.67 -0.49,0.85l-2.01 1.16 -2.01 1.16c-0.31,0.18 -0.67,0.18 -0.98,0l-2.01 -1.16 -2.01 -1.16c-0.31,-0.18 -0.49,-0.49 -0.49,-0.85l0 -2.32 0 -2.32c0,-0.36 0.18,-0.67 0.49,-0.85l2.01 -1.16 2.01 -1.16c0.31,-0.18 0.67,-0.18 0.98,0z"/>
   <g id="_001-development.eps">
    <path fill="#FEFEFE" d="M5.77 4.87c0.22,0.22 0.59,0.22 0.81,0 0.22,-0.22 0.22,-0.59 0,-0.81 -0.22,-0.22 -0.59,-0.22 -0.81,0 -0.22,0.22 -0.22,0.59 0,0.81zm0.2 -0.2c0.11,0.11 0.29,0.11 0.41,0 0.11,-0.11 0.11,-0.29 0,-0.41 -0.11,-0.11 -0.29,-0.11 -0.41,0 -0.11,0.11 -0.11,0.29 0,0.41z"/>
    <path fill="#FEFEFE" fill-rule="nonzero" d="M5.18 6.41c0.03,0.07 0.11,0.11 0.19,0.09 0.08,-0.02 0.12,-0.11 0.09,-0.18 -0.21,-0.53 -0.59,-0.91 -1.12,-1.12 -0.07,-0.03 -0.16,0.01 -0.18,0.09 -0.02,0.08 0.02,0.16 0.09,0.19 0.45,0.18 0.76,0.5 0.94,0.94z"/>
    <path fill="#FEFEFE" d="M6.2 3.18c0.39,-0.09 0.76,-0.09 0.98,-0.09 0.21,0.01 0.37,0.17 0.38,0.38 0.01,0.23 0,0.59 -0.09,0.98 -0.09,0.39 -0.26,0.81 -0.58,1.13l-0.01 0.01c-0.26,0.26 -0.47,0.47 -0.64,0.61l0.07 0.61c0.01,0.09 -0.02,0.17 -0.08,0.23l-0.61 0.61c-0.15,0.15 -0.39,0.1 -0.47,-0.1l-0.28 -0.71 -0.91 0.15c-0.19,0.03 -0.36,-0.14 -0.33,-0.33l0.15 -0.91 -0.71 -0.28c-0.19,-0.08 -0.24,-0.32 -0.1,-0.47l0.61 -0.61c0.06,-0.06 0.15,-0.09 0.23,-0.08l0.61 0.07c0.15,-0.17 0.35,-0.38 0.61,-0.64l0.01 -0.01c0.32,-0.32 0.75,-0.49 1.13,-0.58zm0.06 0.28c-0.36,0.08 -0.72,0.23 -0.99,0.5 -0.3,0.3 -0.51,0.51 -0.65,0.68l-0.05 0.06 -0.77 -0.09 -0.61 0.61 0.71 0.28c0.13,0.05 0.2,0.18 0.18,0.31l-0.15 0.91 0.91 -0.15c0.13,-0.02 0.26,0.05 0.31,0.18l0.28 0.71 0.61 -0.61 -0.09 -0.77 0.06 -0.05c0.17,-0.14 0.38,-0.35 0.68,-0.65 0.27,-0.27 0.42,-0.64 0.5,-0.99 0.08,-0.36 0.09,-0.7 0.08,-0.91 -0,-0.06 -0.04,-0.1 -0.1,-0.1 -0.21,-0.01 -0.55,0 -0.91,0.08z"/>
    <path fill="#FEFEFE" d="M3.92 8.14c-0.06,-0.06 -0.06,-0.15 0,-0.2l0.61 -0.61c0.06,-0.06 0.15,-0.06 0.2,0 0.06,0.06 0.06,0.15 0,0.2l-0.61 0.61c-0.06,0.06 -0.15,0.06 -0.2,0z"/>
    <path fill="#FEFEFE" d="M2.5 6.72c-0.06,-0.06 -0.06,-0.15 0,-0.2l0.61 -0.61c0.06,-0.06 0.15,-0.06 0.2,0 0.06,0.06 0.06,0.15 0,0.2l-0.61 0.61c-0.06,0.06 -0.15,0.06 -0.2,0z"/>
    <path fill="#FEFEFE" d="M2.8 7.83c-0.06,-0.06 -0.06,-0.15 0,-0.2l0.61 -0.61c0.06,-0.06 0.15,-0.06 0.2,0 0.06,0.06 0.06,0.15 0,0.2l-0.61 0.61c-0.06,0.06 -0.15,0.06 -0.2,0z"/>
   </g>
  </g>
 </g>
</svg>
