<?xml version="1.0" encoding="UTF-8"?>
<!DOCTYPE svg PUBLIC "-//W3C//DTD SVG 1.1//EN" "http://www.w3.org/Graphics/SVG/1.1/DTD/svg11.dtd">
<!-- Creator: CorelDRAW -->
<svg xmlns="http://www.w3.org/2000/svg" xml:space="preserve" width="4.826mm" height="4.826mm" version="1.1" shape-rendering="geometricPrecision" text-rendering="geometricPrecision" image-rendering="optimizeQuality" fill-rule="evenodd" clip-rule="evenodd"
viewBox="0 0 19.79 19.79"
 xmlns:xlink="http://www.w3.org/1999/xlink"
 xmlns:xodm="http://www.corel.com/coreldraw/odm/2003">
 <g id="_x0020_22">
  <metadata id="CorelCorpID_0Corel-Layer"/>
  <path fill="#6AFCFC" fill-rule="nonzero" d="M9.9 19.79c-5.46,0 -9.9,-4.44 -9.9,-9.9 0,-5.46 4.44,-9.9 9.9,-9.9 5.46,0 9.9,4.44 9.9,9.9 0,5.46 -4.44,9.9 -9.9,9.9zm0 -18.14c-4.55,0 -8.25,3.7 -8.25,8.25 0,4.55 3.7,8.25 8.25,8.25 4.55,0 8.25,-3.7 8.25,-8.25 0,-4.55 -3.7,-8.25 -8.25,-8.25zm0.82 12.37l0 -8.25c0,-0.33 -0.2,-0.64 -0.51,-0.76 -0.31,-0.13 -0.66,-0.06 -0.9,0.18l-2.02 2.02c-0.32,0.32 -0.32,0.84 0,1.17 0.32,0.32 0.84,0.32 1.17,0l0.61 -0.61 0 6.26c0,0.46 0.37,0.82 0.82,0.82 0.46,0 0.82,-0.37 0.82,-0.82l0 0z"/>
 </g>
</svg>
