<?xml version="1.0" encoding="UTF-8"?>
<!DOCTYPE svg PUBLIC "-//W3C//DTD SVG 1.1//EN" "http://www.w3.org/Graphics/SVG/1.1/DTD/svg11.dtd">
<!-- Creator: CorelDRAW -->
<svg xmlns="http://www.w3.org/2000/svg" xml:space="preserve" width="4.826mm" height="4.826mm" version="1.1" shape-rendering="geometricPrecision" text-rendering="geometricPrecision" image-rendering="optimizeQuality" fill-rule="evenodd" clip-rule="evenodd"
viewBox="0 0 70.17 70.17"
 xmlns:xlink="http://www.w3.org/1999/xlink"
 xmlns:xodm="http://www.corel.com/coreldraw/odm/2003">
 <g id="_x0020_21">
  <metadata id="CorelCorpID_0Corel-Layer"/>
  <path fill="#6AFCFC" fill-rule="nonzero" d="M35.09 70.17c-19.35,0 -35.09,-15.74 -35.09,-35.09 0,-19.35 15.74,-35.09 35.09,-35.09 19.35,0 35.09,15.74 35.09,35.09 0,19.35 -15.74,35.09 -35.09,35.09zm0 -64.33c-16.12,0 -29.24,13.12 -29.24,29.24 0,16.12 13.12,29.24 29.24,29.24 16.12,0 29.24,-13.12 29.24,-29.24 0,-16.12 -13.12,-29.24 -29.24,-29.24zm11.7 43.86c0,-1.62 -1.31,-2.92 -2.92,-2.92l-13.98 0c1.25,-1.08 3.13,-2.11 5.09,-3.18 5.13,-2.8 12.15,-6.62 11.8,-15 -0.26,-6.2 -5.39,-11.06 -11.68,-11.06 -6.45,0 -11.7,5.25 -11.7,11.7 0,1.62 1.31,2.92 2.92,2.92 1.61,0 2.92,-1.31 2.92,-2.92 0,-3.23 2.62,-5.85 5.85,-5.85 3.09,0 5.71,2.45 5.84,5.46 0.19,4.42 -3.18,6.59 -8.75,9.62 -2.9,1.58 -5.63,3.07 -7.48,5.25 -1.39,1.64 -1.7,3.86 -0.8,5.8 0.89,1.92 2.75,3.1 4.87,3.1l15.09 0c1.61,0 2.92,-1.31 2.92,-2.92l-0 0z"/>
 </g>
</svg>
