<?xml version="1.0" encoding="UTF-8"?>
<!DOCTYPE svg PUBLIC "-//W3C//DTD SVG 1.1//EN" "http://www.w3.org/Graphics/SVG/1.1/DTD/svg11.dtd">
<!-- Creator: CorelDRAW -->
<svg xmlns="http://www.w3.org/2000/svg" xml:space="preserve" width="4.826mm" height="4.826mm" version="1.1" shape-rendering="geometricPrecision" text-rendering="geometricPrecision" image-rendering="optimizeQuality" fill-rule="evenodd" clip-rule="evenodd"
viewBox="0 0 48.91 48.91"
 xmlns:xlink="http://www.w3.org/1999/xlink"
 xmlns:xodm="http://www.corel.com/coreldraw/odm/2003">
 <g id="_x0020_20">
  <metadata id="CorelCorpID_0Corel-Layer"/>
  <path fill="#6AFCFC" fill-rule="nonzero" d="M24.45 0c-13.49,0 -24.45,10.97 -24.45,24.45 0,13.49 10.97,24.45 24.45,24.45 13.49,0 24.45,-10.97 24.45,-24.45 0,-13.49 -10.97,-24.45 -24.45,-24.45zm0 44.83c-11.24,0 -20.38,-9.14 -20.38,-20.38 0,-11.24 9.14,-20.38 20.38,-20.38 11.24,0 20.38,9.14 20.38,20.38 0,11.24 -9.14,20.38 -20.38,20.38zm8.15 -16.3c0,4.5 -3.66,8.15 -8.15,8.15l-6.11 0c-1.12,0 -2.04,-0.91 -2.04,-2.04 0,-1.13 0.91,-2.04 2.04,-2.04l6.11 0c2.25,0 4.08,-1.83 4.08,-4.08 0,-2.25 -1.83,-4.08 -4.08,-4.08l-4.08 0c-1.12,0 -2.04,-0.91 -2.04,-2.04 0,-1.13 0.91,-2.04 2.04,-2.04l4.08 0c1.12,0 2.04,-0.91 2.04,-2.04 0,-1.12 -0.92,-2.04 -2.04,-2.04l-6.11 0c-1.12,0 -2.04,-0.91 -2.04,-2.04 0,-1.13 0.91,-2.04 2.04,-2.04l6.11 0c3.37,0 6.11,2.74 6.11,6.11 0,1.39 -0.48,2.65 -1.26,3.68 1.99,1.49 3.3,3.84 3.3,6.51l0 0z"/>
 </g>
</svg>
