<?xml version="1.0" encoding="UTF-8"?>
<!DOCTYPE svg PUBLIC "-//W3C//DTD SVG 1.1//EN" "http://www.w3.org/Graphics/SVG/1.1/DTD/svg11.dtd">
<!-- Creator: CorelDRAW -->
<svg xmlns="http://www.w3.org/2000/svg" xml:space="preserve" width="8.2234mm" height="5.3446mm" version="1.1" shape-rendering="geometricPrecision" text-rendering="geometricPrecision" image-rendering="optimizeQuality" fill-rule="evenodd" clip-rule="evenodd"
viewBox="0 0 521.53 338.96"
 xmlns:xlink="http://www.w3.org/1999/xlink"
 xmlns:xodm="http://www.corel.com/coreldraw/odm/2003">
 <defs>
    <clipPath id="id0">
     <path d="M67.56 9.58l386.41 0c32.01,0 57.97,25.65 57.97,57.28l0 205.24c0,31.62 -25.96,57.28 -57.97,57.28l-386.41 0c-32.01,0 -57.96,-25.65 -57.96,-57.28l-0.01 -205.24c0.01,-31.63 25.96,-57.28 57.97,-57.28z"/>
    </clipPath>
 </defs>
 <g id="_x0020_4">
  <metadata id="CorelCorpID_0Corel-Layer"/>
  <g id="_1516114521104">
   <g>
   </g>
   <g clip-path="url(#id0)">
   </g>
   <path fill="none" d="M67.56 9.58l386.41 0c32.01,0 57.97,25.65 57.97,57.28l0 205.24c0,31.62 -25.96,57.28 -57.97,57.28l-386.41 0c-32.01,0 -57.96,-25.65 -57.96,-57.28l-0.01 -205.24c0.01,-31.63 25.96,-57.28 57.97,-57.28z"/>
   <path fill="#898989" stroke="#D6DCE5" stroke-width="16.78" stroke-miterlimit="22.9256" d="M67.56 8.39l386.41 0c32.67,0 59.17,26.18 59.17,58.47l0 205.24c0,32.28 -26.5,58.47 -59.17,58.47l-386.41 0c-32.67,0 -59.17,-26.19 -59.17,-58.47l0 -205.24c0,-32.29 26.5,-58.47 59.17,-58.47z"/>
   <path fill="white" fill-rule="nonzero" d="M80.65 194.44l0 -20.31 8.87 0c16.51,0 26.39,-9.1 26.39,-22.63 0,-12.76 -10,-20.2 -24.48,-20.2l-21.45 0 0 63.14 10.67 0zm10.22 -53.71c8.42,0 14.15,3.89 14.15,11.99 0,7.55 -6.4,11.99 -14.71,11.99l-9.66 0 0 -24.08 10.22 0 0 0.11zm172.72 31.63c0,-13.1 -10,-22.97 -23.25,-22.97 -12.69,0 -23.13,10.1 -23.13,23.09 0,13.2 9.65,22.75 23.13,22.75 12.92,0.11 23.25,-9.66 23.25,-22.86zm-36.28 0c0,-7.55 5.62,-13.32 13.03,-13.32 7.41,0 13.14,5.89 13.14,13.32 0,7.55 -5.73,13.32 -13.14,13.32 -7.41,0.11 -13.03,-5.77 -13.03,-13.32zm136.45 2.66c0.34,-1.33 0.34,-3.33 0.34,-4.55 0,-12.32 -9.54,-20.97 -21.56,-20.97 -12.8,0 -23.02,9.87 -23.02,22.75 0,13.43 8.98,23.08 22.69,23.08 9.21,0 16.95,-4.33 20.21,-10.32l-7.86 -4.33c-2.14,3.32 -6.51,5.76 -11.57,5.76 -7.08,0 -12.02,-4.22 -13.03,-11.31l33.8 0 0 -0.11zm-33.35 -7.65c1.34,-5.89 5.73,-9.43 11.79,-9.43 6.18,0 10.89,3.88 11.45,9.43l-23.24 0zm-124.32 -17.09l-12.35 31.51 -11 -31.51 -11.45 0 16.5 44.17 -6.85 15.54 10.9 0 25.15 -59.7 -10.9 0zm241.9 0.22c-1.01,-0.33 -3.03,-0.55 -4.38,-0.55 -4.38,0 -9.32,2.44 -11.45,6.66l0 -6.33 -10.11 0 0 44.17 10.11 0 0 -23.64c0,-8.21 5.5,-11.54 11.23,-11.54 1.57,0 2.92,0.11 4.49,0.44l0.11 -9.21zm-33.24 24.52c0.34,-1.33 0.34,-3.33 0.34,-4.55 0,-12.32 -9.54,-20.97 -21.56,-20.97 -12.8,0 -23.02,9.87 -23.02,22.75 0,13.43 8.99,23.08 22.69,23.08 9.21,0 16.96,-4.33 20.21,-10.32l-7.86 -4.33c-2.14,3.32 -6.51,5.76 -11.57,5.76 -7.08,0 -12.02,-4.22 -13.03,-11.31l33.8 0 0 -0.11zm-33.47 -7.65c1.34,-5.89 5.73,-9.43 11.79,-9.43 6.18,0 10.9,3.88 11.45,9.43l-23.24 0zm-226.06 4.88c0,8.1 -6.18,13.98 -14.15,13.98 -7.75,0 -13.03,-5.99 -13.03,-13.98 0,-7.55 6.41,-13.87 13.93,-13.87 7.97,0 13.25,5.99 13.25,13.87zm157.45 -3c0,-12.32 -6.06,-19.86 -17.52,-19.86 -5.96,0 -11.46,2.56 -14.6,6.55l0 -5.77 -10.22 0 0 44.17 10.22 0 0 -23.86c0,-7.44 5.39,-12.09 11.9,-12.09 6.51,0 9.88,4.33 9.88,11.65l0 24.41 10.22 0 0 -25.19 0.11 0zm-157.45 -18.98l0 5.77c-2.92,-3.88 -7.74,-6.55 -14.82,-6.55 -12.35,0 -22.69,10.76 -22.69,23.52 0,12.76 8.87,22.42 20.78,22.42 7.75,0 13.48,-2.78 16.73,-7.22l0 6.44 10 0 0 -44.17 -10 0 0 -0.22z"/>
  </g>
 </g>
</svg>
