<?xml version="1.0" encoding="UTF-8"?>
<!DOCTYPE svg PUBLIC "-//W3C//DTD SVG 1.1//EN" "http://www.w3.org/Graphics/SVG/1.1/DTD/svg11.dtd">
<!-- Creator: CorelDRAW -->
<svg xmlns="http://www.w3.org/2000/svg" xml:space="preserve" width="8.2234mm" height="5.3446mm" version="1.1" shape-rendering="geometricPrecision" text-rendering="geometricPrecision" image-rendering="optimizeQuality" fill-rule="evenodd" clip-rule="evenodd"
viewBox="0 0 229.91 149.42"
 xmlns:xlink="http://www.w3.org/1999/xlink"
 xmlns:xodm="http://www.corel.com/coreldraw/odm/2003">
 <g id="mastercard.svg">
  <metadata id="CorelCorpID_0Corel-Layer"/>
  <g id="mastercard.svg_0">
   <g filter="url(#filter0_dd_1319_6959)">
    <path fill="#000008" fill-rule="nonzero" d="M29.78 4.22l170.34 0c14.11,0 25.55,11.31 25.55,25.25l0 90.48c0,13.94 -11.44,25.25 -25.55,25.25l-170.34 0c-14.11,0 -25.55,-11.31 -25.55,-25.25l-0 -90.48c0,-13.94 11.44,-25.25 25.55,-25.25z"/>
    <path fill="none" fill-rule="nonzero" stroke="#D6DCE5" stroke-width="7.4" stroke-miterlimit="22.9256" d="M29.78 3.7l170.34 0c14.4,0 26.08,11.54 26.08,25.77l0 90.48c0,14.23 -11.68,25.77 -26.08,25.77l-170.34 0c-14.4,0 -26.08,-11.54 -26.08,-25.77l0 -90.48c0,-14.23 11.68,-25.77 26.08,-25.77z"/>
    <polygon fill="#FF5F00" fill-rule="nonzero" points="130.86,46.81 98.26,46.81 98.26,104.71 130.86,104.71 "/>
    <path fill="#EB001B" fill-rule="nonzero" d="M100.33 75.76c-0.01,-5.57 1.27,-11.08 3.74,-16.1 2.46,-5.02 6.05,-9.41 10.49,-12.85 -5.5,-4.27 -12.1,-6.93 -19.05,-7.66 -6.95,-0.74 -13.97,0.47 -20.26,3.49 -6.29,3.02 -11.59,7.73 -15.3,13.58 -3.71,5.86 -5.68,12.63 -5.68,19.53 0,6.91 1.97,13.68 5.68,19.54 3.71,5.86 9.01,10.56 15.3,13.58 6.29,3.02 13.31,4.23 20.26,3.49 6.95,-0.74 13.55,-3.39 19.05,-7.66 -4.44,-3.44 -8.03,-7.84 -10.49,-12.85 -2.47,-5.01 -3.75,-10.52 -3.74,-16.1z"/>
    <path fill="#F79E1B" fill-rule="nonzero" d="M174.84 75.76c0,6.91 -1.97,13.68 -5.68,19.54 -3.71,5.86 -9.01,10.56 -15.3,13.58 -6.29,3.02 -13.31,4.23 -20.26,3.49 -6.95,-0.74 -13.55,-3.39 -19.05,-7.66 4.43,-3.45 8.02,-7.84 10.48,-12.86 2.47,-5.01 3.75,-10.52 3.75,-16.09 0,-5.57 -1.28,-11.08 -3.75,-16.09 -2.47,-5.01 -6.05,-9.41 -10.48,-12.85 5.5,-4.27 12.1,-6.93 19.05,-7.66 6.95,-0.74 13.97,0.47 20.26,3.49 6.29,3.02 11.59,7.73 15.3,13.58 3.71,5.86 5.68,12.63 5.68,19.53z"/>
    <path fill="#F79E1B" fill-rule="nonzero" d="M171.29 98.58l0 -1.19 0.48 0 0 -0.24 -1.23 0 0 0.24 0.48 0 0 1.19 0.27 0zm2.39 0l0 -1.43 -0.38 0 -0.43 0.98 -0.43 -0.98 -0.38 0 0 1.43 0.27 0 0 -1.08 0.41 0.93 0.28 0 0.41 -0.93 0 1.08 0.27 0z"/>
   </g>
  </g>
 </g>
</svg>
