<?xml version="1.0" encoding="UTF-8"?>
<!DOCTYPE svg PUBLIC "-//W3C//DTD SVG 1.1//EN" "http://www.w3.org/Graphics/SVG/1.1/DTD/svg11.dtd">
<!-- Creator: CorelDRAW -->
<svg xmlns="http://www.w3.org/2000/svg" xml:space="preserve" width="8.2234mm" height="5.3446mm" version="1.1" shape-rendering="geometricPrecision" text-rendering="geometricPrecision" image-rendering="optimizeQuality" fill-rule="evenodd" clip-rule="evenodd"
viewBox="0 0 94.19 61.22"
 xmlns:xlink="http://www.w3.org/1999/xlink"
 xmlns:xodm="http://www.corel.com/coreldraw/odm/2003">
 <g id="paypal.svg">
  <metadata id="CorelCorpID_0Corel-Layer"/>
  <g id="paypal.svg_0">
   <g filter="url(#filter0_dd_1319_7039)">
    <path fill="#E7EBFA" fill-rule="nonzero" d="M12.2 1.73l69.79 0c5.78,0 10.47,4.63 10.47,10.34l0 37.07c0,5.71 -4.69,10.34 -10.47,10.34l-69.79 0c-5.78,0 -10.47,-4.63 -10.47,-10.34l-0 -37.07c0,-5.71 4.69,-10.34 10.47,-10.34z"/>
    <path fill="none" fill-rule="nonzero" stroke="#D6DCE5" stroke-width="3.03" stroke-miterlimit="22.9256" d="M12.2 1.52l69.79 0c5.9,0 10.69,4.73 10.69,10.56l0 37.07c0,5.83 -4.79,10.56 -10.69,10.56l-69.79 0c-5.9,0 -10.69,-4.73 -10.69,-10.56l0 -37.07c0,-5.83 4.79,-10.56 10.69,-10.56z"/>
    <path fill="#253B80" d="M21.14 22.21l-5.23 0c-0.36,0 -0.66,0.26 -0.72,0.61l-2.12 13.25c-0.04,0.26 0.16,0.5 0.43,0.5l2.5 0c0.36,0 0.66,-0.26 0.72,-0.61l0.57 -3.57c0.05,-0.35 0.36,-0.61 0.72,-0.61l1.66 0c3.45,0 5.43,-1.65 5.95,-4.91 0.23,-1.43 0.01,-2.55 -0.67,-3.34 -0.74,-0.86 -2.06,-1.32 -3.81,-1.32zm0.6 4.84c-0.29,1.85 -1.72,1.85 -3.11,1.85l-0.79 0 0.55 -3.46c0.03,-0.21 0.22,-0.36 0.43,-0.36l0.36 0c0.94,0 1.84,0 2.3,0.53 0.27,0.32 0.36,0.79 0.25,1.44zm15.03 -0.06l-2.5 0c-0.21,0 -0.4,0.15 -0.43,0.36l-0.11 0.69 -0.18 -0.25c-0.54,-0.78 -1.75,-1.04 -2.96,-1.04 -2.77,0 -5.13,2.07 -5.59,4.98 -0.24,1.45 0.1,2.83 0.93,3.8 0.76,0.89 1.86,1.26 3.16,1.26 2.23,0 3.47,-1.42 3.47,-1.42l-0.11 0.69c-0.04,0.26 0.16,0.5 0.43,0.5l2.26 0c0.36,0 0.66,-0.26 0.72,-0.61l1.35 -8.47c0.04,-0.26 -0.16,-0.5 -0.43,-0.5zm-3.49 4.82c-0.24,1.41 -1.38,2.36 -2.83,2.36 -0.73,0 -1.31,-0.23 -1.68,-0.67 -0.37,-0.43 -0.51,-1.05 -0.39,-1.74 0.23,-1.4 1.38,-2.38 2.81,-2.38 0.71,0 1.29,0.23 1.67,0.67 0.38,0.44 0.53,1.07 0.42,1.75zm14.31 -4.82l2.52 0c0.35,0 0.56,0.39 0.36,0.68l-8.37 11.94c-0.14,0.19 -0.36,0.31 -0.6,0.31l-2.51 0c-0.35,0 -0.56,-0.39 -0.36,-0.68l2.61 -3.64 -2.77 -8.04c-0.1,-0.28 0.11,-0.57 0.41,-0.57l2.47 0c0.32,0 0.61,0.21 0.7,0.51l1.47 4.86 3.47 -5.05c0.14,-0.2 0.36,-0.31 0.6,-0.31z"/>
    <path fill="#179BD7" d="M74.89 36.06l2.15 -13.5c0.03,-0.21 0.22,-0.36 0.43,-0.36l2.42 0c0.27,0 0.47,0.24 0.43,0.5l-2.12 13.25c-0.05,0.35 -0.36,0.61 -0.72,0.61l-2.16 0c-0.27,0 -0.47,-0.24 -0.43,-0.5zm-16.44 -13.86l-5.23 0c-0.36,0 -0.66,0.26 -0.72,0.61l-2.12 13.25c-0.04,0.26 0.16,0.5 0.43,0.5l2.68 0c0.25,0 0.46,-0.18 0.5,-0.42l0.6 -3.76c0.05,-0.35 0.36,-0.61 0.72,-0.61l1.66 0c3.45,0 5.43,-1.65 5.95,-4.91 0.23,-1.43 0.01,-2.55 -0.67,-3.34 -0.74,-0.86 -2.06,-1.32 -3.81,-1.32zm0.6 4.84c-0.29,1.85 -1.72,1.85 -3.11,1.85l-0.79 0 0.55 -3.46c0.03,-0.21 0.21,-0.36 0.43,-0.36l0.36 0c0.94,0 1.83,0 2.3,0.53 0.27,0.32 0.36,0.79 0.25,1.44zm15.03 -0.06l-2.5 0c-0.22,0 -0.4,0.15 -0.43,0.36l-0.11 0.69 -0.18 -0.25c-0.54,-0.78 -1.75,-1.04 -2.96,-1.04 -2.77,0 -5.13,2.07 -5.59,4.98 -0.24,1.45 0.1,2.83 0.93,3.8 0.77,0.89 1.86,1.26 3.15,1.26 2.23,0 3.47,-1.42 3.47,-1.42l-0.11 0.69c-0.04,0.26 0.16,0.5 0.43,0.5l2.26 0c0.36,0 0.66,-0.26 0.72,-0.61l1.35 -8.47c0.04,-0.26 -0.16,-0.5 -0.43,-0.5zm-3.49 4.82c-0.24,1.41 -1.38,2.36 -2.83,2.36 -0.73,0 -1.31,-0.23 -1.68,-0.67 -0.37,-0.43 -0.51,-1.05 -0.39,-1.74 0.23,-1.4 1.38,-2.38 2.81,-2.38 0.71,0 1.29,0.23 1.67,0.67 0.38,0.45 0.53,1.07 0.42,1.75z"/>
   </g>
  </g>
 </g>
</svg>
