<?xml version="1.0" encoding="UTF-8"?>
<!DOCTYPE svg PUBLIC "-//W3C//DTD SVG 1.1//EN" "http://www.w3.org/Graphics/SVG/1.1/DTD/svg11.dtd">
<!-- Creator: CorelDRAW -->
<svg xmlns="http://www.w3.org/2000/svg" xml:space="preserve" width="8.2234mm" height="5.3446mm" version="1.1" shape-rendering="geometricPrecision" text-rendering="geometricPrecision" image-rendering="optimizeQuality" fill-rule="evenodd" clip-rule="evenodd"
viewBox="0 0 822.3 534.43"
 xmlns:xlink="http://www.w3.org/1999/xlink"
 xmlns:xodm="http://www.corel.com/coreldraw/odm/2003">
 <g id="gpay.svg">
  <metadata id="CorelCorpID_0Corel-Layer"/>
  <g id="gpay.svg_0">
   <g filter="url(#filter0_dd_1319_7045)">
    <path fill="#EBF2FD" fill-rule="nonzero" d="M106.52 15.11l609.25 0c50.47,0 91.4,40.45 91.4,90.31l0 323.6c0,49.86 -40.93,90.3 -91.4,90.3l-609.25 0.01c-50.47,-0.01 -91.39,-40.45 -91.39,-90.32l-0.01 -323.59c0.01,-49.86 40.93,-90.31 91.4,-90.31z"/>
    <path fill="none" fill-rule="nonzero" stroke="#D6DCE5" stroke-width="26.46" stroke-miterlimit="22.9256" d="M106.52 13.23l609.25 0c51.52,0 93.3,41.29 93.3,92.19l0 323.6c0,50.9 -41.78,92.19 -93.3,92.19l-609.25 0c-51.52,0 -93.3,-41.29 -93.3,-92.2l0 -323.59c0,-50.9 41.78,-92.19 93.3,-92.19z"/>
    <path fill="#3C4043" fill-rule="nonzero" d="M393.93 327.64l-17.81 0 0 -136.97 47.23 0c11.97,0 22.17,3.94 30.52,11.83 8.54,7.88 12.81,17.51 12.81,28.88 0,11.64 -4.27,21.27 -12.81,29.06 -8.25,7.8 -18.46,11.65 -30.52,11.65l-29.42 0 0 55.56zm0 -120.1l0 47.77 29.79 0c7.05,0 12.99,-2.39 17.63,-7.06 4.73,-4.68 7.14,-10.36 7.14,-16.78 0,-6.33 -2.41,-11.92 -7.14,-16.6 -4.64,-4.86 -10.49,-7.24 -17.63,-7.24l-29.79 0 0 -0.09z"/>
    <path fill="#3C4043" fill-rule="nonzero" d="M513.26 230.83c13.17,0 23.56,3.48 31.17,10.45 7.61,6.97 11.41,16.5 11.41,28.61l0 57.76 -16.98 0 0 -13.02 -0.74 0c-7.33,10.73 -17.16,16.04 -29.41,16.04 -10.48,0 -19.21,-3.02 -26.26,-9.16 -7.05,-6.15 -10.58,-13.76 -10.58,-22.92 0,-9.72 3.71,-17.43 11.14,-23.11 7.42,-5.78 17.35,-8.62 29.69,-8.62 10.58,0 19.3,1.93 26.07,5.78l0 -4.04c0,-6.14 -2.41,-11.27 -7.33,-15.59 -4.92,-4.3 -10.67,-6.41 -17.26,-6.41 -9.92,0 -17.81,4.12 -23.56,12.47l-15.69 -9.72c8.63,-12.38 21.44,-18.52 38.33,-18.52zm-23.02 68.03c0,4.58 1.95,8.43 5.94,11.46 3.9,3.03 8.54,4.58 13.83,4.58 7.51,0 14.19,-2.75 20.04,-8.25 5.84,-5.5 8.81,-11.92 8.81,-19.34 -5.56,-4.31 -13.26,-6.51 -23.19,-6.51 -7.24,0 -13.27,1.74 -18.1,5.13 -4.91,3.58 -7.33,7.89 -7.33,12.93z"/>
    <polygon fill="#3C4043" fill-rule="nonzero" points="652.71,233.85 593.32,368.81 574.95,368.81 597.03,321.59 557.88,233.85 577.27,233.85 605.48,301.15 605.85,301.15 633.31,233.85 "/>
    <path fill="#4285F4" fill-rule="nonzero" d="M323.07 260.99c0,-5.74 -0.52,-11.23 -1.48,-16.51l-74.68 0 0 30.26 43.01 0.01c-1.75,10.06 -7.36,18.65 -15.96,24.37l0 19.63 25.6 0c14.95,-13.67 23.51,-33.88 23.51,-57.76z"/>
    <path fill="#34A853" fill-rule="nonzero" d="M273.98 299.12c-7.13,4.75 -16.31,7.53 -27.04,7.53 -20.74,0 -38.33,-13.81 -44.63,-32.43l-26.41 0 0 20.25c13.08,25.65 39.97,43.26 71.04,43.26 21.47,0 39.51,-6.98 52.64,-18.99l-25.6 -19.62z"/>
    <path fill="#FABB05" fill-rule="nonzero" d="M199.82 259.2c0,-5.22 0.88,-10.27 2.49,-15.02l0 -20.25 -26.41 0c-5.41,10.61 -8.45,22.58 -8.45,35.27 0,12.69 3.05,24.67 8.45,35.28l26.41 -20.25c-1.61,-4.75 -2.49,-9.8 -2.49,-15.03z"/>
    <path fill="#E94235" fill-rule="nonzero" d="M246.94 211.76c11.72,0 22.21,3.98 30.5,11.78l22.68 -22.4c-13.78,-12.68 -31.74,-20.47 -53.18,-20.47 -31.06,0 -57.96,17.61 -71.04,43.26l26.41 20.25c6.3,-18.62 23.89,-32.42 44.63,-32.42z"/>
   </g>
  </g>
 </g>
</svg>
