<?xml version="1.0" encoding="UTF-8"?>
<!DOCTYPE svg PUBLIC "-//W3C//DTD SVG 1.1//EN" "http://www.w3.org/Graphics/SVG/1.1/DTD/svg11.dtd">
<!-- Creator: CorelDRAW -->
<svg xmlns="http://www.w3.org/2000/svg" xml:space="preserve" width="8.2234mm" height="5.3446mm" version="1.1" shape-rendering="geometricPrecision" text-rendering="geometricPrecision" image-rendering="optimizeQuality" fill-rule="evenodd" clip-rule="evenodd"
viewBox="0 0 122.18 79.41"
 xmlns:xlink="http://www.w3.org/1999/xlink"
 xmlns:xodm="http://www.corel.com/coreldraw/odm/2003">
 <g id="bitcoin.svg">
  <metadata id="CorelCorpID_0Corel-Layer"/>
  <g id="bitcoin.svg_0">
   <g filter="url(#filter0_dd_1319_7153)">
    <path fill="#F7931A" fill-rule="nonzero" d="M15.83 2.25l90.53 0c7.5,0 13.58,6.01 13.58,13.42l0 48.08c0,7.41 -6.08,13.42 -13.58,13.42l-90.53 0c-7.5,-0 -13.58,-6.01 -13.58,-13.42l-0 -48.08c0,-7.41 6.08,-13.42 13.58,-13.42z"/>
    <path fill="none" fill-rule="nonzero" stroke="#D6DCE5" stroke-width="3.93" stroke-miterlimit="22.9256" d="M15.83 1.97l90.53 0c7.65,0 13.86,6.13 13.86,13.7l0 48.08c0,7.56 -6.21,13.7 -13.86,13.7l-90.53 0c-7.65,0 -13.86,-6.13 -13.86,-13.7l0 -48.08c0,-7.56 6.21,-13.7 13.86,-13.7z"/>
    <path fill="white" fill-rule="nonzero" d="M82.48 45.66c-3.02,11.97 -15.29,19.29 -27.43,16.3 -12.12,-2.99 -19.5,-15.12 -16.48,-27.09 3.02,-11.97 15.28,-19.29 27.39,-16.3 12.15,2.95 19.53,15.11 16.52,27.09z"/>
    <path fill="#F7931A" fill-rule="nonzero" d="M71.24 37.33c0.41,-2.98 -1.89,-4.54 -5.03,-5.59l0.98 -4.03 -2.48 -0.59 -0.95 3.95c-0.66,-0.15 -1.32,-0.31 -1.98,-0.44l0.95 -3.95 -2.52 -0.59 -0.98 4.03c-0.53,-0.12 -1.07,-0.22 -1.6,-0.34l-3.42 -0.81 -0.63 2.61c0,0 1.86,0.4 1.79,0.44 1.01,0.25 1.2,0.9 1.16,1.4l-1.1 4.6c0.07,0.03 0.15,0.03 0.25,0.1 -0.1,-0.03 -0.16,-0.03 -0.25,-0.06l-1.51 6.43c-0.12,0.31 -0.44,0.75 -1.13,0.59 0.03,0.03 -1.83,-0.44 -1.83,-0.44l-1.18 2.83 3.24 0.74c0.6,0.15 1.2,0.28 1.76,0.44l-0.98 4.07 2.49 0.59 0.98 -4.03c0.7,0.18 1.35,0.34 1.98,0.5l-0.98 4.01 2.48 0.59 0.98 -4.07c4.24,0.75 7.42,0.4 8.71,-3.42 1.04,-3.05 -0.1,-4.79 -2.36,-5.93 1.66,-0.37 2.85,-1.43 3.16,-3.6zm-5.59 7.91c-0.73,3.05 -5.94,1.46 -7.61,1.06l1.29 -5.41c1.7,0.41 7.08,1.16 6.32,4.35zm0.69 -7.91c-0.66,2.76 -5,1.43 -6.41,1.09l1.2 -4.9c1.38,0.34 5.91,0.93 5.22,3.82z"/>
   </g>
  </g>
 </g>
</svg>
