<?xml version="1.0" encoding="UTF-8"?>
<!DOCTYPE svg PUBLIC "-//W3C//DTD SVG 1.1//EN" "http://www.w3.org/Graphics/SVG/1.1/DTD/svg11.dtd">
<!-- Creator: CorelDRAW -->
<svg xmlns="http://www.w3.org/2000/svg" xml:space="preserve" width="8.2234mm" height="5.3446mm" version="1.1" shape-rendering="geometricPrecision" text-rendering="geometricPrecision" image-rendering="optimizeQuality" fill-rule="evenodd" clip-rule="evenodd"
viewBox="0 0 197.98 128.67"
 xmlns:xlink="http://www.w3.org/1999/xlink"
 xmlns:xodm="http://www.corel.com/coreldraw/odm/2003">
 <g id="usdt.svg">
  <metadata id="CorelCorpID_0Corel-Layer"/>
  <g id="usdt.svg_0">
   <g filter="url(#filter0_dd_1319_7155)">
    <path fill="#009393" fill-rule="nonzero" d="M25.65 3.64l146.69 0c12.15,0 22.01,9.74 22.01,21.74l0 77.91c0,12 -9.85,21.74 -22.01,21.74l-146.69 0c-12.15,0 -22,-9.74 -22,-21.74l-0 -77.91c0,-12.01 9.85,-21.74 22.01,-21.74z"/>
    <path fill="none" fill-rule="nonzero" stroke="#D6DCE5" stroke-width="6.37" stroke-miterlimit="22.9256" d="M25.65 3.19l146.69 0c12.4,0 22.46,9.94 22.46,22.2l0 77.91c0,12.25 -10.06,22.2 -22.46,22.2l-146.69 0c-12.4,0 -22.46,-9.94 -22.46,-22.2l0 -77.91c0,-12.26 10.06,-22.2 22.46,-22.2z"/>
    <path fill="#F6F8FC" fill-rule="nonzero" stroke="#F6F8FC" stroke-width="0.83" stroke-miterlimit="22.9256" d="M106.87 30.15l0 0c19.65,4.77 31.6,24.45 26.73,43.83 -4.88,19.37 -24.74,31.2 -44.38,26.37 -19.6,-4.84 -31.55,-24.46 -26.67,-43.83 4.88,-19.37 24.73,-31.2 44.32,-26.37z"/>
    <path fill="#009393" d="M84.59 50.03l27.46 0c0.65,0 1.26,0.33 1.59,0.88l8 13.33c0.42,0.69 0.29,1.56 -0.3,2.12l-22.02 20.85c-0.71,0.68 -1.86,0.68 -2.57,0l-21.99 -20.83c-0.6,-0.57 -0.72,-1.47 -0.27,-2.17l8.55 -13.35c0.33,-0.52 0.92,-0.84 1.56,-0.84zm23.91 5.95l0 3.74 -7.82 0 0 2.59c5.49,0.28 9.62,1.42 9.65,2.78l0 2.84c-0.03,1.36 -4.15,2.5 -9.65,2.78l0 6.36 -5.19 0 0 -6.36c-5.49,-0.28 -9.62,-1.42 -9.65,-2.78l0 -2.84c0.03,-1.36 4.15,-2.5 9.65,-2.78l0 -2.59 -7.82 0 0 -3.74 20.84 0zm-10.42 12.78c5.86,0 10.76,-0.96 11.96,-2.25 -1.02,-1.09 -4.69,-1.95 -9.37,-2.18l0 2.71c-0.84,0.04 -1.7,0.07 -2.6,0.07 -0.89,0 -1.76,-0.02 -2.6,-0.07l0 -2.71c-4.67,0.24 -8.35,1.09 -9.37,2.18 1.2,1.29 6.1,2.25 11.96,2.25z"/>
   </g>
  </g>
 </g>
</svg>
