<?xml version="1.0" encoding="UTF-8"?>
<!DOCTYPE svg PUBLIC "-//W3C//DTD SVG 1.1//EN" "http://www.w3.org/Graphics/SVG/1.1/DTD/svg11.dtd">
<!-- Creator: CorelDRAW -->
<svg xmlns="http://www.w3.org/2000/svg" xml:space="preserve" width="8.2233mm" height="5.3446mm" version="1.1" shape-rendering="geometricPrecision" text-rendering="geometricPrecision" image-rendering="optimizeQuality" fill-rule="evenodd" clip-rule="evenodd"
viewBox="0 0 133.63 86.85"
 xmlns:xlink="http://www.w3.org/1999/xlink"
 xmlns:xodm="http://www.corel.com/coreldraw/odm/2003">
 <g id="visa.svg">
  <metadata id="CorelCorpID_0Corel-Layer"/>
  <g id="visa.svg_0">
   <g filter="url(#filter0_dd_1319_6921)">
    <path fill="#1434CB" fill-rule="nonzero" d="M17.31 2.46l99.01 0c8.2,0 14.85,6.57 14.85,14.68l0 52.59c0,8.1 -6.65,14.68 -14.85,14.68l-99.01 0c-8.2,0 -14.85,-6.57 -14.85,-14.68l0 -52.59c0,-8.1 6.65,-14.68 14.85,-14.68z"/>
    <path fill="none" fill-rule="nonzero" stroke="#D6DCE5" stroke-width="4.3" stroke-miterlimit="22.9256" d="M17.31 2.15l99.01 0c8.37,0 15.16,6.71 15.16,14.98l0 52.59c0,8.27 -6.79,14.98 -15.16,14.98l-99.01 0c-8.37,0 -15.16,-6.71 -15.16,-14.98l-0 -52.59c0,-8.27 6.79,-14.98 15.16,-14.98z"/>
    <path fill="white" fill-rule="nonzero" d="M66.03 30.07l-6 27.73 -7.26 0 6 -27.73 7.26 0zm30.54 17.91l3.82 -10.41 2.2 10.41 -6.02 0zm8.1 9.82l6.71 0 -5.86 -27.73 -6.2 0c-1.39,0 -2.57,0.8 -3.09,2.03l-10.89 25.7 7.62 0 1.51 -4.14 9.31 0 0.87 4.14zm-18.95 -9.05c0.03,-7.32 -10.24,-7.72 -10.17,-10.99 0.02,-1 0.98,-2.05 3.08,-2.32 1.04,-0.13 3.91,-0.24 7.16,1.24l1.27 -5.88c-1.75,-0.63 -4,-1.23 -6.79,-1.23 -7.18,0 -12.23,3.77 -12.27,9.17 -0.05,3.99 3.6,6.22 6.36,7.55 2.83,1.36 3.78,2.23 3.77,3.45 -0.02,1.86 -2.26,2.68 -4.34,2.71 -3.65,0.06 -5.77,-0.97 -7.46,-1.75l-1.32 6.08c1.7,0.77 4.83,1.44 8.08,1.47 7.62,0 12.61,-3.72 12.64,-9.49zm-30.07 -18.68l-11.76 27.73 -7.67 0 -5.79 -22.13c-0.35,-1.36 -0.66,-1.86 -1.73,-2.44 -1.74,-0.93 -4.62,-1.81 -7.16,-2.36l0.17 -0.81 12.35 0c1.57,0 2.99,1.04 3.35,2.83l3.06 16.05 7.55 -18.87 7.63 0z"/>
   </g>
  </g>
 </g>
</svg>
