<?xml version="1.0" encoding="UTF-8"?>
<!DOCTYPE svg PUBLIC "-//W3C//DTD SVG 1.0//EN" "http://www.w3.org/TR/2001/REC-SVG-20010904/DTD/svg10.dtd">
<!-- Creator: CorelDRAW -->
<svg xmlns="http://www.w3.org/2000/svg" xml:space="preserve" width="18.3103mm" height="18.2855mm" version="1.0" shape-rendering="geometricPrecision" text-rendering="geometricPrecision" image-rendering="optimizeQuality" fill-rule="evenodd" clip-rule="evenodd"
viewBox="0 0 1813.84 1811.39"
 xmlns:xlink="http://www.w3.org/1999/xlink"
 xmlns:xodm="http://www.corel.com/coreldraw/odm/2003">
 <g id="Layer_x0020_1">
  <metadata id="CorelCorpID_0Corel-Layer"/>
  <path fill="#93BCF5" d="M647.98 1551.22c93.27,-108 85.91,-267.53 -14.73,-368.17 -51.54,-51.54 -117.81,-81 -191.45,-81 -63.82,0 -125.17,24.55 -174.27,66.27 -267.53,-265.08 -267.53,-265.08 -267.53,-265.08 903.24,-903.24 903.24,-903.24 903.24,-903.24 338.72,336.26 338.72,336.26 338.72,336.26 9.82,-14.73 9.82,-14.73 9.82,-14.73 7.36,-12.27 14.72,-22.09 24.54,-31.91 34.36,-34.36 78.55,-51.54 125.18,-51.54 46.63,0 90.81,17.18 125.17,51.54 34.36,34.36 51.54,78.55 51.54,125.18 0,49.08 -17.18,93.27 -51.54,125.17 -9.82,9.82 -19.63,19.63 -31.91,26.99 -14.73,9.82 -14.73,9.82 -14.73,9.82 333.81,331.35 333.81,331.35 333.81,331.35 -328.89,328.9 -328.89,328.9 -328.89,328.9 17.18,9.82 17.18,9.82 17.18,9.82 12.27,9.82 27,19.63 36.82,29.45 34.36,34.36 54,78.55 54,125.17 0,49.09 -19.63,93.28 -54,127.64 -31.91,31.91 -76.09,51.54 -125.17,51.54 -46.64,0 -90.82,-19.63 -125.18,-51.54 -9.82,-12.27 -19.63,-24.55 -29.45,-39.28 -9.82,-17.18 -9.82,-17.18 -9.82,-17.18 -338.71,338.71 -338.71,338.71 -338.71,338.71l-262.63 -260.16z"/>
 </g>
</svg>
