<?xml version="1.0" encoding="UTF-8"?>
<!DOCTYPE svg PUBLIC "-//W3C//DTD SVG 1.0//EN" "http://www.w3.org/TR/2001/REC-SVG-20010904/DTD/svg10.dtd">
<!-- Creator: CorelDRAW -->
<svg xmlns="http://www.w3.org/2000/svg" xml:space="preserve" width="18.2855mm" height="18.2855mm" version="1.0" shape-rendering="geometricPrecision" text-rendering="geometricPrecision" image-rendering="optimizeQuality" fill-rule="evenodd" clip-rule="evenodd"
viewBox="0 0 25951.53 25951.53"
 xmlns:xlink="http://www.w3.org/1999/xlink"
 xmlns:xodm="http://www.corel.com/coreldraw/odm/2003">
 <g id="Layer_x0020_1">
  <metadata id="CorelCorpID_0Corel-Layer"/>
  <path fill="#FEFEFE" d="M9283.54 22224.04c1301.02,-1547.26 1230.77,-3832.94 -211.04,-5274.75 -738.43,-738.43 -1723.1,-1125.17 -2742.83,-1125.17 -949.47,0 -1828.55,316.35 -2531.93,914.27 -3797.75,-3797.89 -3797.75,-3797.89 -3797.75,-3797.89 3762.69,-3797.75 3762.69,-3797.75 3762.69,-3797.75 703.23,632.98 1617.51,949.47 2566.98,949.47 1019.72,0 2004.39,-386.89 2742.83,-1125.32 1441.81,-1441.66 1512.06,-3762.55 175.84,-5309.81 3692.3,-3657.1 3692.3,-3657.1 3692.3,-3657.1 4817.61,4852.67 4817.61,4852.67 4817.61,4852.67 140.65,-246.24 140.65,-246.24 140.65,-246.24 105.45,-175.7 246.1,-316.35 351.55,-457.14 492.33,-457 1125.32,-738.43 1828.55,-738.43 668.18,0 1301.16,281.44 1793.49,738.43 457.14,492.33 738.43,1125.32 738.43,1793.49 0,703.23 -281.29,1336.22 -738.43,1828.55 -140.65,105.45 -281.44,246.1 -457.14,351.69 -246.24,140.65 -246.24,140.65 -246.24,140.65 4782.42,4747.22 4782.42,4747.22 4782.42,4747.22 -4782.42,4817.47 -4782.42,4817.47 -4782.42,4817.47 246.24,105.59 246.24,105.59 246.24,105.59 281.29,140.65 492.33,316.49 703.23,492.33 984.67,1019.72 984.67,2602.18 0,3621.9 -492.33,457.14 -1125.17,738.43 -1793.35,738.43 -703.38,0 -1336.22,-281.29 -1793.49,-738.43 -210.9,-211.04 -386.74,-457.14 -492.19,-703.23 -140.65,-281.44 -140.65,-281.44 -140.65,-281.44 -4888.01,4888.01 -4888.01,4888.01 -4888.01,4888.01l-3727.35 -3727.49z"/>
 </g>
</svg>
