<?xml version="1.0" encoding="UTF-8"?>
<!DOCTYPE svg PUBLIC "-//W3C//DTD SVG 1.0//EN" "http://www.w3.org/TR/2001/REC-SVG-20010904/DTD/svg10.dtd">
<!-- Creator: CorelDRAW -->
<svg xmlns="http://www.w3.org/2000/svg" xml:space="preserve" width="18.3598mm" height="18.3598mm" version="1.0" shape-rendering="geometricPrecision" text-rendering="geometricPrecision" image-rendering="optimizeQuality" fill-rule="evenodd" clip-rule="evenodd"
viewBox="0 0 1813.95 1813.95"
 xmlns:xlink="http://www.w3.org/1999/xlink"
 xmlns:xodm="http://www.corel.com/coreldraw/odm/2003">
 <g id="Layer_x0020_1">
  <metadata id="CorelCorpID_0Corel-Layer"/>
  <path fill="#B1C6E7" d="M570.37 1478.57c-7.34,17.14 -7.34,17.14 -7.34,17.14 -9.79,17.13 -19.58,31.82 -34.27,44.06 -31.82,34.26 -78.33,53.86 -124.84,53.86 -46.52,0 -90.57,-19.59 -124.84,-53.86 -34.27,-31.82 -51.41,-75.89 -51.41,-124.85 0,-46.51 17.13,-90.57 51.41,-124.84 12.24,-12.24 29.37,-24.48 44.06,-31.82 19.58,-9.79 19.58,-9.79 19.58,-9.79 -342.72,-340.27 -342.72,-340.27 -342.72,-340.27 264.38,-266.83 264.38,-266.83 264.38,-266.83 51.41,44.05 112.61,68.54 178.7,68.54 73.44,0 139.54,-29.37 190.95,-80.78 100.36,-100.37 105.26,-261.94 14.68,-369.65 259.49,-259.48 259.49,-259.48 259.49,-259.48 337.82,340.27 337.82,340.27 337.82,340.27 9.8,-17.14 9.8,-17.14 9.8,-17.14 7.34,-14.68 17.13,-26.92 29.37,-39.16 34.26,-31.82 78.33,-51.41 124.84,-51.41 46.52,0 93.02,19.58 124.84,51.41 34.27,34.27 51.42,78.34 51.42,124.84 0,48.97 -17.14,93.03 -51.42,124.85 -9.79,12.23 -24.47,22.03 -36.71,29.37 -17.14,9.79 -17.14,9.79 -17.14,9.79 332.93,335.38 332.93,335.38 332.93,335.38 -261.93,261.93 -261.93,261.93 -261.93,261.93 -51.41,-44.06 -115.06,-68.55 -181.15,-68.55 -73.44,0 -139.54,26.93 -190.95,78.34 -51.41,51.42 -78.33,117.5 -78.33,190.95 0,66.09 24.47,129.73 68.55,178.7 -261.94,264.38 -261.94,264.38 -261.94,264.38l-337.83 -335.38z"/>
 </g>
</svg>
