<?xml version="1.0" encoding="UTF-8"?>
<!DOCTYPE svg PUBLIC "-//W3C//DTD SVG 1.0//EN" "http://www.w3.org/TR/2001/REC-SVG-20010904/DTD/svg10.dtd">
<!-- Creator: CorelDRAW -->
<svg xmlns="http://www.w3.org/2000/svg" xml:space="preserve" width="18.3103mm" height="18.2855mm" version="1.0" shape-rendering="geometricPrecision" text-rendering="geometricPrecision" image-rendering="optimizeQuality" fill-rule="evenodd" clip-rule="evenodd"
viewBox="0 0 885.56 884.36"
 xmlns:xlink="http://www.w3.org/1999/xlink"
 xmlns:xodm="http://www.corel.com/coreldraw/odm/2003">
 <g id="Layer_x0020_1">
  <metadata id="CorelCorpID_0Corel-Layer"/>
  <path fill="#69A8FF" d="M270.82 715.39c-2.39,10.79 -2.39,10.79 -2.39,10.79 -4.79,13.18 -11.98,25.16 -21.57,34.75 -16.78,16.78 -38.35,26.36 -61.12,26.36 0,0 0,0 0,0 -23.96,0 -45.53,-9.59 -62.31,-26.36 -15.58,-15.58 -25.16,-37.15 -25.16,-61.11 0,-22.77 9.59,-44.34 25.16,-61.11 10.79,-9.59 22.77,-16.78 35.95,-21.57 10.79,-3.6 10.79,-3.6 10.79,-3.6 -170.16,-170.16 -170.16,-170.16 -170.16,-170.16 165.37,-164.17 165.37,-164.17 165.37,-164.17 -9.59,-4.79 -9.59,-4.79 -9.59,-4.79 -9.59,-3.59 -17.97,-9.59 -25.16,-16.78 -33.55,-34.75 -33.55,-88.68 0,-123.42 15.58,-15.58 38.35,-25.16 61.11,-25.16 22.77,0 44.34,9.59 61.12,25.16 7.19,7.19 13.18,16.78 17.97,26.36 3.59,8.39 3.59,8.39 3.59,8.39 170.16,-168.96 170.16,-168.96 170.16,-168.96 162.97,162.97 162.97,162.97 162.97,162.97 4.79,-8.39 4.79,-8.39 4.79,-8.39 3.59,-5.99 8.39,-11.98 13.18,-16.78 16.78,-16.78 38.35,-26.36 61.12,-26.36 22.76,0 45.53,9.59 61.11,26.36 33.55,33.55 33.55,88.68 0,122.23 -4.79,4.79 -10.79,9.59 -16.78,13.18 -8.39,4.79 -8.39,4.79 -8.39,4.79 162.97,162.97 162.97,162.97 162.97,162.97 -165.37,164.17 -165.37,164.17 -165.37,164.17 8.39,4.79 8.39,4.79 8.39,4.79 7.19,3.59 13.18,8.39 19.17,14.38 33.55,33.55 33.55,88.68 0,122.23 -16.78,16.78 -38.35,25.16 -62.31,25.16 -22.77,0 -44.34,-8.39 -61.11,-25.16 -4.79,-4.79 -9.59,-11.98 -14.38,-19.17 -3.59,-7.19 -3.59,-7.19 -3.59,-7.19 -165.37,164.17 -165.37,164.17 -165.37,164.17l-170.16 -168.96z"/>
 </g>
</svg>
