<?xml version="1.0" encoding="UTF-8"?>
<!DOCTYPE svg PUBLIC "-//W3C//DTD SVG 1.0//EN" "http://www.w3.org/TR/2001/REC-SVG-20010904/DTD/svg10.dtd">
<!-- Creator: CorelDRAW -->
<svg xmlns="http://www.w3.org/2000/svg" xml:space="preserve" width="5.0543mm" height="5.0543mm" version="1.0" shape-rendering="geometricPrecision" text-rendering="geometricPrecision" image-rendering="optimizeQuality" fill-rule="evenodd" clip-rule="evenodd"
viewBox="0 0 154.29 154.29"
 xmlns:xlink="http://www.w3.org/1999/xlink"
 xmlns:xodm="http://www.corel.com/coreldraw/odm/2003">
 <g id="Layer_x0020_1">
  <metadata id="CorelCorpID_0Corel-Layer"/>
  <g id="_003-discount-1.eps">
   <path fill="#1B3DDC" fill-rule="nonzero" d="M77.15 154.29c-20.61,0 -39.98,-8.03 -54.55,-22.59 -14.57,-14.57 -22.6,-33.95 -22.6,-54.55 0,-20.61 8.03,-39.98 22.6,-54.55 14.57,-14.57 33.95,-22.6 54.55,-22.6 20.61,0 39.98,8.03 54.55,22.6 14.57,14.57 22.59,33.95 22.59,54.55 0,20.61 -8.03,39.98 -22.59,54.55 -14.57,14.57 -33.95,22.59 -54.55,22.59zm0 -145.25c-18.19,0 -35.29,7.09 -48.16,19.95 -12.86,12.86 -19.95,29.97 -19.95,48.16 0,18.19 7.09,35.29 19.95,48.16 12.86,12.86 29.97,19.95 48.16,19.95 18.19,0 35.29,-7.09 48.16,-19.95 12.86,-12.86 19.95,-29.96 19.95,-48.16 0,-18.19 -7.09,-35.29 -19.95,-48.16 -12.86,-12.86 -29.96,-19.95 -48.16,-19.95z"/>
   <path fill="#1B3DDC" fill-rule="nonzero" d="M77.15 136.21c-32.57,0 -59.07,-26.5 -59.07,-59.06 0,-32.57 26.5,-59.07 59.07,-59.07 32.57,0 59.06,26.5 59.06,59.07 0,32.57 -26.49,59.06 -59.06,59.06zm0 -109.09c-27.58,0 -50.02,22.44 -50.02,50.02 0,27.58 22.44,50.02 50.02,50.02 27.58,0 50.02,-22.44 50.02,-50.02 0,-27.58 -22.44,-50.02 -50.02,-50.02z"/>
   <path fill="#1B3DDC" fill-rule="nonzero" d="M57.97 71.53c-3.62,0 -7.03,-1.41 -9.59,-3.97 -5.29,-5.29 -5.29,-13.89 0,-19.18 5.29,-5.29 13.89,-5.29 19.17,0 5.29,5.29 5.29,13.89 0,19.18 -2.56,2.56 -5.96,3.97 -9.59,3.97zm-3.2 -16.76c-0.85,0.85 -1.32,1.99 -1.32,3.2 0,1.21 0.47,2.34 1.32,3.2 0.85,0.85 1.99,1.32 3.2,1.32 1.21,0 2.34,-0.47 3.19,-1.32 1.76,-1.76 1.76,-4.63 0,-6.39 -1.76,-1.76 -4.63,-1.76 -6.39,0z"/>
   <path fill="#1B3DDC" fill-rule="nonzero" d="M96.32 109.88c-3.47,0 -6.94,-1.32 -9.59,-3.97 -5.29,-5.29 -5.29,-13.89 0,-19.18 5.29,-5.29 13.89,-5.29 19.18,0 5.29,5.29 5.29,13.89 0,19.18 -2.64,2.65 -6.11,3.97 -9.59,3.97zm0 -18.07c-1.16,0 -2.31,0.44 -3.2,1.32 -0.85,0.85 -1.32,1.99 -1.32,3.2 0,1.21 0.47,2.34 1.32,3.2 1.76,1.76 4.63,1.76 6.39,0 1.76,-1.76 1.76,-4.63 0,-6.39 -0.88,-0.88 -2.04,-1.32 -3.2,-1.32z"/>
   <polygon fill="#1B3DDC" fill-rule="nonzero" points="49.74,98.15 98.13,49.76 104.52,56.15 56.13,104.54 "/>
  </g>
 </g>
</svg>
