<?xml version="1.0" encoding="UTF-8"?>
<!DOCTYPE svg PUBLIC "-//W3C//DTD SVG 1.0//EN" "http://www.w3.org/TR/2001/REC-SVG-20010904/DTD/svg10.dtd">
<!-- Creator: CorelDRAW -->
<svg xmlns="http://www.w3.org/2000/svg" xml:space="preserve" width="6.1073mm" height="6.1073mm" version="1.0" shape-rendering="geometricPrecision" text-rendering="geometricPrecision" image-rendering="optimizeQuality" fill-rule="evenodd" clip-rule="evenodd"
viewBox="0 0 656.42 656.42"
 xmlns:xlink="http://www.w3.org/1999/xlink"
 xmlns:xodm="http://www.corel.com/coreldraw/odm/2003">
 <g id="Layer_x0020_1">
  <metadata id="CorelCorpID_0Corel-Layer"/>
  <g id="_004-payment.eps">
   <polygon fill="#1B3DDC" fill-rule="nonzero" points="308.98,92.21 347.44,92.21 347.44,0 308.98,0 "/>
   <polygon fill="#1B3DDC" fill-rule="nonzero" points="308.98,656.42 347.44,656.42 347.44,564.21 308.98,564.21 "/>
   <polygon fill="#1B3DDC" fill-rule="nonzero" points="564.21,347.44 656.42,347.44 656.42,308.98 564.21,308.98 "/>
   <polygon fill="#1B3DDC" fill-rule="nonzero" points="-0,347.44 92.21,347.44 92.21,308.98 -0,308.98 "/>
   <polygon fill="#1B3DDC" fill-rule="nonzero" points="485.25,143.98 546.68,82.53 573.87,109.73 512.44,171.17 "/>
   <polygon fill="#1B3DDC" fill-rule="nonzero" points="485.23,512.44 512.44,485.25 573.87,546.69 546.68,573.89 "/>
   <polygon fill="#1B3DDC" fill-rule="nonzero" points="82.53,109.73 109.73,82.53 171.17,143.98 143.97,171.17 "/>
   <path fill="#1B3DDC" fill-rule="nonzero" d="M325.67 300.3l5.07 0c2.4,0 4.34,1.95 4.34,4.33l38.46 0c0,-17.68 -10.77,-32.89 -26.1,-39.4l0 -21.5 -38.47 0 0 21.5c-15.33,6.51 -26.11,21.72 -26.11,39.4 0,23.6 19.2,42.81 42.8,42.81l5.07 0c2.4,0 4.34,1.95 4.34,4.34 0,2.39 -1.95,4.33 -4.34,4.33l-5.07 0c-2.4,0 -4.33,-1.95 -4.33,-4.33l-38.47 0c0,17.68 10.78,32.89 26.11,39.4l0 21.5 38.47 0 0 -21.5c15.33,-6.51 26.1,-21.72 26.1,-39.4 0,-23.6 -19.2,-42.81 -42.8,-42.81l-5.07 0c-2.4,0 -4.33,-1.95 -4.33,-4.34 0,-2.39 1.93,-4.33 4.33,-4.33z"/>
   <path fill="#1B3DDC" fill-rule="nonzero" d="M328.2 132.12c-108.13,0 -196.09,87.96 -196.09,196.09 0,20.37 3.1,40.28 9.2,59.43l-139.28 81.7 58.53 33.27 -47.86 84.23 117.54 66.79 47.86 -84.23 58.55 33.27 -0.7 -101.47c28.24,15.07 59.99,23.13 92.25,23.13 108.14,0 196.1,-87.96 196.1,-196.1 0,-108.13 -87.96,-196.09 -196.1,-196.09zm-164.54 384.83l-47.86 84.23 -50.66 -28.79 47.86 -84.22 -34.06 -19.36 117.84 -69.12 0.94 136.61 -34.06 -19.35zm164.54 -31.09c-33.22,0 -65.76,-10.65 -92.56,-30.14l-0.85 -122.9 -59.24 34.75c-3.3,-12.77 -4.98,-25.94 -4.98,-39.35 0,-86.92 70.71,-157.63 157.63,-157.63 86.92,0 157.63,70.71 157.63,157.63 0,86.93 -70.71,157.64 -157.63,157.64z"/>
  </g>
 </g>
</svg>
