<?xml version="1.0" encoding="UTF-8"?>
<!DOCTYPE svg PUBLIC "-//W3C//DTD SVG 1.0//EN" "http://www.w3.org/TR/2001/REC-SVG-20010904/DTD/svg10.dtd">
<!-- Creator: CorelDRAW -->
<svg xmlns="http://www.w3.org/2000/svg" xml:space="preserve" width="5.2062mm" height="5.2976mm" version="1.0" shape-rendering="geometricPrecision" text-rendering="geometricPrecision" image-rendering="optimizeQuality" fill-rule="evenodd" clip-rule="evenodd"
viewBox="0 0 654.98 666.48"
 xmlns:xlink="http://www.w3.org/1999/xlink"
 xmlns:xodm="http://www.corel.com/coreldraw/odm/2003">
 <g id="Layer_x0020_1">
  <metadata id="CorelCorpID_0Corel-Layer"/>
  <g id="_001-early.eps">
   <path fill="#1B3DDC" fill-rule="nonzero" d="M427.41 276.99c6.47,-31.2 5.35,-63.9 -3.41,-94.58 18.62,-11.02 33.28,-28.02 41.35,-48.34l42.75 10.68 9.5 -38.03 -45.42 -11.36c-1.41,-52.81 -44.79,-95.36 -97.94,-95.36 -67.31,0 -114.72,66.67 -92.56,130.21l-227.79 -81.23 -6.58 18.46c-32.92,92.33 4.16,193.85 85.86,243.93l-133.18 133.18 116.26 116.26 67.55 -135.13c27.46,7.51 55.65,8.94 83.32,4.44 -25.56,121.69 67.56,236.37 191.83,236.37 108.09,0 196.02,-87.93 196.02,-196.02 0,-120.3 -108.02,-212.91 -227.57,-193.47zm-53.17 -237.78c32.42,0 58.8,26.38 58.8,58.8 0,32.42 -26.38,58.8 -58.8,58.8 -32.43,0 -58.82,-26.38 -58.82,-58.8 0,-32.42 26.38,-58.8 58.82,-58.8zm-295.49 60.24l196.31 70.02 -113.18 113.18c-65.57,-35.29 -99.58,-110.96 -83.13,-183.2zm26.75 395.16l-50.06 -50.07 56.14 -56.15c11,9.01 22.88,16.75 35.48,23.12l-41.55 83.1zm33.98 -134.12l180.75 -180.75c18.95,12.57 42.25,18.59 66.63,15.45 8.39,30.92 7.17,64.26 -3.62,94.47 -44.5,18.71 -80.69,53.38 -101.36,96.81 -48.89,15.05 -102.29,5.1 -142.39,-25.98zm339.08 265.57l0 -37.98 -39.2 0 0 37.98c-70.83,-8.87 -127.12,-65.17 -135.99,-136l37.97 0 0 -39.2 -37.97 0c8.87,-70.83 65.16,-127.12 135.99,-136l0 37.98 39.2 0 0 -37.98c70.84,8.88 127.13,65.17 136,136l-37.98 0 0 39.2 37.98 0c-8.87,70.83 -65.16,127.12 -136,136z"/>
   <polygon fill="#1B3DDC" fill-rule="nonzero" points="478.56,392.06 439.36,392.06 439.36,490.06 517.78,490.06 517.78,450.86 478.56,450.86 "/>
  </g>
 </g>
</svg>
