<?xml version="1.0" encoding="UTF-8"?>
<!DOCTYPE svg PUBLIC "-//W3C//DTD SVG 1.0//EN" "http://www.w3.org/TR/2001/REC-SVG-20010904/DTD/svg10.dtd">
<!-- Creator: CorelDRAW -->
<svg xmlns="http://www.w3.org/2000/svg" xml:space="preserve" width="5.0702mm" height="5.0701mm" version="1.0" shape-rendering="geometricPrecision" text-rendering="geometricPrecision" image-rendering="optimizeQuality" fill-rule="evenodd" clip-rule="evenodd"
viewBox="0 0 105.88 105.88"
 xmlns:xlink="http://www.w3.org/1999/xlink"
 xmlns:xodm="http://www.corel.com/coreldraw/odm/2003">
 <g id="Layer_x0020_1">
  <metadata id="CorelCorpID_0Corel-Layer"/>
  <g id="_002-discount.eps">
   <polygon fill="#1B3DDC" fill-rule="nonzero" points="68.45,43.56 74.65,43.56 74.65,37.36 68.45,37.36 "/>
   <polygon fill="#1B3DDC" fill-rule="nonzero" points="80.85,68.38 87.06,68.38 87.06,62.17 80.85,62.17 "/>
   <polygon fill="#1B3DDC" fill-rule="nonzero" points="66.66,63.6 84.9,38.51 89.92,42.16 71.68,67.25 "/>
   <path fill="#1B3DDC" fill-rule="nonzero" d="M37.43 62.17l-6.2 0 0 -24.81 -6.2 0c0,3.42 -2.78,6.2 -6.2,6.2l0 6.2c2.26,0 4.38,-0.61 6.2,-1.67l0 14.07 -6.2 0 0 6.2 18.61 0 0 -6.2z"/>
   <path fill="#1B3DDC" fill-rule="nonzero" d="M90.37 15.51c-10,-10 -23.29,-15.51 -37.43,-15.51 -14.14,0 -27.44,5.51 -37.43,15.51 -10,10 -15.51,23.29 -15.51,37.43 0,14.14 5.51,27.44 15.51,37.43 10,10 23.29,15.51 37.43,15.51 14.14,0 27.43,-5.51 37.43,-15.51 10,-10 15.51,-23.29 15.51,-37.43 0,-14.14 -5.51,-27.43 -15.51,-37.43zm-4.39 70.48c-8.83,8.83 -20.56,13.69 -33.05,13.69 -12.48,0 -24.22,-4.86 -33.05,-13.69 -8.83,-8.83 -13.69,-20.56 -13.69,-33.05 0,-12.48 4.86,-24.22 13.69,-33.05 8.83,-8.82 20.56,-13.69 33.05,-13.69 12.48,0 24.22,4.86 33.05,13.69 8.83,8.83 13.69,20.56 13.69,33.05 0,12.48 -4.86,24.22 -13.69,33.05z"/>
   <path fill="#1B3DDC" fill-rule="nonzero" d="M77.21 28.67l4.39 -4.39c-15.8,-15.8 -41.52,-15.8 -57.32,0l4.39 4.39c13.39,-13.39 35.16,-13.39 48.55,0z"/>
   <path fill="#1B3DDC" fill-rule="nonzero" d="M28.67 77.21l-4.39 4.39c7.9,7.9 18.28,11.85 28.66,11.85 10.38,0 20.76,-3.95 28.66,-11.85l-4.39 -4.39c-13.39,13.38 -35.16,13.38 -48.55,0z"/>
   <path fill="#1B3DDC" fill-rule="nonzero" d="M60.51 43.42l0 -6.2 -15.3 0 -2.22 18.01 7.84 0c1.91,0 3.47,1.56 3.47,3.47 0,1.91 -1.56,3.47 -3.47,3.47 -1.15,0 -2.23,-0.57 -2.88,-1.53l-5.14 3.47c1.8,2.67 4.8,4.26 8.02,4.26 5.34,0 9.68,-4.34 9.68,-9.68 0,-5.34 -4.34,-9.68 -9.68,-9.68l-0.82 0 0.69 -5.6 9.82 0z"/>
  </g>
 </g>
</svg>
