<?xml version="1.0" encoding="UTF-8"?>
<!DOCTYPE svg PUBLIC "-//W3C//DTD SVG 1.0//EN" "http://www.w3.org/TR/2001/REC-SVG-20010904/DTD/svg10.dtd">
<!-- Creator: CorelDRAW -->
<svg xmlns="http://www.w3.org/2000/svg" xml:space="preserve" width="43" height="49" version="1.0" shape-rendering="geometricPrecision" text-rendering="geometricPrecision" image-rendering="optimizeQuality" fill-rule="evenodd" clip-rule="evenodd"
viewBox="0 0 10.78 12.2"
 xmlns:xlink="http://www.w3.org/1999/xlink"
 xmlns:xodm="http://www.corel.com/coreldraw/odm/2003"
 enable-background="new 0 0 512 512">
 <g id="Layer_x0020_1">
  <metadata id="CorelCorpID_0Corel-Layer"/>
  <g id="_002-coin.svg">
   <g>
    <path fill="#0000F8" d="M5.38 0c-2.77,0.01 -4.96,2.05 -5.34,4.65l1.68 1.12 1.46 -0.37 0.67 0.34 2.87 0 1.11 0.58 1.17 -0.1 1.75 -0.58c0.13,-3.01 -2.23,-5.63 -5.38,-5.64l0 0zm1.52 5.03l-1.72 0c-0.2,0 -0.36,-0.16 -0.36,-0.36 0,-0.2 0.16,-0.36 0.36,-0.36l0.39 0c0.2,0 0.36,0.16 0.36,0.36l0.71 0c0,-0.54 -0.39,-0.98 -0.91,-1.06l0 -0.48 -0.72 0 0 0.48c-0.52,0.08 -0.91,0.52 -0.91,1.06 0,0.13 0.02,0.25 0.06,0.36l-0.14 0 -0.76 -0.39 -1.09 0.28c0.23,-1.56 1.57,-2.76 3.2,-2.76 1.78,0 3.23,1.45 3.23,3.23 0,0.05 -0,0.11 -0,0.16l-0.62 0.05 -1.09 -0.57zm2.42 0.34c-0.01,-2.17 -1.78,-3.93 -3.95,-3.93 -1.96,0 -3.59,1.44 -3.9,3.31l-0.65 -0.43c0.45,-2.05 2.43,-3.64 4.54,-3.6 2.49,0 4.53,1.96 4.66,4.41l-0.71 0.24z"/>
    <path fill="#0000F8" d="M7.99 7.03l-1.09 -0.57 -2.87 0 -0.76 -0.39 -1.41 0.36 -1.68 -1.12c-0.9,3.6 1.63,6.85 5.2,6.89 3.29,-0.02 5.59,-2.76 5.38,-5.88l-1.9 0.63 -0.88 0.07zm-4.13 0.15l1.72 0c0.2,0 0.36,0.16 0.36,0.36 0,0.2 -0.16,0.36 -0.36,0.36l-0.4 0c-0.19,0 -0.35,-0.16 -0.35,-0.35l-0.71 0c0,0.53 0.4,0.98 0.91,1.05l0 0.48 0.72 0 0 -0.48c0.52,-0.08 0.91,-0.52 0.91,-1.06 0,-0.13 -0.02,-0.25 -0.06,-0.36l0.14 0 1.11 0.58 0.65 -0.05c-0.36,1.34 -1.7,2.37 -3.11,2.35 -1.69,0 -3.08,-1.3 -3.22,-2.96l1.02 -0.26 0.67 0.34zm1.52 4.31c-2.7,-0 -4.82,-2.28 -4.66,-4.95l0.72 0.48c0.1,2.09 1.83,3.75 3.94,3.75 1.83,0.03 3.55,-1.38 3.87,-3.19l0.77 -0.26c-0.25,2.34 -2.24,4.16 -4.64,4.16l0 0z"/>
   </g>
  </g>
 </g>
</svg>
