<?xml version="1.0" encoding="UTF-8"?>
<!DOCTYPE svg PUBLIC "-//W3C//DTD SVG 1.0//EN" "http://www.w3.org/TR/2001/REC-SVG-20010904/DTD/svg10.dtd">
<!-- Creator: CorelDRAW -->
<svg xmlns="http://www.w3.org/2000/svg" xml:space="preserve" width="52" height="52" version="1.0" shape-rendering="geometricPrecision" text-rendering="geometricPrecision" image-rendering="optimizeQuality" fill-rule="evenodd" clip-rule="evenodd"
viewBox="0 0 41.27 41.27"
 xmlns:xlink="http://www.w3.org/1999/xlink"
 xmlns:xodm="http://www.corel.com/coreldraw/odm/2003">
 <g id="Layer_x0020_1">
  <metadata id="CorelCorpID_0Corel-Layer"/>
  <path fill="#0000F8" d="M12.61 26.95l14.33 -14.33 1.71 1.71 -14.33 14.33 -1.71 -1.71zm22.61 -12.36l0 -8.55 -8.55 0 -6.04 -6.04 -6.04 6.04 -8.55 0 0 8.55 -6.04 6.04 6.04 6.04 0 8.55 8.55 0 6.04 6.04 6.04 -6.04 8.55 0 0 -8.55 6.04 -6.04 -6.04 -6.04zm-2.42 11.09l0 7.13 -7.13 0 -5.04 5.04 -5.04 -5.04 -7.13 0 0 -7.13 -5.04 -5.04 5.04 -5.04 0 -7.13 7.13 0 5.04 -5.04 5.04 5.04 7.13 0 0 7.13 5.04 5.04 -5.04 5.04zm-17.29 -6.53c2,0 3.62,-1.63 3.62,-3.62 0,-2 -1.63,-3.62 -3.62,-3.62 -2,0 -3.62,1.62 -3.62,3.62 0,2 1.63,3.62 3.62,3.62zm0 -4.83c0.67,0 1.21,0.54 1.21,1.21 0,0.67 -0.54,1.21 -1.21,1.21 -0.67,0 -1.21,-0.54 -1.21,-1.21 0,-0.67 0.54,-1.21 1.21,-1.21zm10.23 7.81c-2,0 -3.62,1.62 -3.62,3.62 0,2 1.63,3.62 3.62,3.62 2,0 3.62,-1.62 3.62,-3.62 0,-2 -1.63,-3.62 -3.62,-3.62zm0 4.83c-0.67,0 -1.21,-0.54 -1.21,-1.21 0,-0.67 0.54,-1.21 1.21,-1.21 0.67,0 1.21,0.54 1.21,1.21 0,0.67 -0.54,1.21 -1.21,1.21z"/>
 </g>
</svg>
