<?xml version="1.0" encoding="UTF-8"?>
<!DOCTYPE svg PUBLIC "-//W3C//DTD SVG 1.0//EN" "http://www.w3.org/TR/2001/REC-SVG-20010904/DTD/svg10.dtd">
<!-- Creator: CorelDRAW -->
<svg xmlns="http://www.w3.org/2000/svg" xml:space="preserve" width="50" height="46" version="1.0" shape-rendering="geometricPrecision" text-rendering="geometricPrecision" image-rendering="optimizeQuality" fill-rule="evenodd" clip-rule="evenodd"
viewBox="0 0 39.07 35.73"
 xmlns:xlink="http://www.w3.org/1999/xlink"
 xmlns:xodm="http://www.corel.com/coreldraw/odm/2003">
 <g id="Layer_x0020_1">
  <metadata id="CorelCorpID_0Corel-Layer"/>
  <g id="_004-coin-1.svg">
   <g>
    <g>
     <path fill="#0000F8" d="M19.53 6.22l-5.16 5.17 5.16 5.17 5.17 -5.17 -5.17 -5.17zm-1.93 5.17l1.93 -1.93 1.93 1.93 -1.93 1.93 -1.93 -1.93z"/>
    </g>
   </g>
   <g>
    <g>
     <path fill="#0000F8" d="M36.34 16.95c-1.48,-1.72 -3.43,-2.96 -5.59,-3.57 0.11,-0.65 0.18,-1.31 0.18,-1.99 0,-6.28 -5.11,-11.39 -11.39,-11.39 -6.28,0 -11.39,5.11 -11.39,11.39 0,0.68 0.06,1.35 0.18,1.99 -2.16,0.6 -4.12,1.84 -5.59,3.57 -1.76,2.06 -2.73,4.69 -2.73,7.4 0,6.28 5.11,11.39 11.39,11.39 3.12,0 6.02,-1.24 8.15,-3.44 2.07,2.12 4.96,3.44 8.14,3.44 6.28,0 11.39,-5.11 11.39,-11.39 0,-2.71 -0.97,-5.34 -2.73,-7.4zm-16.8 -14.66c5.02,0 9.1,4.08 9.1,9.1 0,5.02 -4.08,9.1 -9.1,9.1 -5.02,0 -9.1,-4.08 -9.1,-9.1 0,-5.02 4.08,-9.1 9.1,-9.1zm-8.15 31.15c-5.02,0 -9.1,-4.08 -9.1,-9.1 0,-2.17 0.77,-4.27 2.18,-5.91 1.18,-1.38 2.75,-2.37 4.48,-2.85 0.82,2.07 2.24,3.85 4.04,5.11l-5.25 0 0 7.31 7.31 0 0 -6.15c0.46,0.2 0.94,0.37 1.43,0.51 -0.12,0.66 -0.18,1.32 -0.18,1.99 0,2.26 0.66,4.37 1.8,6.14 -1.72,1.89 -4.13,2.96 -6.71,2.96zm1.36 -10.46l0 2.73 -2.73 0 0 -2.73 2.73 0zm14.93 10.46c-5.02,0 -9.1,-4.08 -9.1,-9.1 0,-0.54 0.05,-1.08 0.14,-1.6 0.27,0.02 0.53,0.03 0.81,0.03 1.6,0 3.12,-0.33 4.5,-0.93l0 6.15 7.31 0 0 -7.3 -5.25 0c1.8,-1.27 3.21,-3.04 4.04,-5.11 1.73,0.48 3.3,1.47 4.48,2.86 1.41,1.64 2.18,3.74 2.18,5.91 0,5.02 -4.08,9.1 -9.1,9.1zm-1.36 -7.73l0 -2.73 2.73 0 0 2.73 -2.73 0z"/>
    </g>
   </g>
   <g>
   </g>
   <g>
   </g>
   <g>
   </g>
   <g>
   </g>
   <g>
   </g>
   <g>
   </g>
   <g>
   </g>
   <g>
   </g>
   <g>
   </g>
   <g>
   </g>
   <g>
   </g>
   <g>
   </g>
   <g>
   </g>
   <g>
   </g>
   <g>
   </g>
  </g>
 </g>
</svg>
