<?xml version="1.0" encoding="UTF-8"?>
<!DOCTYPE svg PUBLIC "-//W3C//DTD SVG 1.0//EN" "http://www.w3.org/TR/2001/REC-SVG-20010904/DTD/svg10.dtd">
<!-- Creator: CorelDRAW -->
<svg xmlns="http://www.w3.org/2000/svg" xml:space="preserve" width="37" height="56" version="1.0" shape-rendering="geometricPrecision" text-rendering="geometricPrecision" image-rendering="optimizeQuality" fill-rule="evenodd" clip-rule="evenodd"
viewBox="0 0 7.78 12.03"
 xmlns:xlink="http://www.w3.org/1999/xlink"
 xmlns:xodm="http://www.corel.com/coreldraw/odm/2003"
 enable-background="new 0 0 512 512">
 <g id="Layer_x0020_1">
  <metadata id="CorelCorpID_0Corel-Layer"/>
  <g id="_001-price-up.svg">
   <g>
    <path fill="#0000F8" d="M6.72 5.47l0 -3.06 0.71 0 0 -0.64 -1.77 -1.77 -1.77 1.77 0 0.64 0.71 0 0 1.91c-0.23,-0.04 -0.47,-0.07 -0.71,-0.07 -0.24,0 -0.48,0.02 -0.71,0.07l0 -0.78 0.71 0 0 -0.64 -1.77 -1.77 -1.77 1.77 0 0.64 0.71 0 0 1.94c-0.66,0.7 -1.06,1.64 -1.06,2.67 0,2.15 1.75,3.89 3.89,3.89 2.15,0 3.89,-1.75 3.89,-3.89 0,-1.03 -0.4,-1.97 -1.06,-2.67l0 0zm-1.77 -3.77l0.71 -0.71 0.71 0.71 -0.35 0 0 3.18c-0.22,-0.15 -0.46,-0.27 -0.71,-0.37l0 -2.81 -0.35 0zm-2.83 0.42l0.71 0.71 -0.35 0 0 1.68c-0.25,0.1 -0.49,0.22 -0.71,0.37l0 -2.05 -0.35 0 0.71 -0.71zm1.77 9.2c-1.76,0 -3.19,-1.43 -3.19,-3.19 0,-1.76 1.43,-3.19 3.19,-3.19 1.76,0 3.19,1.43 3.19,3.19 0,1.76 -1.43,3.19 -3.19,3.19z"/>
    <path fill="#0000F8" d="M4.08 7.79l-0.37 0c-0.18,0 -0.32,-0.14 -0.32,-0.32 0,-0.18 0.14,-0.32 0.32,-0.32l0.36 0c0.18,0 0.32,0.14 0.32,0.32l0.71 0c0,-0.51 -0.37,-0.93 -0.85,-1.01l0 -0.44 -0.7 0 0 0.44c-0.49,0.08 -0.86,0.5 -0.86,1.01 0,0.57 0.46,1.03 1.03,1.03l0.37 0c0.18,0 0.32,0.14 0.32,0.32 0,0.18 -0.14,0.32 -0.32,0.32l-0.38 0c-0.17,0 -0.31,-0.14 -0.31,-0.31l-0.7 0c0,0.5 0.37,0.92 0.85,1l0 0.44 0.7 0 0 -0.44c0.49,-0.08 0.86,-0.5 0.86,-1.01 0,-0.57 -0.46,-1.03 -1.03,-1.03l0 0z"/>
   </g>
  </g>
 </g>
</svg>
