<?xml version="1.0" encoding="UTF-8"?>
<!DOCTYPE svg PUBLIC "-//W3C//DTD SVG 1.0//EN" "http://www.w3.org/TR/2001/REC-SVG-20010904/DTD/svg10.dtd">
<!-- Creator: CorelDRAW -->
<svg xmlns="http://www.w3.org/2000/svg" xml:space="preserve" width="6.0506mm" height="12.4234mm" version="1.0" shape-rendering="geometricPrecision" text-rendering="geometricPrecision" image-rendering="optimizeQuality" fill-rule="evenodd" clip-rule="evenodd"
viewBox="0 0 37.24 76.47"
 xmlns:xlink="http://www.w3.org/1999/xlink"
 xmlns:xodm="http://www.corel.com/coreldraw/odm/2003">
 <g id="Layer_x0020_1">
  <metadata id="CorelCorpID_0Corel-Layer"/>
  <g id="_2012988893264">
   <path fill="#4545FA" d="M17.91 76.45c-9.42,-0.48 -17.16,-8.22 -17.88,-17.64 -0.48,-8.94 5.56,-16.92 13.77,-19.09 2.66,-0.48 4.35,-2.66 4.35,-5.32 0,-24.89 0,-24.89 0,-24.89 0,-1.45 -0.73,-2.9 -1.69,-3.87 -0.73,-0.73 -1.21,-1.69 -0.97,-2.9 0.24,-1.45 1.45,-2.42 2.66,-2.66 2.17,-0.48 4.11,1.21 4.11,3.14 0,1.21 -0.48,1.93 -1.21,2.66 -1.21,0.97 -1.69,2.66 -1.69,4.11 0,24.41 0,24.41 0,24.41 0,2.42 1.69,4.83 4.11,5.32 7.98,2.18 13.77,9.42 13.77,18.12 0,10.63 -8.7,19.09 -19.33,18.61l0 0z"/>
   <path fill="#4545FA" d="M20.08 3.23c0,-0.73 -0.73,-1.21 -1.45,-1.21 -0.73,0 -1.21,0.48 -1.21,1.21 0,0.73 0.48,1.45 1.21,1.45 0.73,0 1.45,-0.72 1.45,-1.45l0 0z"/>
  </g>
 </g>
</svg>
