<?xml version="1.0" encoding="UTF-8"?>
<!DOCTYPE svg PUBLIC "-//W3C//DTD SVG 1.0//EN" "http://www.w3.org/TR/2001/REC-SVG-20010904/DTD/svg10.dtd">
<!-- Creator: CorelDRAW -->
<svg xmlns="http://www.w3.org/2000/svg" xml:space="preserve" width="3.6227mm" height="3.5743mm" version="1.0" shape-rendering="geometricPrecision" text-rendering="geometricPrecision" image-rendering="optimizeQuality" fill-rule="evenodd" clip-rule="evenodd"
viewBox="0 0 13.68 13.5"
 xmlns:xlink="http://www.w3.org/1999/xlink"
 xmlns:xodm="http://www.corel.com/coreldraw/odm/2003">
 <g id="Layer_x0020_1">
  <metadata id="CorelCorpID_0Corel-Layer"/>
  <g id="_002-browser.eps">
   <path fill="#FEFEFE" fill-rule="nonzero" d="M12.92 0l-12.16 0c-0.42,0 -0.76,0.34 -0.76,0.76l0 9.38c0,0.42 0.34,0.76 0.76,0.76l12.16 0c0.42,0 0.76,-0.34 0.76,-0.76l0 -9.38c0,-0.42 -0.34,-0.76 -0.76,-0.76zm0 10.39l-12.16 0c-0.14,0 -0.25,-0.11 -0.25,-0.25l0 -9.38c0,-0.14 0.11,-0.25 0.25,-0.25l12.16 0c0.14,0 0.25,0.11 0.25,0.25l0 0.51 -7.35 0c-0.14,0 -0.25,0.11 -0.25,0.25 0,0.14 0.11,0.25 0.25,0.25l7.35 0 0 8.36c0,0.14 -0.11,0.25 -0.25,0.25z"/>
   <path fill="#FEFEFE" fill-rule="nonzero" d="M12.54 12.17c-0.1,-0.1 -0.26,-0.1 -0.36,0l-0.27 0.27 -0.27 -0.27c-0.1,-0.1 -0.26,-0.1 -0.36,0 -0.1,0.1 -0.1,0.26 0,0.36l0.27 0.27 -0.27 0.27c-0.1,0.1 -0.1,0.26 0,0.36 0.05,0.05 0.11,0.07 0.18,0.07 0.06,0 0.13,-0.02 0.18,-0.07l0.27 -0.27 0.27 0.27c0.05,0.05 0.11,0.07 0.18,0.07 0.06,0 0.13,-0.02 0.18,-0.07 0.1,-0.1 0.1,-0.26 0,-0.36l-0.27 -0.27 0.27 -0.27c0.1,-0.1 0.1,-0.26 0,-0.36z"/>
   <path fill="#FEFEFE" fill-rule="nonzero" d="M1.52 1.14c0,0.21 -0.17,0.38 -0.38,0.38 -0.21,0 -0.38,-0.17 -0.38,-0.38 0,-0.21 0.17,-0.38 0.38,-0.38 0.21,0 0.38,0.17 0.38,0.38z"/>
   <path fill="#FEFEFE" fill-rule="nonzero" d="M2.53 1.14c0,0.21 -0.17,0.38 -0.38,0.38 -0.21,0 -0.38,-0.17 -0.38,-0.38 0,-0.21 0.17,-0.38 0.38,-0.38 0.21,0 0.38,0.17 0.38,0.38z"/>
   <path fill="#FEFEFE" fill-rule="nonzero" d="M3.55 1.14c0,0.21 -0.17,0.38 -0.38,0.38 -0.21,0 -0.38,-0.17 -0.38,-0.38 0,-0.21 0.17,-0.38 0.38,-0.38 0.21,0 0.38,0.17 0.38,0.38z"/>
   <path fill="#FEFEFE" fill-rule="nonzero" d="M3.67 11.66c-0.49,0 -0.89,0.4 -0.89,0.89 0,0.49 0.4,0.89 0.89,0.89 0.49,0 0.89,-0.4 0.89,-0.89 0,-0.49 -0.4,-0.89 -0.89,-0.89zm0 1.27c-0.21,0 -0.38,-0.17 -0.38,-0.38 0,-0.21 0.17,-0.38 0.38,-0.38 0.21,0 0.38,0.17 0.38,0.38 0,0.21 -0.17,0.38 -0.38,0.38z"/>
   <path fill="#FEFEFE" fill-rule="nonzero" d="M7.73 11.5c-0.16,0 -0.29,0.13 -0.29,0.29 0,0.16 0.13,0.29 0.29,0.29 0.16,0 0.29,-0.13 0.29,-0.29 0,-0.16 -0.13,-0.29 -0.29,-0.29z"/>
   <path fill="#FEFEFE" fill-rule="nonzero" d="M10.14 3.04l1.52 0c0.14,0 0.25,-0.11 0.25,-0.25 0,-0.14 -0.11,-0.25 -0.25,-0.25l-1.52 0c-0.14,0 -0.25,0.11 -0.25,0.25 0,0.14 0.11,0.25 0.25,0.25z"/>
   <path fill="#FEFEFE" fill-rule="nonzero" d="M10.14 3.8l1.01 0c0.14,0 0.25,-0.11 0.25,-0.25 0,-0.14 -0.11,-0.25 -0.25,-0.25l-1.01 0c-0.14,0 -0.25,0.11 -0.25,0.25 0,0.14 0.11,0.25 0.25,0.25z"/>
   <path fill="#FEFEFE" fill-rule="nonzero" d="M12.16 4.05l-2.03 0c-0.14,0 -0.25,0.11 -0.25,0.25 0,0.14 0.11,0.25 0.25,0.25l2.03 0c0.14,0 0.25,-0.11 0.25,-0.25 0,-0.14 -0.11,-0.25 -0.25,-0.25z"/>
   <path fill="#FEFEFE" fill-rule="nonzero" d="M9.88 8.11c-0.42,0 -0.76,0.34 -0.76,0.76 0,0.42 0.34,0.76 0.76,0.76 0.42,0 0.76,-0.34 0.76,-0.76 0,-0.42 -0.34,-0.76 -0.76,-0.76zm0 1.01c-0.14,0 -0.25,-0.11 -0.25,-0.25 0,-0.14 0.11,-0.25 0.25,-0.25 0.14,0 0.25,0.11 0.25,0.25 0,0.14 -0.11,0.25 -0.25,0.25z"/>
   <path fill="#FEFEFE" fill-rule="nonzero" d="M11.66 8.11c-0.42,0 -0.76,0.34 -0.76,0.76 0,0.42 0.34,0.76 0.76,0.76 0.42,0 0.76,-0.34 0.76,-0.76 0,-0.42 -0.34,-0.76 -0.76,-0.76zm0 1.01c-0.14,0 -0.25,-0.11 -0.25,-0.25 0,-0.14 0.11,-0.25 0.25,-0.25 0.14,0 0.25,0.11 0.25,0.25 0,0.14 -0.11,0.25 -0.25,0.25z"/>
   <path fill="#FEFEFE" fill-rule="nonzero" d="M9.34 3.42c-0.05,-0.08 -0.13,-0.13 -0.22,-0.13l-1.21 0c-0.09,0 -0.18,0.05 -0.22,0.14l-1.26 2.41 -0.42 -0.44c-0.05,-0.05 -0.11,-0.08 -0.18,-0.08l-1.27 0c-0.1,0 -0.19,0.06 -0.23,0.15 -0.04,0.09 -0.02,0.2 0.04,0.27l2.13 2.34c0.05,0.05 0.12,0.08 0.19,0.08 0.01,0 0.02,-0 0.03,-0 0.08,-0.01 0.15,-0.06 0.19,-0.13l2.43 -4.36c0.04,-0.08 0.04,-0.17 -0,-0.25zm-2.7 4.06l-1.5 -1.65 0.58 0 0.58 0.62c0.06,0.06 0.14,0.09 0.22,0.08 0.08,-0.01 0.15,-0.06 0.19,-0.13l1.35 -2.59 0.62 0 -2.05 3.68z"/>
   <path fill="#FEFEFE" fill-rule="nonzero" d="M3.55 2.53l-2.03 0c-0.14,0 -0.25,0.11 -0.25,0.25 0,0.14 0.11,0.25 0.25,0.25l2.03 0c0.14,0 0.25,-0.11 0.25,-0.25 0,-0.14 -0.11,-0.25 -0.25,-0.25z"/>
   <path fill="#FEFEFE" fill-rule="nonzero" d="M3.04 3.29l-1.52 0c-0.14,0 -0.25,0.11 -0.25,0.25 0,0.14 0.11,0.25 0.25,0.25l1.52 0c0.14,0 0.25,-0.11 0.25,-0.25 0,-0.14 -0.11,-0.25 -0.25,-0.25z"/>
   <path fill="#FEFEFE" fill-rule="nonzero" d="M5.57 3.55c0,-0.14 -0.11,-0.25 -0.25,-0.25l-1.27 0c-0.14,0 -0.25,0.11 -0.25,0.25 0,0.14 0.11,0.25 0.25,0.25l1.27 0c0.14,0 0.25,-0.11 0.25,-0.25z"/>
   <path fill="#FEFEFE" fill-rule="nonzero" d="M3.04 8.62l-1.52 0c-0.14,0 -0.25,0.11 -0.25,0.25l0 0.76c0,0.14 0.11,0.25 0.25,0.25l1.52 0c0.14,0 0.25,-0.11 0.25,-0.25l0 -0.76c0,-0.14 -0.11,-0.25 -0.25,-0.25zm-0.25 0.76l-1.01 0 0 -0.25 1.01 0 0 0.25z"/>
  </g>
 </g>
</svg>
