<?xml version="1.0" encoding="UTF-8"?>
<!DOCTYPE svg PUBLIC "-//W3C//DTD SVG 1.0//EN" "http://www.w3.org/TR/2001/REC-SVG-20010904/DTD/svg10.dtd">
<!-- Creator: CorelDRAW -->
<svg xmlns="http://www.w3.org/2000/svg" xml:space="preserve" width="4.1545mm" height="3.5313mm" version="1.0" shape-rendering="geometricPrecision" text-rendering="geometricPrecision" image-rendering="optimizeQuality" fill-rule="evenodd" clip-rule="evenodd"
viewBox="0 0 48.96 41.61"
 xmlns:xlink="http://www.w3.org/1999/xlink"
 xmlns:xodm="http://www.corel.com/coreldraw/odm/2003">
 <g id="Layer_x0020_1">
  <metadata id="CorelCorpID_0Corel-Layer"/>
  <g id="_002-briefcase.eps">
   <path fill="#FEFEFE" fill-rule="nonzero" d="M18.77 37.53l-9.4 0c-2.91,0 -5.28,-2.37 -5.28,-5.28l0 -15.93c0,-0.45 0.37,-0.82 0.82,-0.82 0.45,0 0.82,0.37 0.82,0.82l0 15.93c0,2.01 1.64,3.65 3.65,3.65l9.4 0c0.45,0 0.82,0.37 0.82,0.82 0,0.45 -0.37,0.82 -0.82,0.82z"/>
   <path fill="#FEFEFE" fill-rule="nonzero" d="M39.6 37.53l-7.77 0c-0.45,0 -0.82,-0.37 -0.82,-0.82 0,-0.45 0.37,-0.82 0.82,-0.82l7.77 0c2.01,0 3.65,-1.64 3.65,-3.65l0 -15.93c0,-0.45 0.37,-0.82 0.82,-0.82 0.45,0 0.82,0.37 0.82,0.82l0 15.93c0,2.91 -2.37,5.28 -5.28,5.28z"/>
   <path fill="#FEFEFE" fill-rule="nonzero" d="M25.29 41.61c-4.05,0 -7.34,-3.29 -7.34,-7.34 0,-4.05 3.29,-7.34 7.34,-7.34 4.05,0 7.34,3.29 7.34,7.34 0,4.05 -3.29,7.34 -7.34,7.34zm0 -13.05c-3.15,0 -5.71,2.56 -5.71,5.71 0,3.15 2.56,5.71 5.71,5.71 3.15,0 5.71,-2.56 5.71,-5.71 0,-3.15 -2.56,-5.71 -5.71,-5.71z"/>
   <path fill="#FEFEFE" fill-rule="nonzero" d="M22.94 30.46c0,-0.07 0.04,-0.11 0.11,-0.11l2.84 0c1.62,0 2.38,0.81 2.38,2.03 0,0.86 -0.4,1.36 -0.89,1.62l0 0.02c0.47,0.18 1.02,0.79 1.02,1.72 0,1.52 -0.95,2.24 -2.62,2.24l-2.73 0c-0.07,0 -0.11,-0.04 -0.11,-0.11l0 -7.4zm2.92 3.06c0.67,0 1.09,-0.4 1.09,-1 0,-0.61 -0.41,-1.01 -1.09,-1.01l-1.52 0c-0.04,0 -0.07,0.02 -0.07,0.07l0 1.87c0,0.04 0.02,0.07 0.07,0.07l1.52 0zm-1.52 3.29l1.59 0c0.74,0 1.15,-0.43 1.15,-1.07 0,-0.63 -0.41,-1.05 -1.15,-1.05l-1.59 0c-0.04,0 -0.07,0.02 -0.07,0.07l0 1.99c0,0.05 0.02,0.07 0.07,0.07z"/>
   <path fill="#FEFEFE" fill-rule="nonzero" d="M24.89 31.01c-0.23,0 -0.41,-0.18 -0.41,-0.41l0 -0.82c0,-0.23 0.18,-0.41 0.41,-0.41 0.23,0 0.41,0.18 0.41,0.41l0 0.82c0,0.23 -0.18,0.41 -0.41,0.41z"/>
   <path fill="#FEFEFE" fill-rule="nonzero" d="M24.89 39.16c-0.23,0 -0.41,-0.18 -0.41,-0.41l0 -0.82c0,-0.23 0.18,-0.41 0.41,-0.41 0.23,0 0.41,0.18 0.41,0.41l0 0.82c0,0.23 -0.18,0.41 -0.41,0.41z"/>
   <path fill="#FEFEFE" fill-rule="nonzero" d="M32.31 17.14l-14.81 0c-0.45,0 -0.82,-0.37 -0.82,-0.82 0,-0.45 0.37,-0.82 0.82,-0.82l14.81 0c0.45,0 0.82,0.37 0.82,0.82 0,0.45 -0.37,0.82 -0.82,0.82z"/>
   <path fill="#FEFEFE" fill-rule="nonzero" d="M42.63 17.14l-4.61 0c-0.45,0 -0.82,-0.37 -0.82,-0.82 0,-0.45 0.37,-0.82 0.82,-0.82l4.61 0c2.59,0 4.69,-2.11 4.69,-4.69l0 -4.28 -45.69 0 0 4.28c0,2.59 2.11,4.69 4.69,4.69l5.47 0c0.45,0 0.82,0.37 0.82,0.82 0,0.45 -0.36,0.82 -0.82,0.82l-5.47 0c-3.49,0 -6.33,-2.84 -6.33,-6.33l0 -5.1c0,-0.45 0.37,-0.82 0.82,-0.82l47.32 0c0.45,0 0.82,0.36 0.82,0.82l0 5.1c0,3.49 -2.84,6.33 -6.33,6.33z"/>
   <path fill="#FEFEFE" fill-rule="nonzero" d="M31.82 6.53l-14.69 0c-0.45,0 -0.82,-0.37 -0.82,-0.82l0 -1.92c0,-2.09 1.7,-3.79 3.79,-3.79l8.74 0c2.09,0 3.79,1.7 3.79,3.79l0 1.92c0,0.45 -0.37,0.82 -0.82,0.82zm-13.87 -1.63l13.06 0 0 -1.11c0,-1.19 -0.97,-2.16 -2.16,-2.16l-8.74 0c-1.19,0 -2.16,0.97 -2.16,2.16l0 1.11z"/>
   <path fill="#FEFEFE" fill-rule="nonzero" d="M14.69 22.03c-1.8,0 -3.26,-1.46 -3.26,-3.26l0 -5.71c0,-0.45 0.37,-0.82 0.82,-0.82l4.9 0c0.45,0 0.82,0.37 0.82,0.82l0 5.71c0,1.8 -1.46,3.26 -3.26,3.26zm-1.63 -8.16l0 4.9c0,0.9 0.73,1.63 1.63,1.63 0.9,0 1.63,-0.73 1.63,-1.63l0 -4.9 -3.26 0z"/>
   <path fill="#FEFEFE" fill-rule="nonzero" d="M35.09 22.03c-1.8,0 -3.26,-1.46 -3.26,-3.26l0 -5.71c0,-0.45 0.37,-0.82 0.82,-0.82l4.9 0c0.45,0 0.82,0.37 0.82,0.82l0 5.71c0,1.8 -1.46,3.26 -3.26,3.26zm-1.63 -8.16l0 4.9c0,0.9 0.73,1.63 1.63,1.63 0.9,0 1.63,-0.73 1.63,-1.63l0 -4.9 -3.26 0z"/>
  </g>
 </g>
</svg>
