<?xml version="1.0" encoding="UTF-8"?>
<!DOCTYPE svg PUBLIC "-//W3C//DTD SVG 1.0//EN" "http://www.w3.org/TR/2001/REC-SVG-20010904/DTD/svg10.dtd">
<!-- Creator: CorelDRAW -->
<svg xmlns="http://www.w3.org/2000/svg" xml:space="preserve" width="3.6122mm" height="3.5501mm" version="1.0" shape-rendering="geometricPrecision" text-rendering="geometricPrecision" image-rendering="optimizeQuality" fill-rule="evenodd" clip-rule="evenodd"
viewBox="0 0 16.42 16.13"
 xmlns:xlink="http://www.w3.org/1999/xlink"
 xmlns:xodm="http://www.corel.com/coreldraw/odm/2003">
 <g id="Layer_x0020_1">
  <metadata id="CorelCorpID_0Corel-Layer"/>
  <g id="_003-profits.eps">
   <path fill="#FEFEFE" fill-rule="nonzero" d="M0.57 15.57l15.28 0 0 -0.28 -15.28 0 0 0.28zm15.57 0.57l-15.85 0c-0.16,0 -0.28,-0.13 -0.28,-0.28l0 -0.85c0,-0.16 0.13,-0.28 0.28,-0.28l15.85 0c0.16,0 0.28,0.13 0.28,0.28l0 0.85c0,0.16 -0.13,0.28 -0.28,0.28z"/>
   <path fill="#FEFEFE" fill-rule="nonzero" d="M12.28 3.11c-0.37,0 -0.68,0.3 -0.68,0.68l0 8.83c0,0.37 0.3,0.68 0.68,0.68l0.91 0c0.37,0 0.68,-0.3 0.68,-0.68l0 -8.83c0,-0.37 -0.3,-0.68 -0.68,-0.68l-0.91 0zm0.91 10.76l-0.91 0c-0.69,0 -1.25,-0.56 -1.25,-1.25l0 -8.83c0,-0.69 0.56,-1.25 1.25,-1.25l0.91 0c0.69,0 1.25,0.56 1.25,1.25l0 8.83c0,0.69 -0.56,1.25 -1.25,1.25z"/>
   <path fill="#FEFEFE" fill-rule="nonzero" d="M7.65 5.66c-0.32,0 -0.57,0.26 -0.57,0.57l0 6.5c0,0.32 0.26,0.57 0.57,0.57l1.12 0c0.32,0 0.57,-0.26 0.57,-0.57l0 -6.5c0,-0.32 -0.26,-0.57 -0.57,-0.57l-1.12 0zm1.12 8.21l-1.12 0c-0.63,0 -1.14,-0.51 -1.14,-1.14l0 -6.5c0,-0.63 0.51,-1.14 1.14,-1.14l1.12 0c0.63,0 1.14,0.51 1.14,1.14l0 6.5c0,0.63 -0.51,1.14 -1.14,1.14z"/>
   <path fill="#FEFEFE" fill-rule="nonzero" d="M2.98 8.49c-0.24,0 -0.44,0.2 -0.44,0.44l0 3.94c0,0.24 0.2,0.44 0.44,0.44l1.39 0c0.24,0 0.44,-0.2 0.44,-0.44l0 -3.94c0,-0.24 -0.2,-0.44 -0.44,-0.44l-1.39 0zm1.39 5.38l-1.39 0c-0.55,0 -1,-0.45 -1,-1l0 -3.94c0,-0.55 0.45,-1 1,-1l1.39 0c0.55,0 1,0.45 1,1l0 3.94c0,0.55 -0.45,1 -1,1z"/>
   <path fill="#FEFEFE" fill-rule="nonzero" d="M0.85 6.23c-0.14,0 -0.26,-0.1 -0.28,-0.25 -0.02,-0.15 0.09,-0.3 0.24,-0.32 0.04,-0.01 4.22,-0.58 7.24,-3.25 0.12,-0.1 0.3,-0.09 0.4,0.02 0.1,0.12 0.09,0.3 -0.02,0.4 -3.16,2.79 -7.36,3.36 -7.54,3.39 -0.01,0 -0.02,0 -0.04,0z"/>
   <path fill="#FEFEFE" fill-rule="nonzero" d="M7.85 1.79l1.12 1.12 0.93 -2.05 -2.05 0.93zm1.21 1.89c-0.07,0 -0.15,-0.03 -0.2,-0.08l-1.7 -1.7c-0.07,-0.07 -0.09,-0.16 -0.08,-0.25 0.02,-0.09 0.08,-0.17 0.16,-0.21l3.11 -1.42c0.11,-0.05 0.23,-0.03 0.32,0.06 0.08,0.08 0.11,0.21 0.06,0.32l-1.42 3.11c-0.04,0.08 -0.12,0.14 -0.21,0.16 -0.02,0 -0.03,0 -0.05,0z"/>
  </g>
 </g>
</svg>
