<?xml version="1.0" encoding="UTF-8"?>
<!DOCTYPE svg PUBLIC "-//W3C//DTD SVG 1.0//EN" "http://www.w3.org/TR/2001/REC-SVG-20010904/DTD/svg10.dtd">
<!-- Creator: CorelDRAW -->
<svg xmlns="http://www.w3.org/2000/svg" xml:space="preserve" width="2.6961mm" height="4.186mm" version="1.0" shape-rendering="geometricPrecision" text-rendering="geometricPrecision" image-rendering="optimizeQuality" fill-rule="evenodd" clip-rule="evenodd"
viewBox="0 0 100.76 156.44"
 xmlns:xlink="http://www.w3.org/1999/xlink"
 xmlns:xodm="http://www.corel.com/coreldraw/odm/2003">
 <g id="Layer_x0020_1">
  <metadata id="CorelCorpID_0Corel-Layer"/>
  <g id="_001-tax.eps">
   <path fill="#FEFEFE" fill-rule="nonzero" d="M93.95 37.12l-10.04 0c-1.46,0 -2.65,1.19 -2.65,2.65 0,1.46 1.19,2.65 2.65,2.65l10.04 0c0.83,0 1.5,0.68 1.5,1.5l0 105.71c0,0.83 -0.67,1.5 -1.5,1.5l-87.15 0c-0.83,0 -1.5,-0.68 -1.5,-1.5l0 -105.71c0,-0.83 0.67,-1.5 1.5,-1.5l11.3 0c1.46,0 2.65,-1.19 2.65,-2.65 0,-1.46 -1.19,-2.65 -2.65,-2.65l-11.3 0c-3.75,0 -6.81,3.05 -6.81,6.81l0 105.7c0,3.76 3.06,6.81 6.81,6.81l87.15 0c3.75,0 6.81,-3.05 6.81,-6.81l0 -105.71c0,-3.75 -3.05,-6.81 -6.81,-6.81z"/>
   <path fill="#FEFEFE" fill-rule="nonzero" d="M82.2 0l-47.72 0c-0.7,0 -1.38,0.28 -1.87,0.78l-15.91 15.91c-0.5,0.49 -0.78,1.17 -0.78,1.87l0 34.47c0,1.46 1.19,2.65 2.65,2.65l63.63 0c1.46,0 2.66,-1.19 2.66,-2.65l0 -50.38c0,-1.46 -1.19,-2.65 -2.66,-2.65zm-2.65 50.38l-58.33 0 0 -30.72 14.36 -14.35 43.98 0 0 45.08z"/>
   <path fill="#FEFEFE" fill-rule="nonzero" d="M34.47 0c-1.46,0 -2.65,1.19 -2.65,2.65l0 13.26 -13.26 0c-1.46,0 -2.65,1.19 -2.65,2.65 0,1.46 1.19,2.65 2.65,2.65l15.91 0c1.46,0 2.65,-1.19 2.65,-2.65l0 -15.91c0,-1.46 -1.18,-2.65 -2.65,-2.65z"/>
   <path fill="#FEFEFE" fill-rule="nonzero" d="M23.86 50.38l-10.6 0c-1.46,0 -2.65,1.18 -2.65,2.65 0,1.46 1.18,2.65 2.65,2.65l10.6 0c1.46,0 2.66,-1.19 2.66,-2.65 0,-1.46 -1.19,-2.65 -2.66,-2.65z"/>
   <path fill="#FEFEFE" fill-rule="nonzero" d="M87.5 50.38l-10.61 0c-1.46,0 -2.65,1.18 -2.65,2.65 0,1.46 1.19,2.65 2.65,2.65l10.61 0c1.46,0 2.65,-1.19 2.65,-2.65 0,-1.46 -1.18,-2.65 -2.65,-2.65z"/>
   <path fill="#FEFEFE" fill-rule="nonzero" d="M79.55 63.64l-60.98 0c-1.46,0 -2.65,1.18 -2.65,2.65l0 15.91c0,1.46 1.19,2.65 2.65,2.65l60.98 0c1.46,0 2.65,-1.18 2.65,-2.65l0 -15.91c0,-1.46 -1.18,-2.65 -2.65,-2.65zm-2.65 15.91l-55.68 0 0 -10.61 55.68 0 0 10.61z"/>
   <path fill="#FEFEFE" fill-rule="nonzero" d="M31.82 92.81l-15.91 0c-1.46,0 -2.65,1.18 -2.65,2.65l0 10.6c0,1.46 1.19,2.66 2.65,2.66l15.91 0c1.46,0 2.65,-1.19 2.65,-2.66l0 -10.6c0,-1.46 -1.19,-2.65 -2.65,-2.65zm-2.65 10.6l-10.61 0 0 -5.3 10.61 0 0 5.3z"/>
   <path fill="#FEFEFE" fill-rule="nonzero" d="M82.2 92.81l-15.91 0c-1.46,0 -2.65,1.18 -2.65,2.65l0 10.6c0,1.46 1.19,2.66 2.65,2.66l15.91 0c1.46,0 2.66,-1.19 2.66,-2.66l0 -10.6c0,-1.46 -1.19,-2.65 -2.66,-2.65zm-2.65 10.6l-10.6 0 0 -5.3 10.6 0 0 5.3z"/>
   <path fill="#FEFEFE" fill-rule="nonzero" d="M55.68 92.81l-13.26 0c-1.46,0 -2.65,1.18 -2.65,2.65l0 10.6c0,1.46 1.19,2.66 2.65,2.66l13.26 0c1.46,0 2.65,-1.19 2.65,-2.66l0 -10.6c0,-1.46 -1.19,-2.65 -2.65,-2.65zm-2.65 10.6l-7.96 0 0 -5.3 7.96 0 0 5.3z"/>
   <path fill="#FEFEFE" fill-rule="nonzero" d="M31.82 114.01l-15.91 0c-1.46,0 -2.65,1.19 -2.65,2.65l0 10.6c0,1.46 1.19,2.65 2.65,2.65l15.91 0c1.46,0 2.65,-1.19 2.65,-2.65l0 -10.6c0,-1.46 -1.19,-2.65 -2.65,-2.65zm-2.65 10.61l-10.61 0 0 -5.3 10.61 0 0 5.3z"/>
   <path fill="#FEFEFE" fill-rule="nonzero" d="M82.2 114.01l-39.77 0c-1.46,0 -2.65,1.19 -2.65,2.65l0 10.6c0,1.46 1.19,2.65 2.65,2.65l39.77 0c1.46,0 2.66,-1.19 2.66,-2.65l0 -10.6c0,-1.46 -1.19,-2.65 -2.66,-2.65zm-2.65 10.61l-34.47 0 0 -5.3 34.47 0 0 5.3z"/>
   <path fill="#FEFEFE" fill-rule="nonzero" d="M82.2 135.23l-66.29 0c-1.46,0 -2.65,1.19 -2.65,2.65 0,1.46 1.19,2.65 2.65,2.65l66.29 0c1.46,0 2.65,-1.19 2.65,-2.65 0,-1.46 -1.19,-2.65 -2.65,-2.65z"/>
  </g>
 </g>
</svg>
