<?xml version="1.0" encoding="UTF-8"?>
<!DOCTYPE svg PUBLIC "-//W3C//DTD SVG 1.0//EN" "http://www.w3.org/TR/2001/REC-SVG-20010904/DTD/svg10.dtd">
<!-- Creator: CorelDRAW -->
<svg xmlns="http://www.w3.org/2000/svg" xml:space="preserve" width="6.0506mm" height="12.4234mm" version="1.0" shape-rendering="geometricPrecision" text-rendering="geometricPrecision" image-rendering="optimizeQuality" fill-rule="evenodd" clip-rule="evenodd"
viewBox="0 0 67.04 137.65"
 xmlns:xlink="http://www.w3.org/1999/xlink"
 xmlns:xodm="http://www.corel.com/coreldraw/odm/2003">
 <g id="Layer_x0020_1">
  <metadata id="CorelCorpID_0Corel-Layer"/>
  <g id="_2012988887984">
   <path fill="#4545FA" d="M32.24 0.04c-16.97,0.87 -30.88,14.79 -32.19,31.76 -0.87,16.09 10.01,30.45 24.8,34.36 4.79,0.87 7.83,4.79 7.83,9.57 0,44.81 0,44.81 0,44.81 0,2.61 -1.31,5.22 -3.04,6.96 -1.31,1.31 -2.17,3.04 -1.74,5.22 0.44,2.61 2.61,4.35 4.79,4.79 3.91,0.87 7.39,-2.17 7.39,-5.66 0,-2.17 -0.87,-3.48 -2.17,-4.78 -2.17,-1.74 -3.04,-4.79 -3.04,-7.4 0,-43.94 0,-43.94 0,-43.94 0,-4.35 3.04,-8.7 7.39,-9.57 14.36,-3.92 24.8,-16.97 24.8,-32.63 0,-19.14 -15.66,-34.36 -34.8,-33.5l0 0z"/>
   <path fill="#4545FA" d="M36.15 131.84c0,1.31 -1.31,2.17 -2.61,2.17 -1.31,0 -2.17,-0.87 -2.17,-2.17 0,-1.31 0.87,-2.61 2.17,-2.61 1.31,0 2.61,1.3 2.61,2.61l0 0z"/>
  </g>
 </g>
</svg>
