<?xml version="1.0" encoding="UTF-8"?>
<!DOCTYPE svg PUBLIC "-//W3C//DTD SVG 1.0//EN" "http://www.w3.org/TR/2001/REC-SVG-20010904/DTD/svg10.dtd">
<!-- Creator: CorelDRAW -->
<svg xmlns="http://www.w3.org/2000/svg" xml:space="preserve" width="3.2448mm" height="3.4994mm" version="1.0" shape-rendering="geometricPrecision" text-rendering="geometricPrecision" image-rendering="optimizeQuality" fill-rule="evenodd" clip-rule="evenodd"
viewBox="0 0 20.28 21.87"
 xmlns:xlink="http://www.w3.org/1999/xlink"
 xmlns:xodm="http://www.corel.com/coreldraw/odm/2003">
 <g id="Layer_x0020_1">
  <metadata id="CorelCorpID_0Corel-Layer"/>
  <g id="_003-chart.eps">
   <path fill="#FEFEFE" fill-rule="nonzero" d="M3.13 2.83c0.08,0.08 0.18,0.12 0.28,0.12 0.1,0 0.2,-0.04 0.28,-0.12l0.28 -0.28 0.28 0.28c0.08,0.08 0.18,0.12 0.28,0.12 0.1,0 0.2,-0.04 0.28,-0.12 0.15,-0.16 0.15,-0.41 0,-0.56l-0.28 -0.28 0.28 -0.28c0.15,-0.16 0.15,-0.41 0,-0.56 -0.16,-0.15 -0.41,-0.15 -0.56,0l-0.28 0.28 -0.28 -0.28c-0.15,-0.15 -0.41,-0.15 -0.56,0 -0.16,0.16 -0.16,0.41 0,0.56l0.28 0.28 -0.28 0.28c-0.16,0.16 -0.16,0.41 0,0.56z"/>
   <path fill="#FEFEFE" fill-rule="nonzero" d="M7.16 0.8c0,0.22 -0.18,0.4 -0.4,0.4 -0.22,0 -0.4,-0.18 -0.4,-0.4 0,-0.22 0.18,-0.4 0.4,-0.4 0.22,0 0.4,0.18 0.4,0.4z"/>
   <path fill="#FEFEFE" fill-rule="nonzero" d="M12.33 2.39c0.66,0 1.19,-0.53 1.19,-1.19 0,-0.66 -0.53,-1.19 -1.19,-1.19 -0.66,0 -1.19,0.53 -1.19,1.19 0,0.66 0.53,1.19 1.19,1.19zm0 -1.59c0.22,0 0.4,0.18 0.4,0.4 0,0.22 -0.18,0.4 -0.4,0.4 -0.22,0 -0.4,-0.18 -0.4,-0.4 0,-0.22 0.18,-0.4 0.4,-0.4z"/>
   <path fill="#FEFEFE" fill-rule="nonzero" d="M1.43 13.21c0.2,0 0.43,-0.04 0.72,-0.14 0.43,-0.15 0.89,-0.42 1.13,-0.67 0.15,-0.15 0.25,-0.33 0.32,-0.52l0.94 0.94c0.08,0.08 0.18,0.12 0.28,0.12 0.1,0 0.2,-0.04 0.28,-0.12l1.33 -1.33c0.07,-0.07 0.11,-0.17 0.12,-0.27l0.07 -2.17 0.96 -0.96c0.73,-0.73 1.26,-1.62 1.55,-2.59l0.17 -0.57c0.04,-0.14 0,-0.29 -0.1,-0.39 -0.1,-0.1 -0.25,-0.14 -0.39,-0.1l-0.55 0.15c0,0 0,0 -0,0 -1,0.27 -1.92,0.82 -2.68,1.57l-0.93 0.93 -2.17 0.07c-0.1,0 -0.2,0.04 -0.27,0.12l-1.33 1.33c-0.15,0.16 -0.15,0.41 0,0.56l0.95 0.95c-0.19,0.06 -0.38,0.17 -0.53,0.32 -0.24,0.24 -0.51,0.7 -0.67,1.13 -0.28,0.79 -0.1,1.2 0.1,1.4 0.13,0.13 0.34,0.25 0.67,0.25zm2.28 -2.36l-0.84 -0.84 2.53 -2.53 0.84 0.84 -2.53 2.53zm2.06 0.19l-0.94 0.94 -0.56 -0.56 1.54 -1.54 -0.04 1.16zm2.57 -5.64c-0.25,0.79 -0.7,1.53 -1.31,2.14l-0.23 0.23 -0.84 -0.84 0.19 -0.19c0.62,-0.62 1.37,-1.08 2.19,-1.33zm-5.66 2.55l1.16 -0.04 -1.54 1.54 -0.56 -0.56 0.94 -0.94zm-0.8 3.05c0.11,-0.11 0.26,-0.17 0.42,-0.17 0.16,0 0.31,0.06 0.42,0.17 0.11,0.11 0.17,0.26 0.17,0.42 0,0.16 -0.06,0.31 -0.17,0.42 -0.35,0.35 -1.24,0.67 -1.4,0.57 -0.11,-0.17 0.21,-1.06 0.56,-1.41z"/>
   <path fill="#FEFEFE" fill-rule="nonzero" d="M19.88 21.07l-0.4 0 0 -17.89c0,-0.44 -0.36,-0.8 -0.8,-0.8l-1.19 0c-0.44,0 -0.8,0.36 -0.8,0.8l0 17.89 -1.19 0 0 -15.5c0,-0.44 -0.36,-0.8 -0.8,-0.8l-1.19 0c-0.44,0 -0.8,0.36 -0.8,0.8l0 15.5 -1.19 0 0 -10.73c0,-0.44 -0.36,-0.8 -0.8,-0.8l-1.19 0c-0.44,0 -0.8,0.36 -0.8,0.8l0 10.73 -1.19 0 0 -5.96c0,-0.44 -0.36,-0.8 -0.8,-0.8l-1.19 0c-0.44,0 -0.8,0.36 -0.8,0.8l0 5.96 -1.19 0 0 -4.77c0,-0.44 -0.36,-0.8 -0.8,-0.8l-1.19 0c-0.44,0 -0.8,0.36 -0.8,0.8l0 4.77 -0.4 0c-0.22,0 -0.4,0.18 -0.4,0.4 0,0.22 0.18,0.4 0.4,0.4l19.48 0c0.22,0 0.4,-0.18 0.4,-0.4 0,-0.22 -0.18,-0.4 -0.4,-0.4zm-18.29 0l0 -4.77 1.19 0 0 4.77 -1.19 0zm3.98 0l0 -5.96 1.19 0 0 5.96 -1.19 0zm3.98 0l0 -10.74 1.19 0 0 10.73 -1.19 0zm3.98 0l0 -15.51 1.19 0 0 15.5 -1.19 0zm3.98 0l0 -17.89 1.19 0 0 17.89 -1.19 0z"/>
  </g>
 </g>
</svg>
