<?xml version="1.0" encoding="UTF-8"?>
<!DOCTYPE svg PUBLIC "-//W3C//DTD SVG 1.0//EN" "http://www.w3.org/TR/2001/REC-SVG-20010904/DTD/svg10.dtd">
<!-- Creator: CorelDRAW -->
<svg xmlns="http://www.w3.org/2000/svg" xml:space="preserve" width="14.4046mm" height="13.64mm" version="1.0" shape-rendering="geometricPrecision" text-rendering="geometricPrecision" image-rendering="optimizeQuality" fill-rule="evenodd" clip-rule="evenodd"
viewBox="0 0 425.99 403.38"
 xmlns:xlink="http://www.w3.org/1999/xlink"
 xmlns:xodm="http://www.corel.com/coreldraw/odm/2003">
 <g id="Layer_x0020_1">
  <metadata id="CorelCorpID_0Corel-Layer"/>
  <g id="_1975967119216">
   <g>
    <path fill="none" fill-rule="nonzero" stroke="#D9DADA" stroke-width="9.56" stroke-linecap="round" stroke-linejoin="round" stroke-miterlimit="10" d="M20.79 391.57c0,4.96 -4.02,8.98 -8.98,8.98 -4.96,0 -8.98,-4.02 -8.98,-8.98 0,-4.96 4.02,-8.98 8.98,-8.98 4.96,0 8.98,4.02 8.98,8.98z"/>
    <path fill="none" fill-rule="nonzero" stroke="#D9DADA" stroke-width="9.56" stroke-linecap="round" stroke-linejoin="round" stroke-miterlimit="10" d="M78.27 391.57c0,4.96 -4.02,8.98 -8.98,8.98 -4.96,0 -8.98,-4.02 -8.98,-8.98 0,-4.96 4.02,-8.98 8.98,-8.98 4.96,0 8.98,4.02 8.98,8.98z"/>
    <path fill="none" fill-rule="nonzero" stroke="#D9DADA" stroke-width="9.56" stroke-linecap="round" stroke-linejoin="round" stroke-miterlimit="10" d="M135.75 391.57c0,4.96 -4.02,8.98 -8.98,8.98 -4.96,0 -8.98,-4.02 -8.98,-8.98 0,-4.96 4.02,-8.98 8.98,-8.98 4.96,0 8.98,4.02 8.98,8.98z"/>
    <path fill="none" fill-rule="nonzero" stroke="#D9DADA" stroke-width="9.56" stroke-linecap="round" stroke-linejoin="round" stroke-miterlimit="10" d="M193.23 391.57c0,4.96 -4.02,8.98 -8.98,8.98 -4.96,0 -8.98,-4.02 -8.98,-8.98 0,-4.96 4.02,-8.98 8.98,-8.98 4.96,0 8.98,4.02 8.98,8.98z"/>
    <path fill="none" fill-rule="nonzero" stroke="#D9DADA" stroke-width="9.56" stroke-linecap="round" stroke-linejoin="round" stroke-miterlimit="10" d="M250.72 391.57c0,4.96 -4.02,8.98 -8.98,8.98 -4.96,0 -8.98,-4.02 -8.98,-8.98 0,-4.96 4.02,-8.98 8.98,-8.98 4.96,0 8.98,4.02 8.98,8.98z"/>
    <path fill="none" fill-rule="nonzero" stroke="#D9DADA" stroke-width="9.56" stroke-linecap="round" stroke-linejoin="round" stroke-miterlimit="10" d="M308.2 391.57c0,4.96 -4.02,8.98 -8.98,8.98 -4.96,0 -8.98,-4.02 -8.98,-8.98 0,-4.96 4.02,-8.98 8.98,-8.98 4.96,0 8.98,4.02 8.98,8.98z"/>
    <path fill="none" fill-rule="nonzero" stroke="#D9DADA" stroke-width="9.56" stroke-linecap="round" stroke-linejoin="round" stroke-miterlimit="10" d="M365.68 391.57c0,4.96 -4.02,8.98 -8.98,8.98 -4.96,0 -8.98,-4.02 -8.98,-8.98 0,-4.96 4.02,-8.98 8.98,-8.98 4.96,0 8.98,4.02 8.98,8.98z"/>
    <path fill="none" fill-rule="nonzero" stroke="#D9DADA" stroke-width="9.56" stroke-linecap="round" stroke-linejoin="round" stroke-miterlimit="10" d="M423.16 391.57c0,4.96 -4.02,8.98 -8.98,8.98 -4.96,0 -8.98,-4.02 -8.98,-8.98 0,-4.96 4.02,-8.98 8.98,-8.98 4.96,0 8.98,4.02 8.98,8.98z"/>
   </g>
   <g>
    <path fill="none" fill-rule="nonzero" stroke="#D9DADA" stroke-width="9.56" stroke-linecap="round" stroke-linejoin="round" stroke-miterlimit="10" d="M20.79 337.32c0,4.96 -4.02,8.98 -8.98,8.98 -4.96,0 -8.98,-4.02 -8.98,-8.98 0,-4.96 4.02,-8.98 8.98,-8.98 4.96,0 8.98,4.02 8.98,8.98z"/>
    <path fill="none" fill-rule="nonzero" stroke="#D9DADA" stroke-width="9.56" stroke-linecap="round" stroke-linejoin="round" stroke-miterlimit="10" d="M78.27 337.32c0,4.96 -4.02,8.98 -8.98,8.98 -4.96,0 -8.98,-4.02 -8.98,-8.98 0,-4.96 4.02,-8.98 8.98,-8.98 4.96,0 8.98,4.02 8.98,8.98z"/>
    <path fill="none" fill-rule="nonzero" stroke="#D9DADA" stroke-width="9.56" stroke-linecap="round" stroke-linejoin="round" stroke-miterlimit="10" d="M135.75 337.32c0,4.96 -4.02,8.98 -8.98,8.98 -4.96,0 -8.98,-4.02 -8.98,-8.98 0,-4.96 4.02,-8.98 8.98,-8.98 4.96,0 8.98,4.02 8.98,8.98z"/>
    <path fill="none" fill-rule="nonzero" stroke="#D9DADA" stroke-width="9.56" stroke-linecap="round" stroke-linejoin="round" stroke-miterlimit="10" d="M193.23 337.32c0,4.96 -4.02,8.98 -8.98,8.98 -4.96,0 -8.98,-4.02 -8.98,-8.98 0,-4.96 4.02,-8.98 8.98,-8.98 4.96,0 8.98,4.02 8.98,8.98z"/>
    <path fill="none" fill-rule="nonzero" stroke="#D9DADA" stroke-width="9.56" stroke-linecap="round" stroke-linejoin="round" stroke-miterlimit="10" d="M250.72 337.32c0,4.96 -4.02,8.98 -8.98,8.98 -4.96,0 -8.98,-4.02 -8.98,-8.98 0,-4.96 4.02,-8.98 8.98,-8.98 4.96,0 8.98,4.02 8.98,8.98z"/>
    <path fill="none" fill-rule="nonzero" stroke="#D9DADA" stroke-width="9.56" stroke-linecap="round" stroke-linejoin="round" stroke-miterlimit="10" d="M308.2 337.32c0,4.96 -4.02,8.98 -8.98,8.98 -4.96,0 -8.98,-4.02 -8.98,-8.98 0,-4.96 4.02,-8.98 8.98,-8.98 4.96,0 8.98,4.02 8.98,8.98z"/>
    <path fill="none" fill-rule="nonzero" stroke="#D9DADA" stroke-width="9.56" stroke-linecap="round" stroke-linejoin="round" stroke-miterlimit="10" d="M365.68 337.32c0,4.96 -4.02,8.98 -8.98,8.98 -4.96,0 -8.98,-4.02 -8.98,-8.98 0,-4.96 4.02,-8.98 8.98,-8.98 4.96,0 8.98,4.02 8.98,8.98z"/>
    <path fill="none" fill-rule="nonzero" stroke="#D9DADA" stroke-width="9.56" stroke-linecap="round" stroke-linejoin="round" stroke-miterlimit="10" d="M423.16 337.32c0,4.96 -4.02,8.98 -8.98,8.98 -4.96,0 -8.98,-4.02 -8.98,-8.98 0,-4.96 4.02,-8.98 8.98,-8.98 4.96,0 8.98,4.02 8.98,8.98z"/>
   </g>
   <g>
    <path fill="none" fill-rule="nonzero" stroke="#D9DADA" stroke-width="9.56" stroke-linecap="round" stroke-linejoin="round" stroke-miterlimit="10" d="M20.79 283.07c0,4.96 -4.02,8.98 -8.98,8.98 -4.96,0 -8.98,-4.02 -8.98,-8.98 0,-4.96 4.02,-8.98 8.98,-8.98 4.96,0 8.98,4.02 8.98,8.98z"/>
    <path fill="none" fill-rule="nonzero" stroke="#D9DADA" stroke-width="9.56" stroke-linecap="round" stroke-linejoin="round" stroke-miterlimit="10" d="M78.27 283.07c0,4.96 -4.02,8.98 -8.98,8.98 -4.96,0 -8.98,-4.02 -8.98,-8.98 0,-4.96 4.02,-8.98 8.98,-8.98 4.96,0 8.98,4.02 8.98,8.98z"/>
    <path fill="none" fill-rule="nonzero" stroke="#D9DADA" stroke-width="9.56" stroke-linecap="round" stroke-linejoin="round" stroke-miterlimit="10" d="M135.75 283.07c0,4.96 -4.02,8.98 -8.98,8.98 -4.96,0 -8.98,-4.02 -8.98,-8.98 0,-4.96 4.02,-8.98 8.98,-8.98 4.96,0 8.98,4.02 8.98,8.98z"/>
    <path fill="none" fill-rule="nonzero" stroke="#D9DADA" stroke-width="9.56" stroke-linecap="round" stroke-linejoin="round" stroke-miterlimit="10" d="M193.23 283.07c0,4.96 -4.02,8.98 -8.98,8.98 -4.96,0 -8.98,-4.02 -8.98,-8.98 0,-4.96 4.02,-8.98 8.98,-8.98 4.96,0 8.98,4.02 8.98,8.98z"/>
    <path fill="none" fill-rule="nonzero" stroke="#D9DADA" stroke-width="9.56" stroke-linecap="round" stroke-linejoin="round" stroke-miterlimit="10" d="M250.72 283.07c0,4.96 -4.02,8.98 -8.98,8.98 -4.96,0 -8.98,-4.02 -8.98,-8.98 0,-4.96 4.02,-8.98 8.98,-8.98 4.96,0 8.98,4.02 8.98,8.98z"/>
    <path fill="none" fill-rule="nonzero" stroke="#D9DADA" stroke-width="9.56" stroke-linecap="round" stroke-linejoin="round" stroke-miterlimit="10" d="M308.2 283.07c0,4.96 -4.02,8.98 -8.98,8.98 -4.96,0 -8.98,-4.02 -8.98,-8.98 0,-4.96 4.02,-8.98 8.98,-8.98 4.96,0 8.98,4.02 8.98,8.98z"/>
    <path fill="none" fill-rule="nonzero" stroke="#D9DADA" stroke-width="9.56" stroke-linecap="round" stroke-linejoin="round" stroke-miterlimit="10" d="M365.68 283.07c0,4.96 -4.02,8.98 -8.98,8.98 -4.96,0 -8.98,-4.02 -8.98,-8.98 0,-4.96 4.02,-8.98 8.98,-8.98 4.96,0 8.98,4.02 8.98,8.98z"/>
    <path fill="none" fill-rule="nonzero" stroke="#D9DADA" stroke-width="9.56" stroke-linecap="round" stroke-linejoin="round" stroke-miterlimit="10" d="M423.16 283.07c0,4.96 -4.02,8.98 -8.98,8.98 -4.96,0 -8.98,-4.02 -8.98,-8.98 0,-4.96 4.02,-8.98 8.98,-8.98 4.96,0 8.98,4.02 8.98,8.98z"/>
   </g>
   <g>
    <path fill="none" fill-rule="nonzero" stroke="#D9DADA" stroke-width="9.56" stroke-linecap="round" stroke-linejoin="round" stroke-miterlimit="10" d="M20.79 228.82c0,4.96 -4.02,8.98 -8.98,8.98 -4.96,0 -8.98,-4.02 -8.98,-8.98 0,-4.96 4.02,-8.98 8.98,-8.98 4.96,0 8.98,4.02 8.98,8.98z"/>
    <path fill="none" fill-rule="nonzero" stroke="#D9DADA" stroke-width="9.56" stroke-linecap="round" stroke-linejoin="round" stroke-miterlimit="10" d="M78.27 228.82c0,4.96 -4.02,8.98 -8.98,8.98 -4.96,0 -8.98,-4.02 -8.98,-8.98 0,-4.96 4.02,-8.98 8.98,-8.98 4.96,0 8.98,4.02 8.98,8.98z"/>
    <path fill="none" fill-rule="nonzero" stroke="#D9DADA" stroke-width="9.56" stroke-linecap="round" stroke-linejoin="round" stroke-miterlimit="10" d="M135.75 228.82c0,4.96 -4.02,8.98 -8.98,8.98 -4.96,0 -8.98,-4.02 -8.98,-8.98 0,-4.96 4.02,-8.98 8.98,-8.98 4.96,0 8.98,4.02 8.98,8.98z"/>
    <path fill="none" fill-rule="nonzero" stroke="#D9DADA" stroke-width="9.56" stroke-linecap="round" stroke-linejoin="round" stroke-miterlimit="10" d="M193.23 228.82c0,4.96 -4.02,8.98 -8.98,8.98 -4.96,0 -8.98,-4.02 -8.98,-8.98 0,-4.96 4.02,-8.98 8.98,-8.98 4.96,0 8.98,4.02 8.98,8.98z"/>
    <path fill="none" fill-rule="nonzero" stroke="#D9DADA" stroke-width="9.56" stroke-linecap="round" stroke-linejoin="round" stroke-miterlimit="10" d="M250.72 228.82c0,4.96 -4.02,8.98 -8.98,8.98 -4.96,0 -8.98,-4.02 -8.98,-8.98 0,-4.96 4.02,-8.98 8.98,-8.98 4.96,0 8.98,4.02 8.98,8.98z"/>
    <path fill="none" fill-rule="nonzero" stroke="#D9DADA" stroke-width="9.56" stroke-linecap="round" stroke-linejoin="round" stroke-miterlimit="10" d="M308.2 228.82c0,4.96 -4.02,8.98 -8.98,8.98 -4.96,0 -8.98,-4.02 -8.98,-8.98 0,-4.96 4.02,-8.98 8.98,-8.98 4.96,0 8.98,4.02 8.98,8.98z"/>
    <path fill="none" fill-rule="nonzero" stroke="#D9DADA" stroke-width="9.56" stroke-linecap="round" stroke-linejoin="round" stroke-miterlimit="10" d="M365.68 228.82c0,4.96 -4.02,8.98 -8.98,8.98 -4.96,0 -8.98,-4.02 -8.98,-8.98 0,-4.96 4.02,-8.98 8.98,-8.98 4.96,0 8.98,4.02 8.98,8.98z"/>
    <path fill="none" fill-rule="nonzero" stroke="#D9DADA" stroke-width="9.56" stroke-linecap="round" stroke-linejoin="round" stroke-miterlimit="10" d="M423.16 228.82c0,4.96 -4.02,8.98 -8.98,8.98 -4.96,0 -8.98,-4.02 -8.98,-8.98 0,-4.96 4.02,-8.98 8.98,-8.98 4.96,0 8.98,4.02 8.98,8.98z"/>
   </g>
   <g>
    <path fill="none" fill-rule="nonzero" stroke="#D9DADA" stroke-width="9.56" stroke-linecap="round" stroke-linejoin="round" stroke-miterlimit="10" d="M20.79 174.57c0,4.96 -4.02,8.98 -8.98,8.98 -4.96,0 -8.98,-4.02 -8.98,-8.98 0,-4.96 4.02,-8.98 8.98,-8.98 4.96,0 8.98,4.02 8.98,8.98z"/>
    <path fill="none" fill-rule="nonzero" stroke="#D9DADA" stroke-width="9.56" stroke-linecap="round" stroke-linejoin="round" stroke-miterlimit="10" d="M78.27 174.57c0,4.96 -4.02,8.98 -8.98,8.98 -4.96,0 -8.98,-4.02 -8.98,-8.98 0,-4.96 4.02,-8.98 8.98,-8.98 4.96,0 8.98,4.02 8.98,8.98z"/>
    <path fill="none" fill-rule="nonzero" stroke="#D9DADA" stroke-width="9.56" stroke-linecap="round" stroke-linejoin="round" stroke-miterlimit="10" d="M135.75 174.57c0,4.96 -4.02,8.98 -8.98,8.98 -4.96,0 -8.98,-4.02 -8.98,-8.98 0,-4.96 4.02,-8.98 8.98,-8.98 4.96,0 8.98,4.02 8.98,8.98z"/>
    <path fill="none" fill-rule="nonzero" stroke="#D9DADA" stroke-width="9.56" stroke-linecap="round" stroke-linejoin="round" stroke-miterlimit="10" d="M193.23 174.57c0,4.96 -4.02,8.98 -8.98,8.98 -4.96,0 -8.98,-4.02 -8.98,-8.98 0,-4.96 4.02,-8.98 8.98,-8.98 4.96,0 8.98,4.02 8.98,8.98z"/>
    <path fill="none" fill-rule="nonzero" stroke="#D9DADA" stroke-width="9.56" stroke-linecap="round" stroke-linejoin="round" stroke-miterlimit="10" d="M250.72 174.57c0,4.96 -4.02,8.98 -8.98,8.98 -4.96,0 -8.98,-4.02 -8.98,-8.98 0,-4.96 4.02,-8.98 8.98,-8.98 4.96,0 8.98,4.02 8.98,8.98z"/>
    <path fill="none" fill-rule="nonzero" stroke="#D9DADA" stroke-width="9.56" stroke-linecap="round" stroke-linejoin="round" stroke-miterlimit="10" d="M308.2 174.57c0,4.96 -4.02,8.98 -8.98,8.98 -4.96,0 -8.98,-4.02 -8.98,-8.98 0,-4.96 4.02,-8.98 8.98,-8.98 4.96,0 8.98,4.02 8.98,8.98z"/>
    <path fill="none" fill-rule="nonzero" stroke="#D9DADA" stroke-width="9.56" stroke-linecap="round" stroke-linejoin="round" stroke-miterlimit="10" d="M365.68 174.57c0,4.96 -4.02,8.98 -8.98,8.98 -4.96,0 -8.98,-4.02 -8.98,-8.98 0,-4.96 4.02,-8.98 8.98,-8.98 4.96,0 8.98,4.02 8.98,8.98z"/>
    <path fill="none" fill-rule="nonzero" stroke="#D9DADA" stroke-width="9.56" stroke-linecap="round" stroke-linejoin="round" stroke-miterlimit="10" d="M423.16 174.57c0,4.96 -4.02,8.98 -8.98,8.98 -4.96,0 -8.98,-4.02 -8.98,-8.98 0,-4.96 4.02,-8.98 8.98,-8.98 4.96,0 8.98,4.02 8.98,8.98z"/>
   </g>
   <g>
    <path fill="none" fill-rule="nonzero" stroke="#D9DADA" stroke-width="9.56" stroke-linecap="round" stroke-linejoin="round" stroke-miterlimit="10" d="M20.79 120.31c0,4.96 -4.02,8.98 -8.98,8.98 -4.96,0 -8.98,-4.02 -8.98,-8.98 0,-4.96 4.02,-8.98 8.98,-8.98 4.96,0 8.98,4.02 8.98,8.98z"/>
    <path fill="none" fill-rule="nonzero" stroke="#D9DADA" stroke-width="9.56" stroke-linecap="round" stroke-linejoin="round" stroke-miterlimit="10" d="M78.27 120.31c0,4.96 -4.02,8.98 -8.98,8.98 -4.96,0 -8.98,-4.02 -8.98,-8.98 0,-4.96 4.02,-8.98 8.98,-8.98 4.96,0 8.98,4.02 8.98,8.98z"/>
    <path fill="none" fill-rule="nonzero" stroke="#D9DADA" stroke-width="9.56" stroke-linecap="round" stroke-linejoin="round" stroke-miterlimit="10" d="M135.75 120.31c0,4.96 -4.02,8.98 -8.98,8.98 -4.96,0 -8.98,-4.02 -8.98,-8.98 0,-4.96 4.02,-8.98 8.98,-8.98 4.96,0 8.98,4.02 8.98,8.98z"/>
    <path fill="none" fill-rule="nonzero" stroke="#D9DADA" stroke-width="9.56" stroke-linecap="round" stroke-linejoin="round" stroke-miterlimit="10" d="M193.23 120.31c0,4.96 -4.02,8.98 -8.98,8.98 -4.96,0 -8.98,-4.02 -8.98,-8.98 0,-4.96 4.02,-8.98 8.98,-8.98 4.96,0 8.98,4.02 8.98,8.98z"/>
    <path fill="none" fill-rule="nonzero" stroke="#D9DADA" stroke-width="9.56" stroke-linecap="round" stroke-linejoin="round" stroke-miterlimit="10" d="M250.72 120.31c0,4.96 -4.02,8.98 -8.98,8.98 -4.96,0 -8.98,-4.02 -8.98,-8.98 0,-4.96 4.02,-8.98 8.98,-8.98 4.96,0 8.98,4.02 8.98,8.98z"/>
    <path fill="none" fill-rule="nonzero" stroke="#D9DADA" stroke-width="9.56" stroke-linecap="round" stroke-linejoin="round" stroke-miterlimit="10" d="M308.2 120.31c0,4.96 -4.02,8.98 -8.98,8.98 -4.96,0 -8.98,-4.02 -8.98,-8.98 0,-4.96 4.02,-8.98 8.98,-8.98 4.96,0 8.98,4.02 8.98,8.98z"/>
    <path fill="none" fill-rule="nonzero" stroke="#D9DADA" stroke-width="9.56" stroke-linecap="round" stroke-linejoin="round" stroke-miterlimit="10" d="M365.68 120.31c0,4.96 -4.02,8.98 -8.98,8.98 -4.96,0 -8.98,-4.02 -8.98,-8.98 0,-4.96 4.02,-8.98 8.98,-8.98 4.96,0 8.98,4.02 8.98,8.98z"/>
    <path fill="none" fill-rule="nonzero" stroke="#D9DADA" stroke-width="9.56" stroke-linecap="round" stroke-linejoin="round" stroke-miterlimit="10" d="M423.16 120.31c0,4.96 -4.02,8.98 -8.98,8.98 -4.96,0 -8.98,-4.02 -8.98,-8.98 0,-4.96 4.02,-8.98 8.98,-8.98 4.96,0 8.98,4.02 8.98,8.98z"/>
   </g>
   <g>
    <path fill="none" fill-rule="nonzero" stroke="#D9DADA" stroke-width="9.56" stroke-linecap="round" stroke-linejoin="round" stroke-miterlimit="10" d="M20.79 66.06c0,4.96 -4.02,8.98 -8.98,8.98 -4.96,0 -8.98,-4.02 -8.98,-8.98 0,-4.96 4.02,-8.98 8.98,-8.98 4.96,0 8.98,4.02 8.98,8.98z"/>
    <path fill="none" fill-rule="nonzero" stroke="#D9DADA" stroke-width="9.56" stroke-linecap="round" stroke-linejoin="round" stroke-miterlimit="10" d="M78.27 66.06c0,4.96 -4.02,8.98 -8.98,8.98 -4.96,0 -8.98,-4.02 -8.98,-8.98 0,-4.96 4.02,-8.98 8.98,-8.98 4.96,0 8.98,4.02 8.98,8.98z"/>
    <path fill="none" fill-rule="nonzero" stroke="#D9DADA" stroke-width="9.56" stroke-linecap="round" stroke-linejoin="round" stroke-miterlimit="10" d="M135.75 66.06c0,4.96 -4.02,8.98 -8.98,8.98 -4.96,0 -8.98,-4.02 -8.98,-8.98 0,-4.96 4.02,-8.98 8.98,-8.98 4.96,0 8.98,4.02 8.98,8.98z"/>
    <path fill="none" fill-rule="nonzero" stroke="#D9DADA" stroke-width="9.56" stroke-linecap="round" stroke-linejoin="round" stroke-miterlimit="10" d="M193.23 66.06c0,4.96 -4.02,8.98 -8.98,8.98 -4.96,0 -8.98,-4.02 -8.98,-8.98 0,-4.96 4.02,-8.98 8.98,-8.98 4.96,0 8.98,4.02 8.98,8.98z"/>
    <path fill="none" fill-rule="nonzero" stroke="#D9DADA" stroke-width="9.56" stroke-linecap="round" stroke-linejoin="round" stroke-miterlimit="10" d="M250.72 66.06c0,4.96 -4.02,8.98 -8.98,8.98 -4.96,0 -8.98,-4.02 -8.98,-8.98 0,-4.96 4.02,-8.98 8.98,-8.98 4.96,0 8.98,4.02 8.98,8.98z"/>
    <path fill="none" fill-rule="nonzero" stroke="#D9DADA" stroke-width="9.56" stroke-linecap="round" stroke-linejoin="round" stroke-miterlimit="10" d="M308.2 66.06c0,4.96 -4.02,8.98 -8.98,8.98 -4.96,0 -8.98,-4.02 -8.98,-8.98 0,-4.96 4.02,-8.98 8.98,-8.98 4.96,0 8.98,4.02 8.98,8.98z"/>
    <path fill="none" fill-rule="nonzero" stroke="#D9DADA" stroke-width="9.56" stroke-linecap="round" stroke-linejoin="round" stroke-miterlimit="10" d="M365.68 66.06c0,4.96 -4.02,8.98 -8.98,8.98 -4.96,0 -8.98,-4.02 -8.98,-8.98 0,-4.96 4.02,-8.98 8.98,-8.98 4.96,0 8.98,4.02 8.98,8.98z"/>
    <path fill="none" fill-rule="nonzero" stroke="#D9DADA" stroke-width="9.56" stroke-linecap="round" stroke-linejoin="round" stroke-miterlimit="10" d="M423.16 66.06c0,4.96 -4.02,8.98 -8.98,8.98 -4.96,0 -8.98,-4.02 -8.98,-8.98 0,-4.96 4.02,-8.98 8.98,-8.98 4.96,0 8.98,4.02 8.98,8.98z"/>
   </g>
   <g>
    <path fill="none" fill-rule="nonzero" stroke="#D9DADA" stroke-width="9.56" stroke-linecap="round" stroke-linejoin="round" stroke-miterlimit="10" d="M20.79 11.81c0,4.96 -4.02,8.98 -8.98,8.98 -4.96,0 -8.98,-4.02 -8.98,-8.98 0,-4.96 4.02,-8.98 8.98,-8.98 4.96,0 8.98,4.02 8.98,8.98z"/>
    <path fill="none" fill-rule="nonzero" stroke="#D9DADA" stroke-width="9.56" stroke-linecap="round" stroke-linejoin="round" stroke-miterlimit="10" d="M78.27 11.81c0,4.96 -4.02,8.98 -8.98,8.98 -4.96,0 -8.98,-4.02 -8.98,-8.98 0,-4.96 4.02,-8.98 8.98,-8.98 4.96,0 8.98,4.02 8.98,8.98z"/>
    <path fill="none" fill-rule="nonzero" stroke="#D9DADA" stroke-width="9.56" stroke-linecap="round" stroke-linejoin="round" stroke-miterlimit="10" d="M135.75 11.81c0,4.96 -4.02,8.98 -8.98,8.98 -4.96,0 -8.98,-4.02 -8.98,-8.98 0,-4.96 4.02,-8.98 8.98,-8.98 4.96,0 8.98,4.02 8.98,8.98z"/>
    <path fill="none" fill-rule="nonzero" stroke="#D9DADA" stroke-width="9.56" stroke-linecap="round" stroke-linejoin="round" stroke-miterlimit="10" d="M193.23 11.81c0,4.96 -4.02,8.98 -8.98,8.98 -4.96,0 -8.98,-4.02 -8.98,-8.98 0,-4.96 4.02,-8.98 8.98,-8.98 4.96,0 8.98,4.02 8.98,8.98z"/>
    <path fill="none" fill-rule="nonzero" stroke="#D9DADA" stroke-width="9.56" stroke-linecap="round" stroke-linejoin="round" stroke-miterlimit="10" d="M250.72 11.81c0,4.96 -4.02,8.98 -8.98,8.98 -4.96,0 -8.98,-4.02 -8.98,-8.98 0,-4.96 4.02,-8.98 8.98,-8.98 4.96,0 8.98,4.02 8.98,8.98z"/>
    <path fill="none" fill-rule="nonzero" stroke="#D9DADA" stroke-width="9.56" stroke-linecap="round" stroke-linejoin="round" stroke-miterlimit="10" d="M308.2 11.81c0,4.96 -4.02,8.98 -8.98,8.98 -4.96,0 -8.98,-4.02 -8.98,-8.98 0,-4.96 4.02,-8.98 8.98,-8.98 4.96,0 8.98,4.02 8.98,8.98z"/>
    <path fill="none" fill-rule="nonzero" stroke="#D9DADA" stroke-width="9.56" stroke-linecap="round" stroke-linejoin="round" stroke-miterlimit="10" d="M365.68 11.81c0,4.96 -4.02,8.98 -8.98,8.98 -4.96,0 -8.98,-4.02 -8.98,-8.98 0,-4.96 4.02,-8.98 8.98,-8.98 4.96,0 8.98,4.02 8.98,8.98z"/>
    <path fill="none" fill-rule="nonzero" stroke="#D9DADA" stroke-width="9.56" stroke-linecap="round" stroke-linejoin="round" stroke-miterlimit="10" d="M423.16 11.81c0,4.96 -4.02,8.98 -8.98,8.98 -4.96,0 -8.98,-4.02 -8.98,-8.98 0,-4.96 4.02,-8.98 8.98,-8.98 4.96,0 8.98,4.02 8.98,8.98z"/>
   </g>
  </g>
 </g>
</svg>
