<?xml version="1.0" encoding="UTF-8"?>
<!DOCTYPE svg PUBLIC "-//W3C//DTD SVG 1.0//EN" "http://www.w3.org/TR/2001/REC-SVG-20010904/DTD/svg10.dtd">
<!-- Creator: CorelDRAW -->
<svg xmlns="http://www.w3.org/2000/svg" xml:space="preserve" width="4.6901mm" height="11.7813mm" version="1.0" shape-rendering="geometricPrecision" text-rendering="geometricPrecision" image-rendering="optimizeQuality" fill-rule="evenodd" clip-rule="evenodd"
viewBox="0 0 16.18 40.64"
 xmlns:xlink="http://www.w3.org/1999/xlink"
 xmlns:xodm="http://www.corel.com/coreldraw/odm/2003">
 <g id="Layer_x0020_1">
  <metadata id="CorelCorpID_0Corel-Layer"/>
  <g id="_2012457463504">
   <path fill="#D9DADA" fill-rule="nonzero" d="M13.55 30.72c-0.11,0 -0.22,-0.05 -0.31,-0.13l-5.15 -5.15 -5.15 5.15c-0.08,0.08 -0.19,0.13 -0.3,0.13 -0.11,0 -0.22,-0.05 -0.3,-0.13l-2.2 -2.2c-0.17,-0.17 -0.17,-0.44 0,-0.61l7.66 -7.66c0.17,-0.17 0.44,-0.17 0.61,0l7.66 7.66c0.17,0.17 0.17,0.44 0,0.61l-2.2 2.2c-0.08,0.08 -0.19,0.13 -0.3,0.13zm-12.51 -2.63l1.59 1.59 5.15 -5.15c0.17,-0.17 0.44,-0.17 0.61,0l5.15 5.15 1.59 -1.59 -7.05 -7.05 -7.05 7.05z"/>
   <path fill="#D9DADA" fill-rule="nonzero" d="M13.55 20.72c-0.11,0 -0.22,-0.04 -0.31,-0.13l-5.15 -5.15 -5.15 5.15c-0.17,0.17 -0.44,0.17 -0.61,0l-2.2 -2.2c-0.08,-0.08 -0.13,-0.19 -0.13,-0.31 0,-0.11 0.05,-0.22 0.13,-0.3l7.66 -7.66c0.16,-0.16 0.45,-0.16 0.61,0l7.66 7.66c0.17,0.17 0.17,0.44 0,0.61l-2.2 2.2c-0.08,0.08 -0.19,0.13 -0.3,0.13zm-12.51 -2.63l1.59 1.59 5.15 -5.15c0.17,-0.17 0.44,-0.17 0.61,0l5.15 5.15 1.59 -1.59 -7.05 -7.05 -7.05 7.05z"/>
   <path fill="#D9DADA" fill-rule="nonzero" d="M13.55 10.72c-0.11,0 -0.22,-0.05 -0.31,-0.13l-5.15 -5.15 -5.15 5.15c-0.08,0.08 -0.19,0.13 -0.3,0.13 -0.11,0 -0.22,-0.05 -0.3,-0.13l-2.2 -2.2c-0.17,-0.17 -0.17,-0.44 0,-0.61l7.66 -7.66c0.17,-0.17 0.44,-0.17 0.61,0l7.66 7.66c0.17,0.17 0.17,0.44 0,0.61l-2.2 2.2c-0.08,0.08 -0.19,0.13 -0.3,0.13zm-12.51 -2.63l1.59 1.59 5.15 -5.15c0.17,-0.17 0.44,-0.17 0.61,0l5.15 5.15 1.59 -1.59 -7.05 -7.05 -7.05 7.05z"/>
   <path fill="#D9DADA" fill-rule="nonzero" d="M13.55 40.64c-0.11,0 -0.22,-0.05 -0.31,-0.13l-5.15 -5.15 -5.15 5.15c-0.08,0.08 -0.19,0.13 -0.3,0.13 -0.11,0 -0.22,-0.05 -0.3,-0.13l-2.2 -2.2c-0.17,-0.17 -0.17,-0.44 0,-0.61l7.66 -7.66c0.17,-0.17 0.44,-0.17 0.61,0l7.66 7.66c0.17,0.17 0.17,0.44 0,0.61l-2.2 2.2c-0.08,0.08 -0.19,0.13 -0.3,0.13zm-12.51 -2.63l1.59 1.59 5.15 -5.15c0.17,-0.17 0.44,-0.17 0.61,0l5.15 5.15 1.59 -1.59 -7.05 -7.05 -7.05 7.05z"/>
  </g>
 </g>
</svg>
