<?xml version="1.0" encoding="UTF-8"?>
<!DOCTYPE svg PUBLIC "-//W3C//DTD SVG 1.0//EN" "http://www.w3.org/TR/2001/REC-SVG-20010904/DTD/svg10.dtd">
<!-- Creator: CorelDRAW -->
<svg xmlns="http://www.w3.org/2000/svg" xml:space="preserve" width="19.6539mm" height="6.3161mm" version="1.0" shape-rendering="geometricPrecision" text-rendering="geometricPrecision" image-rendering="optimizeQuality" fill-rule="evenodd" clip-rule="evenodd"
viewBox="0 0 2784.73 894.92"
 xmlns:xlink="http://www.w3.org/1999/xlink"
 xmlns:xodm="http://www.corel.com/coreldraw/odm/2003">
 <g id="Layer_x0020_1">
  <metadata id="CorelCorpID_0Corel-Layer"/>
  <g id="_2012457448000">
   <polygon fill="#D9DADA" fill-rule="nonzero" points="38.48,894.92 -0,894.92 818.75,0 857.23,0 "/>
   <polygon fill="#D9DADA" fill-rule="nonzero" points="279.42,894.92 240.94,894.92 1059.69,0 1098.19,0 "/>
   <polygon fill="#D9DADA" fill-rule="nonzero" points="520.37,894.92 481.88,894.92 1300.62,0 1339.1,0 "/>
   <polygon fill="#D9DADA" fill-rule="nonzero" points="761.31,894.92 722.81,894.92 1541.54,0 1580.04,0 "/>
   <polygon fill="#D9DADA" fill-rule="nonzero" points="1002.23,894.92 963.75,894.92 1782.5,0 1820.98,0 "/>
   <polygon fill="#D9DADA" fill-rule="nonzero" points="1243.18,894.92 1204.68,894.92 2023.43,0 2061.92,0 "/>
   <polygon fill="#D9DADA" fill-rule="nonzero" points="1484.12,894.92 1445.62,894.92 2264.37,0 2302.85,0 "/>
   <polygon fill="#D9DADA" fill-rule="nonzero" points="1725.04,894.92 1686.55,894.92 2505.31,0 2543.79,0 "/>
   <polygon fill="#D9DADA" fill-rule="nonzero" points="1965.99,894.92 1927.49,894.92 2746.24,0 2784.73,0 "/>
  </g>
 </g>
</svg>
