<?xml version="1.0" encoding="UTF-8"?>
<!DOCTYPE svg PUBLIC "-//W3C//DTD SVG 1.0//EN" "http://www.w3.org/TR/2001/REC-SVG-20010904/DTD/svg10.dtd">
<!-- Creator: CorelDRAW -->
<svg xmlns="http://www.w3.org/2000/svg" xml:space="preserve" width="2.2899mm" height="2.29mm" version="1.0" shape-rendering="geometricPrecision" text-rendering="geometricPrecision" image-rendering="optimizeQuality" fill-rule="evenodd" clip-rule="evenodd"
viewBox="0 0 5.41 5.41"
 xmlns:xlink="http://www.w3.org/1999/xlink"
 xmlns:xodm="http://www.corel.com/coreldraw/odm/2003">
 <g id="Layer_x0020_1">
  <metadata id="CorelCorpID_0Corel-Layer"/>
  <path fill="#FEFEFE" d="M4.56 0l-3.72 0c-0.47,0 -0.84,0.38 -0.84,0.84l0 3.72c0,0.47 0.38,0.84 0.84,0.84l3.72 0c0.47,0 0.84,-0.38 0.84,-0.84l0 -3.72c0,-0.47 -0.38,-0.84 -0.84,-0.84zm-0.51 4l-0.58 0 0 -0.93c0,-0.23 -0.08,-0.39 -0.29,-0.39 -0.16,0 -0.26,0.11 -0.3,0.21 -0.02,0.04 -0.02,0.09 -0.02,0.14l0 0.97 -0.58 0c0,0 0.01,-1.58 0,-1.74l0.58 0 0 0.25c0.08,-0.12 0.21,-0.29 0.52,-0.29 0.38,0 0.67,0.25 0.67,0.78l0 1zm-2.38 -1.98l-0 0c-0.19,0 -0.32,-0.13 -0.32,-0.3 0,-0.17 0.13,-0.3 0.33,-0.3 0.2,0 0.32,0.13 0.32,0.3 0,0.17 -0.13,0.3 -0.33,0.3zm0.29 1.98l-0.58 0 0 -1.74 0.58 0 0 1.74z"/>
 </g>
</svg>
