<?xml version="1.0" encoding="UTF-8"?>
<!DOCTYPE svg PUBLIC "-//W3C//DTD SVG 1.0//EN" "http://www.w3.org/TR/2001/REC-SVG-20010904/DTD/svg10.dtd">
<!-- Creator: CorelDRAW -->
<svg xmlns="http://www.w3.org/2000/svg" xml:space="preserve" width="2.2899mm" height="2.2898mm" version="1.0" shape-rendering="geometricPrecision" text-rendering="geometricPrecision" image-rendering="optimizeQuality" fill-rule="evenodd" clip-rule="evenodd"
viewBox="0 0 5.83 5.83"
 xmlns:xlink="http://www.w3.org/1999/xlink"
 xmlns:xodm="http://www.corel.com/coreldraw/odm/2003">
 <g id="Layer_x0020_1">
  <metadata id="CorelCorpID_0Corel-Layer"/>
  <path fill="#FEFEFE" d="M4.92 0l-4.01 0c-0.5,0 -0.91,0.41 -0.91,0.91l0 4.01c0,0.5 0.41,0.91 0.91,0.91l4.01 0c0.5,0 0.91,-0.41 0.91,-0.91l0 -4.01c0,-0.5 -0.41,-0.91 -0.91,-0.91zm-1.14 1.56l0.46 0 -1 1.15 1.18 1.56 -0.93 0 -0.72 -0.95 -0.83 0.95 -0.46 0 1.07 -1.23 -1.13 -1.48 0.95 0 0.66 0.87 0.76 -0.87zm-0.16 2.43l0.25 0 -1.64 -2.17 -0.27 0 1.66 2.17z"/>
 </g>
</svg>
