<?xml version="1.0" encoding="UTF-8"?>
<!DOCTYPE svg PUBLIC "-//W3C//DTD SVG 1.0//EN" "http://www.w3.org/TR/2001/REC-SVG-20010904/DTD/svg10.dtd">
<!-- Creator: CorelDRAW -->
<svg xmlns="http://www.w3.org/2000/svg" xml:space="preserve" width="2.3156mm" height="2.3158mm" version="1.0" shape-rendering="geometricPrecision" text-rendering="geometricPrecision" image-rendering="optimizeQuality" fill-rule="evenodd" clip-rule="evenodd"
viewBox="0 0 4.52 4.52"
 xmlns:xlink="http://www.w3.org/1999/xlink"
 xmlns:xodm="http://www.corel.com/coreldraw/odm/2003">
 <g id="Layer_x0020_1">
  <metadata id="CorelCorpID_0Corel-Layer"/>
  <path fill="#FEFEFE" d="M3.82 0l-3.11 0c-0.39,0 -0.71,0.32 -0.71,0.71l0 3.11c0,0.39 0.32,0.71 0.71,0.71l3.11 0c0.39,0 0.71,-0.32 0.71,-0.71l0 -3.11c0,-0.39 -0.32,-0.71 -0.71,-0.71zm-0.72 1.23l-1.67 0c-0.11,0 -0.2,0.09 -0.2,0.2l0 1.67c0,0.11 0.09,0.2 0.2,0.2l1.67 0c0.11,0 0.2,-0.09 0.2,-0.2l0 -1.67c0,-0.11 -0.09,-0.2 -0.2,-0.2zm-0.04 0.56c0,0.04 -0.04,0.08 -0.08,0.08l-0.24 0c-0.04,0 -0.08,-0.04 -0.08,-0.08l0 -0.24c0,-0.04 0.04,-0.08 0.08,-0.08l0.24 0c0.04,0 0.08,0.04 0.08,0.08l0 0.24zm0 1.19c0,0.04 -0.04,0.08 -0.08,0.08l-1.43 0c-0.04,0 -0.08,-0.04 -0.08,-0.08l0 -0.87 0.18 0c-0.01,0.05 -0.02,0.1 -0.02,0.16 0,0.35 0.28,0.63 0.63,0.63 0.35,0 0.63,-0.28 0.63,-0.63 0,-0.05 -0.01,-0.11 -0.02,-0.16l0.18 0 0 0.87zm-0.79 -1.11c0.22,0 0.4,0.18 0.4,0.4 0,0.22 -0.18,0.4 -0.4,0.4 -0.22,0 -0.4,-0.18 -0.4,-0.4 0,-0.22 0.18,-0.4 0.4,-0.4z"/>
 </g>
</svg>
