<?xml version="1.0" encoding="UTF-8"?>
<!DOCTYPE svg PUBLIC "-//W3C//DTD SVG 1.0//EN" "http://www.w3.org/TR/2001/REC-SVG-20010904/DTD/svg10.dtd">
<!-- Creator: CorelDRAW -->
<svg xmlns="http://www.w3.org/2000/svg" xml:space="preserve" width="2.3158mm" height="2.3158mm" version="1.0" shape-rendering="geometricPrecision" text-rendering="geometricPrecision" image-rendering="optimizeQuality" fill-rule="evenodd" clip-rule="evenodd"
viewBox="0 0 5.15 5.15"
 xmlns:xlink="http://www.w3.org/1999/xlink"
 xmlns:xodm="http://www.corel.com/coreldraw/odm/2003">
 <g id="Layer_x0020_1">
  <metadata id="CorelCorpID_0Corel-Layer"/>
  <path fill="#FEFEFE" d="M4.34 0l-3.54 0c-0.44,0 -0.8,0.36 -0.8,0.8l0 3.54c0,0.44 0.36,0.8 0.8,0.8l3.54 0c0.44,0 0.8,-0.36 0.8,-0.8l0 -3.54c0,-0.44 -0.36,-0.8 -0.8,-0.8zm-1.22 2.57l-0.36 0c0,0.58 0,1.29 0,1.29l-0.53 0c0,0 0,-0.7 0,-1.29l-0.25 0 0 -0.45 0.25 0 0 -0.29c0,-0.21 0.1,-0.54 0.54,-0.54l0.4 0 0 0.44c0,0 -0.24,0 -0.29,0 -0.05,0 -0.11,0.02 -0.11,0.12l0 0.27 0.41 0 -0.05 0.45z"/>
 </g>
</svg>
