<?xml version="1.0" encoding="UTF-8"?>
<!DOCTYPE svg PUBLIC "-//W3C//DTD SVG 1.0//EN" "http://www.w3.org/TR/2001/REC-SVG-20010904/DTD/svg10.dtd">
<!-- Creator: CorelDRAW -->
<svg xmlns="http://www.w3.org/2000/svg" xml:space="preserve" width="2.3156mm" height="2.3158mm" version="1.0" shape-rendering="geometricPrecision" text-rendering="geometricPrecision" image-rendering="optimizeQuality" fill-rule="evenodd" clip-rule="evenodd"
viewBox="0 0 4.82 4.82"
 xmlns:xlink="http://www.w3.org/1999/xlink"
 xmlns:xodm="http://www.corel.com/coreldraw/odm/2003">
 <g id="Layer_x0020_1">
  <metadata id="CorelCorpID_0Corel-Layer"/>
  <path fill="#FEFEFE" d="M4.06 0l-3.31 0c-0.42,0 -0.75,0.34 -0.75,0.75l0 3.31c0,0.42 0.34,0.75 0.75,0.75l3.31 0c0.42,0 0.75,-0.34 0.75,-0.75l0 -3.31c0,-0.42 -0.34,-0.75 -0.75,-0.75zm-0.4 1.78c-0.03,-0.11 -0.12,-0.2 -0.23,-0.23 -0.21,-0.06 -1.03,-0.06 -1.03,-0.06 0,0 -0.82,0 -1.03,0.05 -0.11,0.03 -0.2,0.12 -0.23,0.23 -0.05,0.21 -0.05,0.63 -0.05,0.63 0,0 0,0.43 0.05,0.63 0.03,0.11 0.12,0.2 0.23,0.23 0.21,0.06 1.03,0.06 1.03,0.06 0,0 0.82,0 1.03,-0.05 0.11,-0.03 0.2,-0.12 0.23,-0.23 0.05,-0.21 0.05,-0.63 0.05,-0.63 0,0 0,-0.43 -0.05,-0.63zm-1.52 1.02l0 -0.79 0.68 0.39 -0.68 0.39z"/>
 </g>
</svg>
