<?xml version="1.0" encoding="UTF-8"?>
<!DOCTYPE svg PUBLIC "-//W3C//DTD SVG 1.0//EN" "http://www.w3.org/TR/2001/REC-SVG-20010904/DTD/svg10.dtd">
<!-- Creator: CorelDRAW -->
<svg xmlns="http://www.w3.org/2000/svg" xml:space="preserve" width="22.9177mm" height="7.0651mm" version="1.0" shape-rendering="geometricPrecision" text-rendering="geometricPrecision" image-rendering="optimizeQuality" fill-rule="evenodd" clip-rule="evenodd"
viewBox="0 0 442.59 136.44"
 xmlns:xlink="http://www.w3.org/1999/xlink"
 xmlns:xodm="http://www.corel.com/coreldraw/odm/2003">
 <g id="Layer_x0020_1">
  <metadata id="CorelCorpID_0Corel-Layer"/>
  <path fill="#FEFEFE" fill-rule="nonzero" d="M200.47 50.31l-16.92 0 0 -7.24 41.99 0 0 7.24 -16.99 0 0 43.06 -8.08 0 0 -43.06zm58.99 43.9c-4.83,0 -9.26,-1.14 -13.3,-3.43 -4.04,-2.29 -7.23,-5.41 -9.57,-9.37 -2.34,-3.96 -3.51,-8.36 -3.51,-13.18 0,-4.83 1.18,-9.22 3.54,-13.18 2.36,-3.96 5.55,-7.09 9.57,-9.37 4.01,-2.29 8.43,-3.43 13.26,-3.43 4.78,0 9.2,1.14 13.26,3.43 4.07,2.28 7.28,5.41 9.64,9.37 2.36,3.96 3.55,8.36 3.55,13.18 0,4.83 -1.18,9.22 -3.55,13.18 -2.36,3.96 -5.58,7.09 -9.64,9.37 -4.07,2.29 -8.48,3.43 -13.26,3.43zm0.08 -7.24c3.4,0 6.48,-0.81 9.22,-2.43 2.74,-1.61 4.9,-3.85 6.48,-6.72 1.57,-2.87 2.36,-6.1 2.36,-9.68 0,-3.48 -0.79,-6.65 -2.36,-9.53 -1.58,-2.87 -3.73,-5.11 -6.48,-6.72 -2.74,-1.61 -5.82,-2.43 -9.22,-2.43 -3.45,0 -6.55,0.81 -9.3,2.43 -2.74,1.61 -4.89,3.84 -6.44,6.68 -1.55,2.84 -2.33,6.03 -2.33,9.56 0,3.58 0.77,6.81 2.33,9.68 1.55,2.87 3.7,5.11 6.44,6.72 2.74,1.61 5.84,2.43 9.3,2.43zm50.91 -36.66l-16.92 0 0 -7.24 41.99 0 0 7.24 -16.99 0 0 43.06 -8.08 0 0 -43.06zm36.81 -7.24l33.08 0 0 7.24 -25 0 0 12.88 18.82 0 0 7.24 -18.82 0 0 15.7 25.91 0 0 7.24 -33.99 0 0 -50.3zm95.34 -0.84l0 51.14 -8.08 0 0 -31.55 -14.4 18.9 -2.74 0 -14.48 -18.98 0 31.63 -8.08 0 0 -51.14 2.82 0 21.11 28.12 21.11 -28.12 2.74 0z"/>
  <g id="_2012220913856">
   <path fill="#FEFEFE" d="M68.22 0c37.68,0 68.22,30.54 68.22,68.22 0,37.68 -30.54,68.22 -68.22,68.22 -37.68,0 -68.22,-30.54 -68.22,-68.22 0,-37.68 30.54,-68.22 68.22,-68.22z"/>
   <path fill="#0000F8" d="M108.69 86.2c-2.48,0 -4.48,-2 -4.48,-4.48 0,-13.49 0,-13.49 0,-13.49 0,-19.86 -16.12,-35.99 -35.99,-35.93 -5.59,0 -11.12,1.26 -16.12,3.79 -2.21,1.11 -4.9,0.26 -6.06,-1.95 -1.11,-2.21 -0.26,-4.9 1.95,-6.06 17.33,-8.75 38.3,-5.37 52,8.38 8.48,8.38 13.22,19.86 13.17,31.77 0,13.49 0,13.49 0,13.49 0,2.48 -2,4.48 -4.48,4.48l0 0zm-80.93 0c-2.48,0 -4.48,-2 -4.48,-4.48 0,-13.49 0,-13.49 0,-13.49 -0.05,-9.48 2.95,-18.76 8.59,-26.4 1.48,-2 4.32,-2.42 6.32,-0.95 1.95,1.48 2.37,4.27 0.89,6.27 -4.48,6.11 -6.9,13.49 -6.85,21.08 0,13.49 0,13.49 0,13.49 0,2.48 -2,4.48 -4.48,4.48l0 0zm67.44 18.02c-2.48,0 -4.48,-2.05 -4.48,-4.53 0,-31.45 0,-31.45 0,-31.45 0,-3.16 -0.68,-6.27 -2,-9.17 -1.16,-2.21 -0.26,-4.9 1.95,-6.06 2.21,-1.11 4.95,-0.21 6.06,2 0.05,0.1 0.05,0.16 0.11,0.26 1.9,4.06 2.84,8.48 2.84,12.96 0,31.45 0,31.45 0,31.45 0,2.48 -2,4.53 -4.48,4.53l0 0zm-53.95 0c-2.48,0 -4.48,-2.05 -4.48,-4.53 0,-31.45 0,-31.45 0,-31.45 0,-17.39 14.07,-31.46 31.46,-31.46 4.48,-0.05 8.9,0.95 12.96,2.84 2.21,1.05 3.16,3.74 2.05,6.01 -1.05,2.16 -3.63,3.11 -5.85,2.11 -2.9,-1.32 -6.01,-2 -9.17,-2 -12.44,0.05 -22.45,10.06 -22.5,22.5 0,31.45 0,31.45 0,31.45 0,2.48 -2,4.53 -4.48,4.53l0 0zm26.98 8.96c-2.48,0 -4.48,-2 -4.48,-4.48 0,-40.46 0,-40.46 0,-40.46 0,-2.48 2,-4.48 4.48,-4.48 2.48,0 4.48,2 4.48,4.48 0,40.46 0,40.46 0,40.46 0,2.48 -2,4.48 -4.48,4.48l0 0zm13.49 -4.48c-2.48,0 -4.48,-2 -4.48,-4.48 0,-35.98 0,-35.98 0,-35.98 0,-4.95 -4.06,-9.01 -9.01,-9.01 -4.95,0 -9.01,4.06 -9.01,9.01 0,4.48 0,4.48 0,4.48 0,2.48 -2,4.53 -4.48,4.53 -2.48,0 -4.48,-2.05 -4.48,-4.53 0,-4.48 0,-4.48 0,-4.48 0,-9.96 8.01,-17.97 17.97,-17.97 9.96,0 17.97,8.01 17.97,17.97 0,35.98 0,35.98 0,35.98 0,2.48 -2,4.48 -4.48,4.48l0 0zm-26.98 0c-2.48,0 -4.48,-2 -4.48,-4.48 0,-13.49 0,-13.49 0,-13.49 0,-2.48 2,-4.53 4.48,-4.53 2.48,0 4.48,2.05 4.48,4.53 0,13.49 0,13.49 0,13.49 0,2.48 -2,4.48 -4.48,4.48l0 0z"/>
  </g>
 </g>
</svg>
